<?xml version="1.0" standalone="no"?>
<!DOCTYPE svg PUBLIC "-//W3C//DTD SVG 20010904//EN"
 "http://www.w3.org/TR/2001/REC-SVG-20010904/DTD/svg10.dtd">
<svg version="1.0" xmlns="http://www.w3.org/2000/svg"
 width="1548.000000pt" height="658.000000pt" viewBox="0 0 1548.000000 658.000000"
 preserveAspectRatio="xMidYMid meet">

<g transform="translate(0.000000,658.000000) scale(0.100000,-0.100000)"
fill="#000000" stroke="none">
<path d="M4660 6423 c-36 -25 -48 -42 -61 -95 -11 -40 -17 -48 -36 -48 -16 0
-23 -6 -23 -20 0 -13 7 -20 20 -20 16 0 19 -5 15 -22 -3 -13 -16 -78 -29 -145
l-23 -123 27 0 c27 0 27 1 54 144 l28 145 36 3 c26 2 38 8 40 21 3 14 -4 17
-32 17 -41 0 -42 4 -20 58 15 39 55 68 76 56 11 -7 28 13 28 34 0 18 -71 15
-100 -5z"/>
<path d="M6860 6423 c-36 -25 -48 -42 -61 -95 -11 -40 -17 -48 -36 -48 -16 0
-23 -6 -23 -20 0 -13 7 -20 20 -20 16 0 19 -5 15 -22 -3 -13 -16 -78 -29 -145
l-23 -123 27 0 c27 0 27 1 54 144 l28 145 36 3 c26 2 38 8 40 21 3 14 -4 17
-32 17 -41 0 -42 4 -20 58 15 39 55 68 76 56 11 -7 28 13 28 34 0 18 -71 15
-100 -5z"/>
<path d="M5105 6418 c-6 -18 -85 -441 -85 -456 0 -7 11 -12 25 -12 20 0 25 6
31 38 3 20 12 68 20 105 8 38 14 70 14 72 0 3 14 20 31 40 34 39 77 47 100 19
12 -15 4 -94 -28 -246 -5 -25 -2 -28 20 -28 29 0 30 1 51 119 22 117 21 176
-4 201 -33 33 -86 24 -138 -24 l-24 -21 6 25 c8 35 36 170 36 176 0 10 -51 3
-55 -8z"/>
<path d="M10665 6418 c-6 -18 -85 -441 -85 -456 0 -6 11 -12 25 -12 14 0 25 1
25 3 0 1 20 108 45 237 25 129 45 236 45 238 0 9 -51 -1 -55 -10z"/>
<path d="M11015 6418 c-6 -18 -85 -441 -85 -456 0 -7 11 -12 25 -12 20 0 25 6
31 38 3 20 12 68 20 105 8 38 14 70 14 72 0 3 14 20 31 40 34 39 77 47 100 19
12 -15 4 -94 -28 -246 -5 -25 -2 -28 20 -28 29 0 30 1 51 119 22 117 21 176
-4 201 -33 33 -86 24 -138 -24 l-24 -21 6 25 c8 35 36 170 36 176 0 10 -51 3
-55 -8z"/>
<path d="M7828 6410 c-113 -34 -183 -142 -183 -280 0 -125 52 -182 165 -181
78 0 100 7 100 32 0 19 -4 20 -53 14 -103 -13 -157 36 -157 143 0 95 44 178
113 213 33 17 53 20 98 16 51 -4 58 -3 62 15 9 33 -74 49 -145 28z"/>
<path d="M1103 6197 c-128 -265 -121 -247 -89 -247 23 0 31 9 61 75 l34 75 70
0 70 0 5 -32 c3 -18 7 -51 8 -73 3 -35 6 -40 31 -43 15 -2 27 -2 27 1 0 9 -40
376 -45 415 -6 40 -8 42 -38 42 -32 -1 -33 -3 -134 -213z m140 6 l7 -63 -61 0
c-33 0 -59 4 -57 9 2 4 23 51 48 104 l45 95 6 -41 c3 -23 9 -70 12 -104z"/>
<path d="M1886 6208 c-21 -112 -40 -215 -43 -230 -5 -25 -2 -28 20 -28 31 0
27 -13 72 230 20 107 38 203 41 213 4 13 -1 17 -23 17 l-29 0 -38 -202z"/>
<path d="M2410 6395 c-17 -21 -8 -50 17 -53 28 -4 50 32 32 54 -15 18 -33 18
-49 -1z"/>
<path d="M2760 6395 c-17 -21 -8 -50 17 -53 28 -4 50 32 32 54 -15 18 -33 18
-49 -1z"/>
<path d="M3430 6395 c-17 -21 -8 -50 17 -53 28 -4 50 32 32 54 -15 18 -33 18
-49 -1z"/>
<path d="M5807 6208 c-21 -112 -41 -215 -44 -230 -5 -25 -2 -28 20 -28 16 0
28 7 31 18 5 16 36 179 36 188 0 2 33 4 74 4 58 0 75 3 80 16 12 31 5 34 -70
34 -67 0 -75 2 -70 18 4 14 26 130 26 138 0 2 37 4 82 6 70 3 83 6 86 21 3 15
-7 17 -105 17 l-109 0 -37 -202z"/>
<path d="M6440 6395 c-17 -21 -8 -50 17 -53 28 -4 50 32 32 54 -15 18 -33 18
-49 -1z"/>
<path d="M9617 6207 c-21 -111 -41 -214 -44 -229 -5 -25 -2 -28 20 -28 30 0
30 0 52 123 l17 97 94 0 c52 0 94 -4 94 -9 0 -8 -22 -127 -36 -188 -4 -20 0
-23 23 -23 l28 0 38 203 c21 111 41 214 44 230 5 24 2 27 -20 27 -28 0 -30 -3
-47 -95 -20 -103 -10 -95 -114 -95 l-93 0 13 73 c8 39 16 82 19 95 5 19 1 22
-22 22 l-28 0 -38 -203z"/>
<path d="M11465 6398 c-5 -14 -85 -432 -85 -443 0 -4 44 -5 98 -3 74 3 107 9
139 26 85 44 132 133 132 253 1 88 -20 132 -79 161 -43 22 -198 26 -205 6z
m158 -37 c68 -26 91 -101 62 -208 -22 -82 -70 -134 -138 -151 -53 -14 -94 -15
-101 -4 -2 4 8 72 24 152 15 80 30 162 34 183 7 36 8 37 51 37 24 0 55 -4 68
-9z"/>
<path d="M2584 6363 c-16 -3 -23 -14 -28 -44 -5 -33 -10 -39 -31 -39 -18 0
-25 -5 -25 -20 0 -14 7 -20 21 -20 17 0 20 -5 16 -22 -25 -102 -39 -220 -29
-242 17 -37 102 -42 102 -6 0 12 -8 20 -22 22 -31 4 -34 33 -12 151 l17 97 38
0 c28 0 38 5 42 20 4 17 0 20 -34 20 -42 0 -42 0 -22 73 2 9 1 16 -4 16 -4 -1
-18 -4 -29 -6z"/>
<path d="M3254 6363 c-16 -3 -23 -14 -28 -44 -5 -33 -10 -39 -31 -39 -18 0
-25 -5 -25 -20 0 -14 7 -20 21 -20 17 0 20 -5 16 -22 -25 -102 -39 -220 -29
-242 17 -37 102 -42 102 -6 0 12 -8 20 -22 22 -31 4 -34 33 -12 151 l17 97 38
0 c28 0 38 5 42 20 4 17 0 20 -34 20 -42 0 -42 0 -22 73 2 9 1 16 -4 16 -4 -1
-18 -4 -29 -6z"/>
<path d="M4924 6363 c-16 -3 -23 -14 -28 -44 -5 -33 -10 -39 -31 -39 -18 0
-25 -5 -25 -20 0 -14 7 -20 21 -20 17 0 20 -5 16 -22 -25 -102 -39 -220 -29
-242 17 -37 102 -42 102 -6 0 12 -8 20 -22 22 -31 4 -34 33 -12 151 l17 97 38
0 c28 0 38 5 42 20 4 17 0 20 -34 20 -42 0 -42 0 -22 73 2 9 1 16 -4 16 -4 -1
-18 -4 -29 -6z"/>
<path d="M9064 6363 c-16 -3 -23 -14 -28 -44 -5 -33 -10 -39 -31 -39 -18 0
-25 -5 -25 -20 0 -14 7 -20 21 -20 17 0 20 -5 16 -22 -25 -102 -39 -220 -29
-242 17 -37 102 -42 102 -6 0 12 -8 20 -22 22 -31 4 -34 33 -12 151 l17 97 38
0 c28 0 38 5 42 20 4 17 0 20 -34 20 -42 0 -42 0 -22 73 2 9 1 16 -4 16 -4 -1
-18 -4 -29 -6z"/>
<path d="M10834 6363 c-16 -3 -23 -14 -28 -44 -5 -33 -10 -39 -31 -39 -18 0
-25 -5 -25 -20 0 -14 7 -20 21 -20 17 0 20 -5 16 -22 -25 -102 -39 -220 -29
-242 17 -37 102 -42 102 -6 0 12 -8 20 -22 22 -31 4 -34 33 -12 151 l17 97 38
0 c28 0 38 5 42 20 4 17 0 20 -34 20 -42 0 -42 0 -22 73 2 9 1 16 -4 16 -4 -1
-18 -4 -29 -6z"/>
<path d="M13074 6363 c-16 -3 -23 -14 -28 -44 -5 -33 -10 -39 -31 -39 -18 0
-25 -5 -25 -20 0 -14 7 -20 21 -20 17 0 20 -5 16 -22 -25 -102 -39 -220 -29
-242 17 -37 102 -42 102 -6 0 12 -8 20 -22 22 -31 4 -34 33 -12 151 l17 97 38
0 c28 0 38 5 42 20 4 17 0 20 -34 20 -42 0 -42 0 -22 73 2 9 1 16 -4 16 -4 -1
-18 -4 -29 -6z"/>
<path d="M14404 6363 c-16 -3 -23 -14 -28 -44 -5 -33 -10 -39 -31 -39 -18 0
-25 -5 -25 -20 0 -14 7 -20 21 -20 17 0 20 -5 16 -22 -25 -102 -39 -220 -29
-242 17 -37 102 -42 102 -6 0 12 -8 20 -22 22 -31 4 -34 33 -12 151 l17 97 38
0 c28 0 38 5 42 20 4 17 0 20 -34 20 -42 0 -42 0 -22 73 2 9 1 16 -4 16 -4 -1
-18 -4 -29 -6z"/>
<path d="M1550 6283 c-8 -3 -27 -17 -42 -31 l-28 -26 0 27 c0 21 -5 27 -22 27
-22 0 -25 -9 -51 -158 -15 -86 -27 -160 -27 -164 0 -5 11 -8 25 -8 20 0 25 6
31 38 24 136 36 179 63 212 32 40 79 51 101 25 13 -16 5 -92 -27 -247 -5 -25
-2 -28 20 -28 29 0 30 1 51 119 22 117 21 176 -4 201 -19 19 -58 25 -90 13z"/>
<path d="M2160 6283 c-8 -3 -27 -17 -42 -31 l-28 -26 0 27 c0 21 -5 27 -22 27
-22 0 -25 -9 -51 -158 -15 -86 -27 -160 -27 -164 0 -5 11 -8 25 -8 20 0 25 6
31 38 24 136 36 179 63 212 32 40 79 51 101 25 13 -16 5 -92 -27 -247 -5 -25
-2 -28 20 -28 29 0 30 1 51 119 22 117 21 176 -4 201 -19 19 -58 25 -90 13z"/>
<path d="M2966 6276 c-79 -30 -135 -110 -143 -205 -5 -65 10 -100 50 -119 37
-18 87 -1 122 39 l25 31 0 -36 c0 -29 4 -36 20 -36 14 0 20 8 24 33 2 17 14
90 26 160 12 71 19 131 16 134 -13 13 -104 12 -140 -1z m77 -74 c-3 -70 -30
-145 -64 -180 -56 -57 -105 -35 -102 45 3 80 57 160 118 176 42 10 50 3 48
-41z"/>
<path d="M3892 6273 c-43 -21 -80 -70 -98 -129 -18 -60 -18 -98 1 -138 21 -43
49 -58 111 -57 66 0 94 14 87 40 -4 16 -9 18 -30 10 -66 -25 -121 2 -125 61
l-3 35 57 6 c77 8 116 26 133 60 27 51 18 92 -26 114 -36 19 -66 19 -107 -2z
m78 -33 c15 0 22 -38 11 -59 -12 -22 -61 -41 -108 -41 l-33 0 20 40 c21 41 65
73 88 65 8 -3 17 -5 22 -5z"/>
<path d="M4301 6273 c-73 -36 -127 -161 -103 -241 17 -57 53 -85 106 -85 60 0
103 28 139 91 35 62 42 149 17 196 -28 54 -96 70 -159 39z m94 -48 c62 -61 2
-235 -80 -235 -43 0 -65 30 -65 88 0 70 38 143 85 163 30 12 34 11 60 -16z"/>
<path d="M5462 6273 c-43 -21 -80 -70 -98 -129 -18 -60 -18 -98 1 -138 21 -43
49 -58 111 -57 66 0 94 14 87 40 -4 16 -9 18 -30 10 -66 -25 -121 2 -125 61
l-3 35 57 6 c77 8 116 26 133 60 27 51 18 92 -26 114 -36 19 -66 19 -107 -2z
m78 -33 c15 0 22 -38 11 -59 -12 -22 -61 -41 -108 -41 l-33 0 20 40 c21 41 65
73 88 65 8 -3 17 -5 22 -5z"/>
<path d="M6176 6276 c-79 -30 -135 -110 -143 -205 -5 -65 10 -100 50 -119 37
-18 87 -1 122 39 l25 31 0 -36 c0 -29 4 -36 20 -36 14 0 20 8 24 33 2 17 14
90 26 160 12 71 19 131 16 134 -13 13 -104 12 -140 -1z m77 -74 c-3 -70 -30
-145 -64 -180 -56 -57 -105 -35 -102 45 3 80 57 160 118 176 42 10 50 3 48
-41z"/>
<path d="M6665 6279 c-11 -6 -30 -23 -43 -38 l-22 -26 6 33 c6 29 4 32 -17 32
-23 0 -25 -6 -48 -137 -14 -76 -26 -150 -29 -165 -4 -25 -1 -28 21 -28 22 0
27 6 33 38 28 166 54 224 109 242 27 9 35 17 35 36 0 26 -13 30 -45 13z"/>
<path d="M7046 6276 c-79 -30 -135 -110 -143 -205 -5 -65 10 -100 50 -119 37
-18 87 -1 122 39 l25 31 0 -36 c0 -29 4 -36 20 -36 14 0 20 8 24 33 2 17 14
90 26 160 12 71 19 131 16 134 -13 13 -104 12 -140 -1z m77 -74 c-3 -70 -30
-145 -64 -180 -56 -57 -105 -35 -102 45 3 80 57 160 118 176 42 10 50 3 48
-41z"/>
<path d="M8071 6273 c-73 -36 -127 -161 -103 -241 17 -57 53 -85 106 -85 60 0
103 28 139 91 35 62 42 149 17 196 -28 54 -96 70 -159 39z m94 -48 c62 -61 2
-235 -80 -235 -43 0 -65 30 -65 88 0 70 38 143 85 163 30 12 34 11 60 -16z"/>
<path d="M8790 6283 c-8 -3 -27 -17 -42 -31 l-28 -26 0 27 c0 21 -5 27 -22 27
-22 0 -25 -9 -51 -158 -15 -86 -27 -160 -27 -164 0 -5 11 -8 25 -8 20 0 25 6
31 38 24 136 36 179 63 212 32 40 79 51 101 25 13 -16 5 -92 -27 -247 -5 -25
-2 -28 20 -28 29 0 30 1 51 119 22 117 21 176 -4 201 -19 19 -58 25 -90 13z"/>
<path d="M10072 6273 c-43 -21 -80 -70 -98 -129 -18 -60 -18 -98 1 -138 21
-43 49 -58 111 -57 66 0 94 14 87 40 -4 16 -9 18 -30 10 -66 -25 -121 2 -125
61 l-3 35 57 6 c77 8 116 26 133 60 27 51 18 92 -26 114 -36 19 -66 19 -107
-2z m78 -33 c15 0 22 -38 11 -59 -12 -22 -61 -41 -108 -41 l-33 0 20 40 c21
41 65 73 88 65 8 -3 17 -5 22 -5z"/>
<path d="M10396 6276 c-79 -30 -135 -110 -143 -205 -5 -65 10 -100 50 -119 37
-18 87 -1 122 39 l25 31 0 -36 c0 -29 4 -36 20 -36 14 0 20 8 24 33 2 17 14
90 26 160 12 71 19 131 16 134 -13 13 -104 12 -140 -1z m77 -74 c-3 -70 -30
-145 -64 -180 -56 -57 -105 -35 -102 45 3 80 57 160 118 176 42 10 50 3 48
-41z"/>
<path d="M11902 6273 c-43 -21 -80 -70 -98 -129 -18 -60 -18 -98 1 -138 21
-43 49 -58 111 -57 66 0 94 14 87 40 -4 16 -9 18 -30 10 -66 -25 -121 2 -125
61 l-3 35 57 6 c77 8 116 26 133 60 27 51 18 92 -26 114 -36 19 -66 19 -107
-2z m78 -33 c15 0 22 -38 11 -59 -12 -22 -61 -41 -108 -41 l-33 0 20 40 c21
41 65 73 88 65 8 -3 17 -5 22 -5z"/>
<path d="M12235 6278 c-11 -6 -30 -20 -43 -32 l-24 -21 7 28 c6 24 5 27 -19
27 -14 0 -26 -4 -26 -9 0 -9 -60 -338 -76 -418 -6 -30 -4 -33 19 -33 28 0 32
8 43 84 7 48 7 48 39 43 114 -19 215 87 215 226 0 51 -4 62 -29 88 -31 31 -70
37 -106 17z m66 -55 c20 -23 15 -102 -9 -149 -32 -62 -63 -86 -108 -82 l-39 3
3 52 c3 67 26 131 59 165 30 32 73 37 94 11z"/>
<path d="M12556 6276 c-79 -30 -135 -110 -143 -205 -5 -65 10 -100 50 -119 37
-18 87 -1 122 39 l25 31 0 -36 c0 -29 4 -36 20 -36 14 0 20 8 24 33 2 17 14
90 26 160 12 71 19 131 16 134 -13 13 -104 12 -140 -1z m77 -74 c-3 -70 -30
-145 -64 -180 -56 -57 -105 -35 -102 45 3 80 57 160 118 176 42 10 50 3 48
-41z"/>
<path d="M12895 6279 c-11 -6 -30 -23 -43 -38 l-22 -26 6 33 c6 29 4 32 -17
32 -23 0 -25 -6 -48 -137 -14 -76 -26 -150 -29 -165 -4 -25 -1 -28 21 -28 22
0 27 6 33 38 28 166 54 224 109 242 27 9 35 17 35 36 0 26 -13 30 -45 13z"/>
<path d="M13306 6265 c-34 -23 -36 -23 -36 -5 0 14 -7 20 -22 20 -22 0 -25 -9
-51 -158 -15 -86 -27 -160 -27 -164 0 -5 11 -8 24 -8 22 0 25 6 41 91 9 50 21
103 26 118 28 73 111 110 125 54 6 -22 -11 -142 -33 -240 -4 -19 -1 -23 21
-23 18 0 27 6 30 23 3 12 12 56 20 97 19 96 28 120 59 148 17 16 34 22 53 20
29 -3 29 -4 28 -68 0 -36 -8 -100 -16 -142 l-16 -78 27 0 c27 0 28 1 50 130
13 72 20 142 17 155 -15 60 -96 70 -152 18 -19 -17 -29 -22 -32 -13 -9 26 -43
50 -71 50 -15 0 -45 -11 -65 -25z"/>
<path d="M13792 6273 c-43 -21 -80 -70 -98 -129 -18 -60 -18 -98 1 -138 21
-43 49 -58 111 -57 66 0 94 14 87 40 -4 16 -9 18 -30 10 -66 -25 -121 2 -125
61 l-3 35 57 6 c77 8 116 26 133 60 27 51 18 92 -26 114 -36 19 -66 19 -107
-2z m78 -33 c15 0 22 -38 11 -59 -12 -22 -61 -41 -108 -41 l-33 0 20 40 c21
41 65 73 88 65 8 -3 17 -5 22 -5z"/>
<path d="M14130 6283 c-8 -3 -27 -17 -42 -31 l-28 -26 0 27 c0 21 -5 27 -22
27 -22 0 -25 -9 -51 -158 -15 -86 -27 -160 -27 -164 0 -5 11 -8 25 -8 20 0 25
6 31 38 24 136 36 179 63 212 32 40 79 51 101 25 13 -16 5 -92 -27 -247 -5
-25 -2 -28 20 -28 29 0 30 1 51 119 22 117 21 176 -4 201 -19 19 -58 25 -90
13z"/>
<path d="M2386 6263 c-7 -26 -56 -285 -56 -300 0 -7 11 -13 25 -13 20 0 25 6
31 38 3 20 17 90 30 156 13 65 24 123 24 127 0 17 -49 9 -54 -8z"/>
<path d="M2736 6263 c-7 -26 -56 -285 -56 -300 0 -7 11 -13 25 -13 20 0 25 6
31 38 3 20 17 90 30 156 13 65 24 123 24 127 0 17 -49 9 -54 -8z"/>
<path d="M3406 6263 c-7 -26 -56 -285 -56 -300 0 -7 11 -13 25 -13 20 0 25 6
31 38 3 20 17 90 30 156 13 65 24 123 24 127 0 17 -49 9 -54 -8z"/>
<path d="M3520 6267 c0 -7 9 -75 20 -152 11 -77 20 -146 20 -152 0 -7 12 -13
28 -13 25 0 33 12 110 159 45 87 82 161 82 165 0 3 -11 6 -25 6 -23 0 -33 -14
-90 -132 -36 -73 -65 -128 -65 -123 0 15 -20 186 -26 223 -4 26 -9 32 -29 32
-14 0 -25 -6 -25 -13z"/>
<path d="M6416 6263 c-7 -26 -56 -285 -56 -300 0 -7 11 -13 25 -13 20 0 25 6
31 38 3 20 17 90 30 156 13 65 24 123 24 127 0 17 -49 9 -54 -8z"/>
<path d="M7285 6201 l34 -79 -65 -82 c-35 -45 -64 -84 -64 -86 0 -2 13 -4 29
-4 24 0 36 11 74 66 l46 67 12 -29 c6 -16 17 -45 23 -64 11 -29 19 -36 44 -38
l31 -3 -35 86 -35 86 67 80 66 79 -34 0 c-28 0 -38 -8 -66 -48 -19 -26 -38
-54 -42 -62 -11 -18 -12 -17 -37 50 -18 49 -24 55 -51 58 l-31 3 34 -80z"/>
<path d="M8322 6167 c-27 -138 -27 -168 -4 -197 27 -33 91 -31 137 4 l36 28
-7 -26 c-5 -23 -3 -26 20 -26 14 0 26 4 26 9 0 14 50 283 56 304 4 13 -1 17
-24 17 -28 0 -29 -2 -41 -72 -20 -118 -30 -146 -62 -183 -31 -35 -60 -43 -88
-26 -18 11 -16 64 7 184 l19 97 -26 0 c-26 0 -27 -3 -49 -113z"/>
<path d="M9190 6263 c0 -10 11 -81 25 -157 14 -77 25 -144 25 -148 0 -14 -81
-97 -101 -103 -15 -5 -18 -12 -13 -28 9 -30 9 -30 42 -13 69 36 114 105 236
369 l45 97 -29 0 c-26 0 -31 -7 -81 -125 -29 -69 -56 -125 -60 -125 -3 0 -9
28 -13 62 -3 34 -11 90 -17 125 -10 57 -13 63 -35 63 -16 0 -24 -6 -24 -17z"/>
<path d="M2918 5361 c-204 -29 -379 -147 -448 -303 -55 -124 -49 -294 15 -424
72 -147 157 -194 517 -288 268 -71 314 -89 351 -138 77 -102 54 -227 -55 -300
-59 -40 -99 -50 -224 -55 -156 -7 -272 25 -347 95 -31 29 -77 111 -77 137 0 8
-6 15 -13 15 -17 0 -290 -60 -294 -64 -2 -2 8 -32 22 -67 67 -167 204 -279
415 -339 108 -31 332 -39 455 -15 218 40 386 159 455 320 75 175 35 411 -91
537 -76 76 -177 119 -444 187 -126 32 -246 65 -266 74 -75 31 -139 109 -139
169 0 83 63 164 153 195 77 26 224 24 299 -5 62 -25 132 -92 150 -143 6 -17
15 -28 22 -26 6 2 73 19 148 38 156 38 149 29 101 127 -55 110 -200 211 -362
253 -85 22 -257 32 -343 20z"/>
<path d="M7365 5360 c-314 -49 -556 -330 -606 -706 -18 -133 -7 -346 24 -465
80 -309 274 -522 522 -574 93 -19 249 -19 338 1 391 87 619 510 556 1029 -44
356 -248 629 -524 700 -75 20 -231 27 -310 15z m247 -265 c104 -36 187 -152
230 -321 21 -79 23 -112 22 -304 -1 -230 -12 -302 -65 -414 -54 -116 -177
-197 -306 -204 -186 -10 -322 109 -377 328 -58 235 -36 573 50 745 28 55 82
116 130 145 79 50 214 60 316 25z"/>
<path d="M3800 5210 l0 -130 230 0 230 0 0 -2005 0 -2005 3525 0 3525 0 0
1835 0 1835 -620 0 -620 0 0 -165 0 -165 455 0 455 0 0 -1505 0 -1505 -3192 0
-3193 0 0 1838 0 1837 228 3 227 2 0 130 0 130 -625 0 -625 0 0 -130z"/>
<path d="M5240 4480 l0 -860 155 0 155 0 0 355 0 355 217 -2 216 -3 132 -350
133 -350 166 -3 166 -2 -19 47 c-232 586 -282 715 -279 717 1 1 16 8 32 14 61
27 139 87 178 138 139 185 120 493 -42 654 -63 64 -171 117 -277 135 -58 11
-185 14 -505 15 l-428 0 0 -860z m846 595 c62 -18 126 -72 153 -128 46 -96 15
-242 -65 -303 -70 -54 -133 -64 -390 -64 l-234 0 0 255 0 255 243 0 c186 0
255 -4 293 -15z"/>
<path d="M8500 4480 l0 -860 125 0 125 0 0 628 0 627 218 -365 c120 -201 287
-483 372 -627 l155 -262 153 -1 152 0 0 860 0 860 -125 0 -125 0 -2 -590 -3
-589 -350 589 -350 590 -172 0 -173 0 0 -860z"/>
<path d="M11780 4430 c0 -30 5 -34 111 -83 l111 -52 -111 -50 c-103 -45 -111
-51 -111 -77 0 -15 2 -28 4 -28 3 0 64 29 137 65 l132 65 93 0 c94 0 94 0 94
25 l0 25 -100 0 c-92 0 -105 3 -153 29 -28 15 -87 47 -129 70 l-78 42 0 -31z"/>
<path d="M11780 3955 l0 -155 25 0 c24 0 25 2 25 65 l0 65 205 0 205 0 0 25 0
25 -205 0 -205 0 0 65 c0 63 -1 65 -25 65 l-25 0 0 -155z"/>
<path d="M11780 3735 l0 -25 230 0 230 0 0 25 0 25 -230 0 -230 0 0 -25z"/>
<path d="M11780 3584 l0 -25 185 3 c102 2 185 2 185 1 0 -2 -19 -12 -42 -24
-24 -12 -107 -60 -185 -107 -131 -77 -143 -87 -143 -113 l0 -29 230 0 230 0 0
25 0 25 -187 0 -186 0 159 92 c87 50 171 98 186 107 20 11 28 24 28 44 l0 27
-230 0 -230 0 0 -26z"/>
<path d="M5635 3378 c-238 -19 -416 -150 -539 -395 -137 -275 -138 -680 -2
-969 107 -225 228 -334 422 -380 98 -22 297 -16 376 13 91 34 193 114 236 186
9 15 19 27 23 27 4 0 27 -49 51 -110 l43 -110 68 0 67 0 0 440 0 440 -320 0
-320 0 0 -125 0 -125 176 0 177 0 -6 -66 c-21 -217 -222 -367 -433 -324 -193
39 -290 184 -325 482 -14 119 -7 299 16 403 53 248 240 394 455 355 143 -26
234 -112 280 -267 11 -36 17 -42 34 -38 12 3 70 13 129 24 59 10 111 21 114
24 10 11 -17 100 -53 172 -42 87 -111 172 -184 226 -131 100 -278 135 -485
117z"/>
<path d="M6740 2500 l0 -860 555 0 555 0 0 135 0 135 -405 0 -405 0 2 238 3
237 318 3 317 2 0 125 0 125 -320 0 -320 0 0 230 0 230 400 0 400 0 0 130 0
130 -550 0 -550 0 0 -860z"/>
<path d="M8120 2501 l0 -861 155 0 155 0 0 355 0 355 216 -2 216 -3 132 -350
133 -350 167 -3 c92 -1 165 1 163 5 -4 6 -265 664 -292 735 -5 12 8 24 54 48
168 90 241 218 241 425 0 252 -122 413 -365 482 -51 14 -126 17 -517 21 l-458
4 0 -861z m838 594 c65 -20 130 -69 156 -120 12 -23 22 -66 24 -103 8 -112
-43 -199 -140 -243 -51 -23 -64 -24 -310 -27 l-258 -3 0 255 0 256 238 0 c185
0 250 -3 290 -15z"/>
<path d="M9951 3279 c-99 -17 -180 -82 -227 -183 -38 -82 -35 -89 47 -109 40
-10 73 -16 74 -15 1 2 7 23 14 48 18 63 44 95 91 114 53 21 85 20 138 -4 34
-15 47 -29 64 -66 22 -52 20 -90 -8 -150 -28 -59 -101 -122 -278 -239 l-165
-110 -1 -77 0 -78 315 0 315 0 0 65 0 65 -217 2 -218 3 34 20 c122 72 304 200
330 232 56 68 75 118 74 202 -1 114 -44 192 -137 246 -35 20 -147 47 -181 44
-5 -1 -35 -5 -64 -10z"/>
<path d="M11780 3176 l0 -26 140 0 c216 0 280 -23 280 -102 0 -80 -48 -98
-260 -98 l-160 0 0 -25 0 -25 178 0 c149 0 183 3 212 18 106 53 105 194 -1
257 -30 18 -56 20 -211 23 l-178 4 0 -26z"/>
<path d="M3410 3075 c0 -24 1 -24 108 -27 l107 -3 0 -100 0 -100 -107 -3
c-107 -3 -108 -3 -108 -27 l0 -25 230 0 230 0 0 25 c0 25 0 25 -95 25 l-95 0
0 105 0 105 95 0 c95 0 95 0 95 25 l0 25 -230 0 -230 0 0 -25z"/>
<path d="M11980 2794 c-107 -6 -196 -13 -197 -13 -2 -1 -3 -16 -3 -34 l0 -33
168 -53 c229 -72 217 -65 141 -84 -35 -9 -118 -34 -184 -55 l-120 -38 -3 -35
-3 -35 208 -12 c270 -16 253 -17 253 11 0 23 -2 24 -127 30 -71 4 -159 7 -197
7 -38 0 -67 2 -65 5 4 3 162 51 357 107 26 7 33 14 30 30 -3 23 -51 42 -282
112 l-110 34 130 6 c71 4 159 9 197 12 62 6 67 8 67 30 0 28 25 27 -260 8z"/>
<path d="M3410 2585 l0 -115 25 0 c25 0 25 1 25 90 l0 90 85 0 85 0 0 -85 c0
-84 0 -85 25 -85 25 0 25 1 25 85 l0 85 70 0 70 0 0 -85 c0 -84 0 -85 25 -85
l25 0 0 110 0 110 -230 0 -230 0 0 -115z"/>
<path d="M3410 2391 c0 -26 5 -29 75 -50 l76 -22 -3 -72 -3 -72 -72 -24 c-68
-22 -73 -26 -73 -52 l0 -28 43 13 c23 7 126 39 230 71 l187 58 0 33 c0 22 -5
34 -17 38 -28 8 -416 126 -430 131 -9 3 -13 -6 -13 -24z m265 -105 c28 -8 70
-20 95 -27 l45 -11 -95 -29 c-52 -16 -101 -29 -107 -29 -9 0 -13 18 -13 60 0
43 3 58 13 55 6 -2 35 -10 62 -19z"/>
<path d="M11980 2294 c-107 -6 -196 -13 -197 -13 -2 -1 -3 -16 -3 -34 l0 -33
168 -53 c229 -72 217 -65 141 -84 -35 -9 -118 -34 -184 -55 l-120 -38 -3 -35
-3 -35 208 -12 c270 -16 253 -17 253 11 0 23 -2 24 -127 30 -71 4 -159 7 -197
7 -38 0 -67 2 -65 5 4 3 162 51 357 107 26 7 33 14 30 30 -3 23 -51 42 -282
112 l-110 34 130 6 c71 4 159 9 197 12 62 6 67 8 67 30 0 28 25 27 -260 8z"/>
<path d="M3410 1895 l0 -115 25 0 c25 0 25 1 25 90 l0 90 205 0 205 0 0 25 0
25 -230 0 -230 0 0 -115z"/>
<path d="M3820 1765 l0 -65 -205 0 -205 0 0 -25 0 -25 205 0 205 0 0 -65 c0
-63 1 -65 25 -65 l25 0 0 155 0 155 -25 0 c-24 0 -25 -2 -25 -65z"/>
<path d="M11913 1816 c-111 -36 -168 -137 -132 -233 62 -164 378 -178 450 -20
59 132 -34 253 -203 263 -46 2 -88 -1 -115 -10z m203 -65 c54 -25 84 -64 84
-111 0 -77 -77 -130 -190 -130 -113 0 -190 53 -190 130 0 77 77 130 190 130
42 0 79 -7 106 -19z"/>
<path d="M3410 1445 c0 -24 1 -24 108 -27 l107 -3 0 -100 0 -100 -107 -3
c-107 -3 -108 -3 -108 -27 l0 -25 230 0 230 0 0 25 c0 25 0 25 -95 25 l-95 0
0 105 0 105 95 0 c95 0 95 0 95 25 l0 25 -230 0 -230 0 0 -25z"/>
<path d="M11779 1383 c-29 -90 19 -208 103 -251 93 -48 237 -36 302 24 57 54
79 141 56 225 -9 31 -14 36 -34 32 -22 -5 -23 -8 -14 -35 14 -41 5 -120 -18
-151 -34 -48 -95 -70 -179 -65 -79 4 -109 18 -149 72 -17 22 -21 42 -20 101 0
62 -3 74 -17 78 -14 4 -21 -4 -30 -30z"/>
<path d="M6272 634 c-39 -20 -62 -60 -62 -109 0 -55 23 -88 82 -119 92 -50
115 -82 97 -134 -17 -49 -78 -65 -144 -38 -29 13 -34 12 -39 -1 -12 -31 -5
-42 32 -52 113 -32 196 11 209 107 8 63 -18 104 -89 142 -77 41 -98 63 -98 99
0 55 69 86 134 61 21 -8 26 -6 31 11 10 30 -7 42 -67 46 -36 3 -64 -2 -86 -13z"/>
<path d="M8950 628 c-117 -60 -153 -241 -75 -374 51 -87 175 -109 254 -46 20
15 47 50 60 77 54 108 20 283 -66 336 -53 33 -118 35 -173 7z m136 -47 c47
-29 69 -83 69 -171 0 -118 -50 -190 -130 -190 -80 0 -130 72 -130 190 0 118
50 190 130 190 17 0 44 -9 61 -19z"/>
<path d="M3848 634 c-16 -5 -18 -25 -18 -230 l0 -224 25 0 c25 0 25 0 25 96 0
64 3 93 10 89 6 -4 34 -4 63 0 42 6 59 15 89 45 34 34 38 43 38 88 0 65 -16
99 -54 119 -31 16 -145 27 -178 17z m114 -44 c72 -20 92 -98 39 -151 -24 -24
-38 -29 -75 -29 l-46 0 0 89 c0 91 0 91 40 100 3 0 22 -4 42 -9z"/>
<path d="M4216 623 c-8 -28 -126 -416 -131 -430 -3 -9 6 -13 24 -13 26 0 29 5
50 75 l22 76 72 -3 72 -3 24 -73 c22 -67 26 -72 52 -72 l28 0 -13 43 c-7 23
-39 126 -71 230 l-58 187 -33 0 c-22 0 -34 -5 -38 -17z m92 -249 c-3 -3 -30
-4 -61 -2 l-55 3 18 60 c10 33 24 80 30 105 l12 45 31 -103 c16 -56 27 -105
25 -108z"/>
<path d="M4518 633 c-17 -4 -18 -24 -18 -229 l0 -224 25 0 25 0 0 100 0 100
40 0 c58 0 81 -28 104 -123 17 -73 19 -77 46 -77 l28 0 -24 93 c-15 60 -30 98
-44 109 -20 16 -20 16 15 51 31 31 35 41 35 85 0 61 -25 97 -78 112 -37 10
-121 12 -154 3z m149 -59 c44 -28 42 -101 -2 -130 -14 -9 -45 -19 -70 -22
l-45 -5 0 86 c0 73 3 86 18 90 24 7 73 -3 99 -19z"/>
<path d="M4790 615 c0 -24 2 -25 65 -25 l65 0 0 -205 0 -205 25 0 25 0 0 205
0 205 65 0 c63 0 65 1 65 25 l0 25 -155 0 -155 0 0 -25z"/>
<path d="M5160 410 l0 -230 25 0 25 0 0 188 0 187 58 -106 c148 -275 145 -269
175 -269 l27 0 0 230 0 230 -26 0 -25 0 3 -185 c2 -102 2 -185 1 -185 -2 0
-14 24 -29 53 -14 28 -60 112 -101 185 -69 122 -78 132 -104 132 l-29 0 0
-230z"/>
<path d="M5570 410 l0 -230 115 0 115 0 0 25 c0 25 -1 25 -90 25 l-90 0 0 85
0 85 80 0 c79 0 80 0 80 25 0 25 -1 25 -80 25 l-80 0 0 70 0 70 85 0 c84 0 85
0 85 25 l0 25 -110 0 -110 0 0 -230z"/>
<path d="M5898 633 c-17 -4 -18 -24 -18 -229 l0 -224 25 0 25 0 0 100 0 100
40 0 c58 0 81 -28 104 -123 17 -73 19 -77 46 -77 l28 0 -24 93 c-15 60 -30 98
-44 109 -20 16 -20 16 15 51 31 31 35 41 35 85 0 61 -25 97 -78 112 -37 10
-121 12 -154 3z m149 -59 c44 -28 42 -101 -2 -130 -14 -9 -45 -19 -70 -22
l-45 -5 0 86 c0 73 3 86 18 90 24 7 73 -3 99 -19z"/>
<path d="M6530 410 l0 -230 25 0 25 0 0 110 0 110 100 0 100 0 0 -110 0 -110
25 0 25 0 0 230 0 230 -25 0 c-25 0 -25 0 -25 -95 l0 -95 -100 0 -100 0 0 95
c0 95 0 95 -25 95 l-25 0 0 -230z"/>
<path d="M6940 410 l0 -230 25 0 25 0 0 230 0 230 -25 0 -25 0 0 -230z"/>
<path d="M7118 634 c-16 -5 -18 -25 -18 -230 l0 -224 25 0 c25 0 25 0 25 96 0
64 3 93 10 89 6 -4 34 -4 63 0 42 6 59 15 89 45 34 34 38 43 38 88 0 65 -16
99 -54 119 -31 16 -145 27 -178 17z m114 -44 c72 -20 92 -98 39 -151 -24 -24
-38 -29 -75 -29 l-46 0 0 89 c0 91 0 91 40 100 3 0 22 -4 42 -9z"/>
<path d="M7710 410 l0 -230 115 0 115 0 0 25 c0 25 -1 25 -90 25 l-90 0 0 85
0 85 80 0 c79 0 80 0 80 25 0 25 -1 25 -80 25 l-80 0 0 70 0 70 85 0 c84 0 85
0 85 25 l0 25 -110 0 -110 0 0 -230z"/>
<path d="M8022 433 c-16 -270 -17 -253 11 -253 23 0 24 2 30 128 4 70 7 158 7
196 0 38 2 67 5 65 3 -4 51 -162 107 -357 7 -26 14 -33 30 -30 23 3 42 51 112
282 l34 110 6 -130 c4 -71 9 -159 12 -196 6 -64 7 -68 31 -68 25 0 25 1 19 62
-3 35 -8 121 -11 193 -3 72 -8 147 -11 168 -5 34 -8 37 -38 37 l-32 0 -53
-167 c-72 -230 -65 -218 -84 -142 -9 35 -34 118 -55 184 l-38 120 -35 3 -35 3
-12 -208z"/>
<path d="M8548 634 c-16 -5 -18 -25 -18 -230 l0 -224 25 0 c25 0 25 0 25 96 0
64 3 93 10 89 6 -4 34 -4 63 0 42 6 59 15 89 45 34 34 38 43 38 88 0 65 -16
99 -54 119 -31 16 -145 27 -178 17z m114 -44 c72 -20 92 -98 39 -151 -24 -24
-38 -29 -75 -29 l-46 0 0 89 c0 91 0 91 40 100 3 0 22 -4 42 -9z"/>
<path d="M9265 618 c3 -13 27 -115 53 -228 l47 -205 30 0 30 0 47 190 c25 105
47 183 47 175 0 -8 17 -95 38 -193 l37 -178 30 3 29 3 58 225 c32 124 58 226
59 228 0 1 -13 2 -28 2 l-28 0 -38 -167 c-21 -93 -41 -178 -44 -190 -5 -15
-20 40 -46 167 l-40 190 -28 0 c-31 0 -29 7 -84 -229 -32 -139 -44 -175 -44
-135 0 10 -16 97 -37 192 l-36 172 -29 0 c-24 0 -28 -3 -23 -22z"/>
<path d="M9830 410 l0 -230 115 0 115 0 0 25 c0 25 -1 25 -90 25 l-90 0 0 85
0 85 80 0 c79 0 80 0 80 25 0 25 -1 25 -80 25 l-80 0 0 70 0 70 85 0 c84 0 85
0 85 25 l0 25 -110 0 -110 0 0 -230z"/>
<path d="M10158 633 c-17 -4 -18 -24 -18 -229 l0 -224 25 0 25 0 0 100 0 100
40 0 c58 0 81 -28 104 -123 17 -73 19 -77 46 -77 l28 0 -24 93 c-15 60 -30 98
-44 109 -20 16 -20 16 15 51 31 31 35 41 35 85 0 61 -25 97 -78 112 -37 10
-121 12 -154 3z m149 -59 c44 -28 42 -101 -2 -130 -14 -9 -45 -19 -70 -22
l-45 -5 0 86 c0 73 3 86 18 90 24 7 73 -3 99 -19z"/>
<path d="M10482 433 c-16 -270 -17 -253 11 -253 23 0 24 2 30 128 4 70 7 158
7 196 0 38 2 67 5 65 3 -4 51 -162 107 -357 7 -26 14 -33 30 -30 23 3 42 51
112 282 l34 110 6 -130 c4 -71 9 -159 12 -196 6 -64 7 -68 31 -68 25 0 25 1
19 62 -3 35 -8 121 -11 193 -3 72 -8 147 -11 168 -5 34 -8 37 -38 37 l-32 0
-53 -167 c-72 -230 -65 -218 -84 -142 -9 35 -34 118 -55 184 l-38 120 -35 3
-35 3 -12 -208z"/>
<path d="M10980 410 l0 -230 115 0 115 0 0 25 c0 25 -1 25 -90 25 l-90 0 0 85
0 85 80 0 c79 0 80 0 80 25 0 25 -1 25 -80 25 l-80 0 0 70 0 70 85 0 c84 0 85
0 85 25 l0 25 -110 0 -110 0 0 -230z"/>
<path d="M11290 410 l0 -230 25 0 25 0 0 188 0 187 58 -106 c148 -275 145
-269 175 -269 l27 0 0 230 0 230 -26 0 -25 0 3 -185 c2 -102 2 -185 1 -185 -2
0 -14 24 -29 53 -14 28 -60 112 -101 185 -69 122 -78 132 -104 132 l-29 0 0
-230z"/>
<path d="M11660 615 c0 -24 2 -25 65 -25 l65 0 0 -205 0 -205 25 0 25 0 0 205
0 205 65 0 c63 0 65 1 65 25 l0 25 -155 0 -155 0 0 -25z"/>
<path d="M3410 550 l0 -50 55 0 55 0 0 50 0 50 -55 0 -55 0 0 -50z"/>
<path d="M12100 530 l0 -50 50 0 50 0 0 50 0 50 -50 0 -50 0 0 -50z"/>
<path d="M7430 380 l0 -50 55 0 55 0 0 50 0 50 -55 0 -55 0 0 -50z"/>
</g>
</svg>
