<svg id="Capa_1" data-name="Capa 1" xmlns="http://www.w3.org/2000/svg" viewBox="0 0 1172.44 1599.49"><defs><style>.cls-1{fill:#5f1c2e;}.cls-2{fill:#294b3f;}.cls-3{fill:#c4c92f;}.cls-4{fill:#25504a;}.cls-5{fill:none;stroke:#5f1c2e;stroke-miterlimit:10;stroke-width:1.78px;}</style></defs><title>logos edufuturo</title><rect class="cls-1" x="339.5" y="615.6" width="492.93" height="2.64"/><polygon class="cls-1" points="419.35 660.68 419.35 630.46 437.26 630.46 437.26 634.03 422.63 634.03 422.63 643.26 436.33 643.26 436.33 646.83 422.63 646.83 422.63 657.12 437.84 657.12 437.84 660.68 419.35 660.68"/><path class="cls-1" d="M766.27,850.09V828.2H769v3a6.89,6.89,0,0,1,2.33-2.63,5.6,5.6,0,0,1,3.1-.92,5,5,0,0,1,5.07,3.82,8.36,8.36,0,0,1,2.47-2.87,5.39,5.39,0,0,1,3.09-.95,5.1,5.1,0,0,1,4.08,1.75q1.49,1.75,1.49,5.61v15h-3V836.28a11.11,11.11,0,0,0-.35-3.33,3,3,0,0,0-1.1-1.52,3,3,0,0,0-1.72-.53,3.93,3.93,0,0,0-3.22,1.56,7.81,7.81,0,0,0-1.24,4.9v12.73h-3V835.85a6.57,6.57,0,0,0-.84-3.84,2.7,2.7,0,0,0-2.29-1.11,3.83,3.83,0,0,0-3.29,1.68q-1.21,1.68-1.21,6.14v11.37Z" transform="translate(-324.31 -189.41)"/><path class="cls-1" d="M795.09,858.48V828.2h2.8V831a7.14,7.14,0,0,1,2.29-2.55,5.28,5.28,0,0,1,2.88-.79,6.29,6.29,0,0,1,3.83,1.26,8.65,8.65,0,0,1,2.75,3.82,16.51,16.51,0,0,1,1,6.18q0,5.58-2.34,8.61a6.84,6.84,0,0,1-5.5,3,5.1,5.1,0,0,1-2.62-.73,6.57,6.57,0,0,1-2.1-2v10.66Zm2.77-19.21q0,4.25,1.42,6.25a3.87,3.87,0,0,0,6.82-.07c1-1.39,1.46-3.53,1.46-6.43s-.47-5-1.42-6.35a4.11,4.11,0,0,0-3.45-2.06c-1.22,0-2.33.74-3.33,2.21a11.52,11.52,0,0,0-1.5,6.45" transform="translate(-324.31 -189.41)"/><path class="cls-1" d="M813.19,839.14c0-3.78.8-6.63,2.38-8.55a7.7,7.7,0,0,1,12,0q2.42,2.88,2.41,8.33,0,5.9-2.37,8.78a7.73,7.73,0,0,1-12,0q-2.4-2.9-2.4-8.55m3.12,0q0,4.26,1.54,6.33a4.65,4.65,0,0,0,3.84,2.08,4.48,4.48,0,0,0,3.68-2.1q1.53-2.1,1.53-6.31t-1.54-6.3a4.63,4.63,0,0,0-3.84-2.08,4.49,4.49,0,0,0-3.69,2.09c-1,1.39-1.52,3.49-1.52,6.29" transform="translate(-324.31 -189.41)"/><polygon class="cls-1" points="512.61 660.68 507.09 638.79 510.24 638.79 513.09 651.43 514.15 656.13 515.1 651.61 517.95 638.79 521.09 638.79 523.76 651.49 524.66 655.68 525.69 651.45 528.76 638.79 531.73 638.79 526.12 660.68 522.95 660.68 520.09 647.57 519.41 643.84 515.78 660.68 512.61 660.68"/><path class="cls-1" d="M870.86,843l3.13.47a9.49,9.49,0,0,1-2.84,5.29,7.45,7.45,0,0,1-5.08,1.79,7.58,7.58,0,0,1-6.17-2.9q-2.35-2.9-2.36-8.36,0-5.67,2.38-8.65a7.41,7.41,0,0,1,6-3,7.15,7.15,0,0,1,5.81,2.93c1.56,2,2.33,4.78,2.33,8.47l0,1h-13.4a9.42,9.42,0,0,0,1.71,5.57,4.63,4.63,0,0,0,3.71,1.87c2.28,0,3.87-1.49,4.77-4.49m-10-6h10a8.42,8.42,0,0,0-1.22-4.25,4.43,4.43,0,0,0-7.22-.34,7.46,7.46,0,0,0-1.58,4.59" transform="translate(-324.31 -189.41)"/><path class="cls-1" d="M877.84,850.09V828.2h2.75v3.32a9.55,9.55,0,0,1,1.92-3.07,3,3,0,0,1,2-.75,5.2,5.2,0,0,1,3.12,1.2l-1,3.44a3.77,3.77,0,0,0-2.2-.8,2.62,2.62,0,0,0-1.77.68,3.61,3.61,0,0,0-1.14,1.89,17.38,17.38,0,0,0-.58,4.52v11.46Z" transform="translate(-324.31 -189.41)"/><path class="cls-1" d="M889.37,819.87h3v4.26h-3Zm0,8.33h3v21.89h-3Z" transform="translate(-324.31 -189.41)"/><path class="cls-1" d="M897.06,850.09V828.2h2.74v3.09a7.21,7.21,0,0,1,2.42-2.7,6.08,6.08,0,0,1,3.28-.89,6.27,6.27,0,0,1,2.67.57,5.53,5.53,0,0,1,2,1.48,6,6,0,0,1,1.12,2.38,19.81,19.81,0,0,1,.37,4.5v13.46h-3V836.76a10.85,10.85,0,0,0-.41-3.53,3.42,3.42,0,0,0-3.32-2.33,4.21,4.21,0,0,0-3.48,1.63q-1.3,1.63-1.3,5.59v12Z" transform="translate(-324.31 -189.41)"/><path class="cls-1" d="M915.72,851.91l3,.53a3.81,3.81,0,0,0,1.24,2.62,4.31,4.31,0,0,0,2.87.86,4.42,4.42,0,0,0,4.8-3.81,27,27,0,0,0,.27-4.87,6.89,6.89,0,0,1-2.23,2.13,5.34,5.34,0,0,1-2.74.72,6.53,6.53,0,0,1-5.34-2.72,13.34,13.34,0,0,1-2.43-8.39,16.43,16.43,0,0,1,1.07-6.17,8.51,8.51,0,0,1,2.81-3.87,6.59,6.59,0,0,1,3.91-1.24,5.58,5.58,0,0,1,2.9.78,7.36,7.36,0,0,1,2.32,2.33V828.2h2.8v18.92a22.27,22.27,0,0,1-.82,7.21,7,7,0,0,1-2.7,3.4,8,8,0,0,1-4.52,1.25,7.26,7.26,0,0,1-5.36-1.88,6.79,6.79,0,0,1-1.81-5.19m2.51-13.16q0,4.32,1.43,6.31a4.19,4.19,0,0,0,3.49,2,4.27,4.27,0,0,0,3.51-1.94c1-1.3,1.45-3.36,1.45-6.18s-.5-4.81-1.49-6.15a4.38,4.38,0,0,0-3.62-2,4.07,4.07,0,0,0-3.33,2,10.27,10.27,0,0,0-1.44,6" transform="translate(-324.31 -189.41)"/><path class="cls-1" d="M944.52,840.36l3.09-.33a9,9,0,0,0,1.12,3.89,6.36,6.36,0,0,0,2.51,2.23,7.76,7.76,0,0,0,3.67.85,6.64,6.64,0,0,0,4.54-1.43,4.71,4.71,0,0,0,1.62-3.71,4.24,4.24,0,0,0-2.36-4,34.4,34.4,0,0,0-5.12-1.8,17.94,17.94,0,0,1-5-2.09,7.26,7.26,0,0,1-2.31-2.67,8,8,0,0,1-.82-3.66,8,8,0,0,1,2.37-6,8.73,8.73,0,0,1,6.39-2.33,10.3,10.3,0,0,1,4.83,1.09,7.85,7.85,0,0,1,3.22,3.14,10.27,10.27,0,0,1,1.22,4.8l-3.15.29a6.49,6.49,0,0,0-1.76-4.37,6,6,0,0,0-4.26-1.42,6.39,6.39,0,0,0-4.25,1.24,4.07,4.07,0,0,0-1.46,3.23,3.72,3.72,0,0,0,1.07,2.84c.72.68,2.32,1.36,4.82,2.05a31.14,31.14,0,0,1,5.15,1.76,8.32,8.32,0,0,1,3.43,3,8.46,8.46,0,0,1,1.16,4.5,9.39,9.39,0,0,1-1.22,4.73,8.13,8.13,0,0,1-3.31,3.24,10.63,10.63,0,0,1-5,1.12,9.81,9.81,0,0,1-7.33-2.77,10.47,10.47,0,0,1-2.83-7.48" transform="translate(-324.31 -189.41)"/><path class="cls-1" d="M975.05,846.77l.41,3.28a9,9,0,0,1-2.27.33,4.61,4.61,0,0,1-2.55-.63,3.16,3.16,0,0,1-1.33-1.72,16.77,16.77,0,0,1-.36-4.35v-12.6h-2.23V828.2H969v-5.43l3-2.22v7.65h3.07v2.88H972v12.81a6.23,6.23,0,0,0,.26,2.28,1.51,1.51,0,0,0,1.47.75,7.87,7.87,0,0,0,1.34-.15" transform="translate(-324.31 -189.41)"/><path class="cls-1" d="M989.67,850.09v-3.22a7.94,7.94,0,0,1-2.48,2.79,5.74,5.74,0,0,1-3.21.93,5.83,5.83,0,0,1-3.63-1.15,5.39,5.39,0,0,1-2-2.9,17.73,17.73,0,0,1-.51-4.78V828.2h3v12.14a19.53,19.53,0,0,0,.34,4.52,3.48,3.48,0,0,0,1.26,1.84,3.39,3.39,0,0,0,2.09.69,4.37,4.37,0,0,0,3.59-1.79c.8-1,1.19-2.92,1.19-5.67V828.2h3.06v21.89Z" transform="translate(-324.31 -189.41)"/><path class="cls-1" d="M1008.8,850.09v-2.76a6.17,6.17,0,0,1-2.13,2.42,5,5,0,0,1-2.8.84,6.78,6.78,0,0,1-5.49-3q-2.32-3-2.32-8.45a17.2,17.2,0,0,1,1-6.33,8.48,8.48,0,0,1,2.74-3.85,6.32,6.32,0,0,1,3.82-1.26,5.23,5.23,0,0,1,2.79.8,6.2,6.2,0,0,1,2.13,2.21V819.87h3.07v30.22Zm-9.63-10.93q0,4.26,1.48,6.31a4.18,4.18,0,0,0,3.43,2.06,4.1,4.1,0,0,0,3.36-2c.95-1.31,1.43-3.31,1.43-6q0-4.61-1.43-6.71a4.21,4.21,0,0,0-3.59-2.12,4,4,0,0,0-3.3,2q-1.38,2-1.38,6.38" transform="translate(-324.31 -189.41)"/><path class="cls-1" d="M1028.69,843l3.14.47a9.55,9.55,0,0,1-2.84,5.29,7.47,7.47,0,0,1-5.08,1.79,7.61,7.61,0,0,1-6.18-2.9q-2.36-2.9-2.36-8.36c0-3.78.8-6.66,2.38-8.65a7.43,7.43,0,0,1,6-3,7.15,7.15,0,0,1,5.81,2.93c1.55,2,2.33,4.78,2.33,8.47l0,1h-13.4a9.42,9.42,0,0,0,1.71,5.57,4.62,4.62,0,0,0,3.71,1.87c2.28,0,3.87-1.49,4.76-4.49m-10-6h10a8.33,8.33,0,0,0-1.21-4.25,4.43,4.43,0,0,0-7.22-.34,7.53,7.53,0,0,0-1.59,4.59" transform="translate(-324.31 -189.41)"/><path class="cls-1" d="M1035.68,850.09V828.2h2.74v3.09a7.21,7.21,0,0,1,2.42-2.7,6.11,6.11,0,0,1,3.28-.89,6.27,6.27,0,0,1,2.67.57,5.53,5.53,0,0,1,2,1.48,6.13,6.13,0,0,1,1.13,2.38,20.41,20.41,0,0,1,.37,4.5v13.46h-3V836.76a10.8,10.8,0,0,0-.42-3.53,3.42,3.42,0,0,0-3.32-2.33,4.22,4.22,0,0,0-3.48,1.63q-1.3,1.63-1.3,5.59v12Z" transform="translate(-324.31 -189.41)"/><path class="cls-1" d="M1061.7,846.77l.41,3.28a9,9,0,0,1-2.27.33,4.58,4.58,0,0,1-2.55-.63A3.16,3.16,0,0,1,1056,848a16.77,16.77,0,0,1-.36-4.35v-12.6h-2.23V828.2h2.23v-5.43l3-2.22v7.65h3.07v2.88h-3.07v12.81a5.94,5.94,0,0,0,.27,2.28,1.49,1.49,0,0,0,1.46.75,7.87,7.87,0,0,0,1.34-.15" transform="translate(-324.31 -189.41)"/><path class="cls-1" d="M1063.39,843.53l3-.57a5.46,5.46,0,0,0,1.46,3.45,5.16,5.16,0,0,0,6.22.15,3.23,3.23,0,0,0,1.08-2.49,2.42,2.42,0,0,0-.93-2,11.62,11.62,0,0,0-3.09-1.24,22.68,22.68,0,0,1-4.74-1.85,5.22,5.22,0,0,1-1.86-2,6.24,6.24,0,0,1-.66-2.91,6.09,6.09,0,0,1,1.8-4.56,6.83,6.83,0,0,1,5-1.75,8.09,8.09,0,0,1,3.51.72,5.67,5.67,0,0,1,2.32,1.94,8.28,8.28,0,0,1,1.11,3.48l-3,.5q-.42-3.58-3.9-3.59a4.66,4.66,0,0,0-3,.79,2.5,2.5,0,0,0-1,2,2.27,2.27,0,0,0,.93,1.91,16.32,16.32,0,0,0,3.31,1.31,25.43,25.43,0,0,1,4.88,1.91,4.85,4.85,0,0,1,1.73,1.94,6.48,6.48,0,0,1,.61,2.92,6.75,6.75,0,0,1-2,5.08,7.4,7.4,0,0,1-5.43,2q-6.45,0-7.48-7.06" transform="translate(-324.31 -189.41)"/><polygon class="cls-1" points="451.08 702.91 451.08 672.68 468.99 672.68 468.99 676.25 454.35 676.25 454.35 685.49 468.06 685.49 468.06 689.05 454.35 689.05 454.35 699.34 469.57 699.34 469.57 702.91 451.08 702.91"/><path class="cls-1" d="M798,892.31V870.42h2.74v3.09a7.12,7.12,0,0,1,2.42-2.7,6.08,6.08,0,0,1,3.28-.89,6.27,6.27,0,0,1,2.67.57,5.53,5.53,0,0,1,2,1.48,6.17,6.17,0,0,1,1.12,2.39,19.65,19.65,0,0,1,.37,4.49v13.46h-3V879a11.14,11.14,0,0,0-.41-3.53,3.49,3.49,0,0,0-1.29-1.72,3.43,3.43,0,0,0-2-.61,4.2,4.2,0,0,0-3.48,1.63q-1.3,1.63-1.3,5.59v12Z" transform="translate(-324.31 -189.41)"/><path class="cls-1" d="M816.64,894.13l3,.53a3.86,3.86,0,0,0,1.24,2.63,4.37,4.37,0,0,0,2.87.86,4.44,4.44,0,0,0,4.8-3.82,26.93,26.93,0,0,0,.27-4.86,7.11,7.11,0,0,1-2.23,2.13,5.43,5.43,0,0,1-2.74.71,6.51,6.51,0,0,1-5.34-2.72A13.34,13.34,0,0,1,816,881.2a16.15,16.15,0,0,1,1.07-6.16,8.53,8.53,0,0,1,2.81-3.88,6.64,6.64,0,0,1,3.91-1.24,5.58,5.58,0,0,1,2.9.78,7.3,7.3,0,0,1,2.32,2.34v-2.62h2.8v18.92a22.27,22.27,0,0,1-.82,7.21,7,7,0,0,1-2.71,3.4,8,8,0,0,1-4.51,1.25,7.26,7.26,0,0,1-5.36-1.88,6.79,6.79,0,0,1-1.81-5.19M819.15,881q0,4.32,1.42,6.31a4.21,4.21,0,0,0,3.5,2,4.28,4.28,0,0,0,3.51-1.94c1-1.3,1.45-3.36,1.45-6.18s-.5-4.81-1.49-6.15a4.39,4.39,0,0,0-3.62-2,4.08,4.08,0,0,0-3.33,2,10.27,10.27,0,0,0-1.44,6" transform="translate(-324.31 -189.41)"/><path class="cls-1" d="M848.18,889.61A11.24,11.24,0,0,1,845,892a7.67,7.67,0,0,1-3.42.81,6,6,0,0,1-4.47-1.69,6.19,6.19,0,0,1-1.67-4.56,7.06,7.06,0,0,1,.78-3.36,5.84,5.84,0,0,1,2.14-2.29,11.31,11.31,0,0,1,4.13-1.21,23.48,23.48,0,0,0,5.44-1.3l0-.95a4.84,4.84,0,0,0-.8-3.16,4.36,4.36,0,0,0-3.49-1.32,4.89,4.89,0,0,0-3.17.88,5.77,5.77,0,0,0-1.55,3.31l-3-.49a8.31,8.31,0,0,1,2.59-5.14,8.57,8.57,0,0,1,5.58-1.61,8,8,0,0,1,4.43,1.07,4.54,4.54,0,0,1,2,2.62,18.87,18.87,0,0,1,.42,4.58v4.95a62.71,62.71,0,0,0,.2,6.54,9.9,9.9,0,0,0,.77,2.63H848.8a8.8,8.8,0,0,1-.62-2.7m-.25-8.29a19.38,19.38,0,0,1-5,1.41,9.41,9.41,0,0,0-2.68.75,2.94,2.94,0,0,0-1.18,1.19,3.59,3.59,0,0,0-.43,1.79,3.34,3.34,0,0,0,1,2.5,3.68,3.68,0,0,0,2.68.94,5.43,5.43,0,0,0,3-.84,5.3,5.3,0,0,0,2-2.26,10.06,10.06,0,0,0,.66-4.11Z" transform="translate(-324.31 -189.41)"/><path class="cls-1" d="M855.15,894.13l3,.53a3.86,3.86,0,0,0,1.24,2.63,4.37,4.37,0,0,0,2.87.86,4.44,4.44,0,0,0,4.8-3.82,26.93,26.93,0,0,0,.27-4.86,7.11,7.11,0,0,1-2.23,2.13,5.43,5.43,0,0,1-2.74.71,6.51,6.51,0,0,1-5.34-2.72,13.34,13.34,0,0,1-2.43-8.39,16.15,16.15,0,0,1,1.07-6.16,8.6,8.6,0,0,1,2.81-3.88,6.66,6.66,0,0,1,3.91-1.24,5.58,5.58,0,0,1,2.9.78,7.3,7.3,0,0,1,2.32,2.34v-2.62h2.8v18.92a22.27,22.27,0,0,1-.82,7.21,7,7,0,0,1-2.7,3.4,8,8,0,0,1-4.52,1.25,7.26,7.26,0,0,1-5.36-1.88,6.79,6.79,0,0,1-1.81-5.19M857.66,881q0,4.32,1.43,6.31a4.19,4.19,0,0,0,3.49,2,4.27,4.27,0,0,0,3.51-1.94c1-1.3,1.45-3.36,1.45-6.18s-.5-4.81-1.49-6.15a4.39,4.39,0,0,0-3.62-2,4.08,4.08,0,0,0-3.33,2,10.27,10.27,0,0,0-1.44,6" transform="translate(-324.31 -189.41)"/><path class="cls-1" d="M875,862.09h3v4.27h-3Zm0,8.33h3v21.89h-3Z" transform="translate(-324.31 -189.41)"/><path class="cls-1" d="M882.69,892.31V870.42h2.74v3.09a7.21,7.21,0,0,1,2.42-2.7,6.08,6.08,0,0,1,3.28-.89,6.27,6.27,0,0,1,2.67.57,5.53,5.53,0,0,1,2,1.48,6,6,0,0,1,1.12,2.39,19.65,19.65,0,0,1,.37,4.49v13.46h-3V879a10.85,10.85,0,0,0-.41-3.53,3.42,3.42,0,0,0-3.32-2.33,4.21,4.21,0,0,0-3.48,1.63q-1.31,1.63-1.3,5.59v12Z" transform="translate(-324.31 -189.41)"/><path class="cls-1" d="M901.35,894.13l3,.53a3.81,3.81,0,0,0,1.23,2.63,4.39,4.39,0,0,0,2.87.86,4.44,4.44,0,0,0,4.8-3.82,26.93,26.93,0,0,0,.27-4.86,7.11,7.11,0,0,1-2.23,2.13,5.43,5.43,0,0,1-2.74.71,6.51,6.51,0,0,1-5.34-2.72,13.34,13.34,0,0,1-2.43-8.39,16.34,16.34,0,0,1,1.07-6.16,8.6,8.6,0,0,1,2.81-3.88,6.66,6.66,0,0,1,3.91-1.24,5.55,5.55,0,0,1,2.9.78,7.3,7.3,0,0,1,2.32,2.34v-2.62h2.8v18.92a22.27,22.27,0,0,1-.82,7.21A7,7,0,0,1,913,900a8,8,0,0,1-4.52,1.25,7.26,7.26,0,0,1-5.36-1.88,6.83,6.83,0,0,1-1.81-5.19M903.86,881q0,4.32,1.43,6.31a4.19,4.19,0,0,0,3.49,2,4.28,4.28,0,0,0,3.51-1.94c1-1.3,1.45-3.36,1.45-6.18s-.5-4.81-1.49-6.15a4.39,4.39,0,0,0-3.62-2,4.09,4.09,0,0,0-3.33,2,10.27,10.27,0,0,0-1.44,6" transform="translate(-324.31 -189.41)"/><path class="cls-1" d="M931.24,892.31V862.09h9.34a14.89,14.89,0,0,1,4.86.58,6.61,6.61,0,0,1,3.43,2.9,10,10,0,0,1,1.28,5.22,10.26,10.26,0,0,1-2.09,6.66c-1.39,1.72-3.78,2.58-7.19,2.58h-6.35v12.28Zm3.28-15.85h6.41a6.15,6.15,0,0,0,4.43-1.37,5.53,5.53,0,0,0,1.4-4.14,6.39,6.39,0,0,0-.69-3.07,3.89,3.89,0,0,0-1.67-1.75,9,9,0,0,0-3.53-.47h-6.35Z" transform="translate(-324.31 -189.41)"/><path class="cls-1" d="M965.61,889.61a11.24,11.24,0,0,1-3.18,2.39,7.67,7.67,0,0,1-3.42.81,6,6,0,0,1-4.47-1.69,6.19,6.19,0,0,1-1.67-4.56,7.06,7.06,0,0,1,.78-3.36,5.84,5.84,0,0,1,2.14-2.29,11.25,11.25,0,0,1,4.13-1.21,23.48,23.48,0,0,0,5.44-1.3l0-.95a4.84,4.84,0,0,0-.8-3.16,4.36,4.36,0,0,0-3.49-1.32,4.89,4.89,0,0,0-3.17.88,5.77,5.77,0,0,0-1.55,3.31l-3-.49a8.31,8.31,0,0,1,2.59-5.14,8.56,8.56,0,0,1,5.57-1.61A8,8,0,0,1,966,871a4.54,4.54,0,0,1,2,2.62,18.87,18.87,0,0,1,.42,4.58v4.95a62.71,62.71,0,0,0,.2,6.54,9.9,9.9,0,0,0,.77,2.63h-3.17a8.8,8.8,0,0,1-.62-2.7m-.25-8.29a19.38,19.38,0,0,1-5,1.41,9.41,9.41,0,0,0-2.68.75,3,3,0,0,0-1.19,1.19,3.7,3.7,0,0,0-.42,1.79,3.34,3.34,0,0,0,1,2.5,3.68,3.68,0,0,0,2.68.94,5.43,5.43,0,0,0,3-.84,5.3,5.3,0,0,0,2-2.26,10.06,10.06,0,0,0,.66-4.11Z" transform="translate(-324.31 -189.41)"/><path class="cls-1" d="M973.17,892.31V870.42h2.75v3.32a9.36,9.36,0,0,1,1.92-3.06,2.92,2.92,0,0,1,2-.76,5.15,5.15,0,0,1,3.11,1.2l-1,3.44a3.84,3.84,0,0,0-2.2-.8,2.67,2.67,0,0,0-1.78.68,3.65,3.65,0,0,0-1.13,1.9,17.3,17.3,0,0,0-.58,4.51v11.46Z" transform="translate(-324.31 -189.41)"/><path class="cls-1" d="M997,885.26l3.14.48a9.55,9.55,0,0,1-2.84,5.28,7.45,7.45,0,0,1-5.08,1.79,7.58,7.58,0,0,1-6.17-2.9c-1.58-1.93-2.36-4.72-2.36-8.36s.79-6.66,2.38-8.65a7.4,7.4,0,0,1,6-3,7.15,7.15,0,0,1,5.81,2.93c1.55,1.95,2.33,4.78,2.33,8.47l0,1h-13.4a9.42,9.42,0,0,0,1.71,5.57,4.63,4.63,0,0,0,3.71,1.88q3.42,0,4.76-4.5m-10-6h10a8.29,8.29,0,0,0-1.21-4.24,4.43,4.43,0,0,0-7.22-.34,7.48,7.48,0,0,0-1.59,4.58" transform="translate(-324.31 -189.41)"/><path class="cls-1" d="M1004,892.31V870.42h2.74v3.09a7.21,7.21,0,0,1,2.42-2.7,6.14,6.14,0,0,1,3.29-.89,6.23,6.23,0,0,1,2.66.57,5.48,5.48,0,0,1,2,1.48,6.17,6.17,0,0,1,1.12,2.39,20.25,20.25,0,0,1,.37,4.49v13.46h-3V879a11.14,11.14,0,0,0-.41-3.53,3.55,3.55,0,0,0-1.29-1.72,3.45,3.45,0,0,0-2-.61,4.23,4.23,0,0,0-3.49,1.63c-.86,1.09-1.3,3-1.3,5.59v12Z" transform="translate(-324.31 -189.41)"/><path class="cls-1" d="M1030,889l.41,3.28a9,9,0,0,1-2.27.33,4.63,4.63,0,0,1-2.55-.63,3.16,3.16,0,0,1-1.33-1.72,16.77,16.77,0,0,1-.36-4.35V873.3h-2.23v-2.88h2.23V865l3-2.23v7.65H1030v2.88h-3.07v12.81a5.94,5.94,0,0,0,.27,2.28,1.49,1.49,0,0,0,1.46.75A7.87,7.87,0,0,0,1030,889" transform="translate(-324.31 -189.41)"/><path class="cls-1" d="M1031.66,885.76l3-.58a5.47,5.47,0,0,0,1.46,3.45,5.12,5.12,0,0,0,6.22.15,3.22,3.22,0,0,0,1.08-2.49,2.44,2.44,0,0,0-.92-2,11.9,11.9,0,0,0-3.1-1.24,22.12,22.12,0,0,1-4.74-1.85,5.2,5.2,0,0,1-1.85-2,6.24,6.24,0,0,1-.66-2.91,6,6,0,0,1,1.79-4.55,6.81,6.81,0,0,1,5-1.76,8.09,8.09,0,0,1,3.51.72,5.6,5.6,0,0,1,2.32,1.94,8.42,8.42,0,0,1,1.12,3.49l-3,.49q-.42-3.59-3.9-3.59a4.6,4.6,0,0,0-3,.8,2.5,2.5,0,0,0-1,2,2.26,2.26,0,0,0,.93,1.91,16.6,16.6,0,0,0,3.31,1.31,25.15,25.15,0,0,1,4.88,1.91,4.85,4.85,0,0,1,1.73,1.94,6.49,6.49,0,0,1,.62,2.93,6.82,6.82,0,0,1-2,5.08,7.48,7.48,0,0,1-5.44,1.94q-6.45,0-7.48-7" transform="translate(-324.31 -189.41)"/><polygon class="cls-1" points="387.82 745.13 387.82 718.47 379.66 718.47 379.66 714.9 399.31 714.9 399.31 718.47 391.1 718.47 391.1 745.13 387.82 745.13"/><path class="cls-1" d="M725.24,934.53V912.64H728V916a9.36,9.36,0,0,1,1.92-3.06,3,3,0,0,1,2-.75,5.18,5.18,0,0,1,3.12,1.19l-1,3.44a3.9,3.9,0,0,0-2.21-.8,2.67,2.67,0,0,0-1.77.68,3.64,3.64,0,0,0-1.14,1.9,17.31,17.31,0,0,0-.57,4.51v11.46Z" transform="translate(-324.31 -189.41)"/><path class="cls-1" d="M748.46,931.83a11.24,11.24,0,0,1-3.18,2.39,7.67,7.67,0,0,1-3.42.81,6,6,0,0,1-4.47-1.69,6.19,6.19,0,0,1-1.67-4.56,7.06,7.06,0,0,1,.78-3.36,5.91,5.91,0,0,1,2.14-2.29,11.31,11.31,0,0,1,4.13-1.21,23.48,23.48,0,0,0,5.44-1.3l0-1a4.79,4.79,0,0,0-.8-3.15,4.36,4.36,0,0,0-3.49-1.32,4.83,4.83,0,0,0-3.17.88,5.74,5.74,0,0,0-1.55,3.3l-3-.49a8.34,8.34,0,0,1,2.59-5.14,8.57,8.57,0,0,1,5.58-1.61,8,8,0,0,1,4.43,1.07,4.53,4.53,0,0,1,2,2.63,18.72,18.72,0,0,1,.42,4.57v5a63.1,63.1,0,0,0,.2,6.55,9.84,9.84,0,0,0,.77,2.62h-3.17a8.8,8.8,0,0,1-.62-2.7m-.25-8.28a19.43,19.43,0,0,1-5,1.4,9.41,9.41,0,0,0-2.68.75,2.9,2.9,0,0,0-1.18,1.2,3.55,3.55,0,0,0-.43,1.78,3.34,3.34,0,0,0,1,2.5,3.68,3.68,0,0,0,2.68.94,5.43,5.43,0,0,0,3-.84,5.3,5.3,0,0,0,2-2.26,10,10,0,0,0,.66-4.11Z" transform="translate(-324.31 -189.41)"/><path class="cls-1" d="M756,934.53V912.64h2.74v3.09a7.1,7.1,0,0,1,2.42-2.69,6.05,6.05,0,0,1,3.29-.89,6.22,6.22,0,0,1,2.66.56,5.39,5.39,0,0,1,2,1.49,6.06,6.06,0,0,1,1.12,2.38,19.65,19.65,0,0,1,.37,4.49v13.46h-3V921.2a11.18,11.18,0,0,0-.41-3.53,3.55,3.55,0,0,0-1.29-1.72,3.45,3.45,0,0,0-2-.61,4.23,4.23,0,0,0-3.49,1.63c-.86,1.09-1.3,2.95-1.3,5.59v12Z" transform="translate(-324.31 -189.41)"/><path class="cls-1" d="M774.1,928l3-.58a5.42,5.42,0,0,0,1.47,3.45,5.12,5.12,0,0,0,6.22.15,3.21,3.21,0,0,0,1.08-2.49,2.42,2.42,0,0,0-.93-2,11.68,11.68,0,0,0-3.09-1.23,22.46,22.46,0,0,1-4.75-1.86,5.28,5.28,0,0,1-1.85-2,6.24,6.24,0,0,1-.66-2.91,6.09,6.09,0,0,1,1.79-4.55,6.82,6.82,0,0,1,5-1.75,8.1,8.1,0,0,1,3.52.72,5.57,5.57,0,0,1,2.32,1.93,8.63,8.63,0,0,1,1.11,3.49l-3,.49q-.4-3.59-3.9-3.58a4.55,4.55,0,0,0-2.94.79,2.47,2.47,0,0,0-1,2,2.26,2.26,0,0,0,.93,1.91,16.4,16.4,0,0,0,3.3,1.31,25.33,25.33,0,0,1,4.89,1.91,4.9,4.9,0,0,1,1.72,1.94A6.52,6.52,0,0,1,789,928a6.78,6.78,0,0,1-2,5.08,7.47,7.47,0,0,1-5.43,1.94q-6.45,0-7.49-7" transform="translate(-324.31 -189.41)"/><path class="cls-1" d="M793.44,934.53v-19h-2.7v-2.89h2.7v-2.33a10.55,10.55,0,0,1,.54-3.87,4.13,4.13,0,0,1,1.64-2,5.18,5.18,0,0,1,2.78-.68,11.85,11.85,0,0,1,2.86.39l-.46,3.21a8.92,8.92,0,0,0-1.79-.2,2.37,2.37,0,0,0-2,.71,4.47,4.47,0,0,0-.59,2.71v2H800v2.89h-3.51v19Z" transform="translate(-324.31 -189.41)"/><path class="cls-1" d="M801.07,923.59q0-5.67,2.38-8.56a7.7,7.7,0,0,1,12,0c1.61,1.93,2.41,4.7,2.41,8.33q0,5.89-2.37,8.78a7.72,7.72,0,0,1-12,0q-2.4-2.89-2.4-8.54m3.11,0q0,4.24,1.55,6.32a4.62,4.62,0,0,0,3.83,2.08,4.47,4.47,0,0,0,3.68-2.1c1-1.39,1.54-3.5,1.54-6.3s-.52-4.93-1.55-6.31a4.63,4.63,0,0,0-3.83-2.07,4.47,4.47,0,0,0-3.69,2.08q-1.53,2.09-1.53,6.3" transform="translate(-324.31 -189.41)"/><path class="cls-1" d="M821.48,934.53V912.64h2.74V916a9.35,9.35,0,0,1,1.93-3.06,2.94,2.94,0,0,1,2-.75,5.16,5.16,0,0,1,3.11,1.19l-1,3.44A3.87,3.87,0,0,0,828,916a2.71,2.71,0,0,0-1.77.68,3.69,3.69,0,0,0-1.13,1.9,16.89,16.89,0,0,0-.58,4.51v11.46Z" transform="translate(-324.31 -189.41)"/><path class="cls-1" d="M833,934.53V912.64h2.73v3.05a6.83,6.83,0,0,1,2.32-2.62,5.55,5.55,0,0,1,3.11-.92,5.2,5.2,0,0,1,3.2,1,5.27,5.27,0,0,1,1.86,2.84,8.32,8.32,0,0,1,2.47-2.86,5.37,5.37,0,0,1,3.1-1,5,5,0,0,1,4.07,1.75c1,1.16,1.49,3,1.49,5.61v15h-3v-13.8a11.19,11.19,0,0,0-.34-3.33,3,3,0,0,0-1.11-1.52,2.9,2.9,0,0,0-1.72-.54A3.92,3.92,0,0,0,848,916.9a7.82,7.82,0,0,0-1.25,4.9v12.73h-3V920.29a6.64,6.64,0,0,0-.83-3.83,2.7,2.7,0,0,0-2.3-1.12,3.84,3.84,0,0,0-3.29,1.68q-1.2,1.68-1.2,6.14v11.37Z" transform="translate(-324.31 -189.41)"/><path class="cls-1" d="M861.85,904.31h3v4.27h-3Zm0,8.33h3v21.89h-3Z" transform="translate(-324.31 -189.41)"/><path class="cls-1" d="M869.54,934.53V912.64h2.74v3.09A7,7,0,0,1,874.7,913a6,6,0,0,1,3.28-.89,6.19,6.19,0,0,1,2.66.56,5.39,5.39,0,0,1,2,1.49,6.06,6.06,0,0,1,1.12,2.38,19.65,19.65,0,0,1,.37,4.49v13.46h-3V921.2a11.18,11.18,0,0,0-.41-3.53,3.55,3.55,0,0,0-1.29-1.72,3.43,3.43,0,0,0-2-.61,4.2,4.2,0,0,0-3.48,1.63q-1.3,1.63-1.3,5.59v12Z" transform="translate(-324.31 -189.41)"/><path class="cls-1" d="M888.19,936.35l3,.53a3.86,3.86,0,0,0,1.24,2.63,4.36,4.36,0,0,0,2.86.86,4.44,4.44,0,0,0,4.81-3.82,26.93,26.93,0,0,0,.27-4.86,7.22,7.22,0,0,1-2.23,2.13,5.33,5.33,0,0,1-2.74.71,6.48,6.48,0,0,1-5.34-2.72,13.33,13.33,0,0,1-2.43-8.39,16.18,16.18,0,0,1,1.07-6.16,8.53,8.53,0,0,1,2.81-3.88,6.61,6.61,0,0,1,3.91-1.24,5.52,5.52,0,0,1,2.89.78,7.1,7.1,0,0,1,2.32,2.34v-2.62h2.81v18.93a22.17,22.17,0,0,1-.83,7.2,7,7,0,0,1-2.7,3.4,8,8,0,0,1-4.51,1.25,7.24,7.24,0,0,1-5.36-1.88,6.83,6.83,0,0,1-1.82-5.19m2.52-13.15c0,2.87.47,5,1.42,6.3a4.21,4.21,0,0,0,3.5,2,4.29,4.29,0,0,0,3.51-1.94q1.44-1.95,1.44-6.18c0-2.76-.49-4.8-1.48-6.15a4.4,4.4,0,0,0-3.62-2,4.09,4.09,0,0,0-3.34,2,10.38,10.38,0,0,0-1.43,6" transform="translate(-324.31 -189.41)"/><path class="cls-1" d="M935.69,923.94l3.3,1q-1.1,5.09-3.82,7.59a9.49,9.49,0,0,1-6.65,2.51,10.14,10.14,0,0,1-5.89-1.68,11.89,11.89,0,0,1-4-5.4,22.7,22.7,0,0,1-1.55-8.76,20.64,20.64,0,0,1,1.55-8.45,11.91,11.91,0,0,1,4.22-5.22,10.52,10.52,0,0,1,5.95-1.76A9.11,9.11,0,0,1,935,906a12.05,12.05,0,0,1,3.61,6.55l-3.22.92q-1.65-6.29-6.62-6.28a7.28,7.28,0,0,0-4.3,1.27,8.5,8.5,0,0,0-2.9,3.95,18.33,18.33,0,0,0-1.08,6.79q0,6.21,2.18,9.31a6.8,6.8,0,0,0,5.82,3.11,6.42,6.42,0,0,0,4.63-1.91,10.35,10.35,0,0,0,2.6-5.78" transform="translate(-324.31 -189.41)"/><path class="cls-1" d="M941.51,923.59q0-5.67,2.38-8.56a7.7,7.7,0,0,1,12,0c1.61,1.93,2.41,4.7,2.41,8.33q0,5.89-2.37,8.78a7.72,7.72,0,0,1-12.05,0q-2.4-2.89-2.4-8.54m3.11,0q0,4.24,1.55,6.32A4.6,4.6,0,0,0,950,932a4.47,4.47,0,0,0,3.68-2.1c1-1.39,1.54-3.5,1.54-6.3s-.52-4.93-1.55-6.31a4.63,4.63,0,0,0-3.83-2.07,4.45,4.45,0,0,0-3.69,2.08q-1.53,2.09-1.53,6.3" transform="translate(-324.31 -189.41)"/><path class="cls-1" d="M961.94,934.53V912.64h2.72v3.05a6.92,6.92,0,0,1,2.32-2.62,5.58,5.58,0,0,1,3.11-.92,5.18,5.18,0,0,1,3.2,1,5.34,5.34,0,0,1,1.87,2.84,8.21,8.21,0,0,1,2.47-2.86,5.32,5.32,0,0,1,3.09-1,5.08,5.08,0,0,1,4.08,1.75c1,1.16,1.49,3,1.49,5.61v15h-3v-13.8a11.19,11.19,0,0,0-.34-3.33,3,3,0,0,0-1.11-1.52,2.9,2.9,0,0,0-1.72-.54,3.92,3.92,0,0,0-3.21,1.56,7.83,7.83,0,0,0-1.24,4.9v12.73h-3V920.29a6.56,6.56,0,0,0-.83-3.83,2.7,2.7,0,0,0-2.3-1.12,3.84,3.84,0,0,0-3.29,1.68q-1.2,1.68-1.2,6.14v11.37Z" transform="translate(-324.31 -189.41)"/><path class="cls-1" d="M990.78,934.53V912.64h2.72v3.05a6.86,6.86,0,0,1,2.33-2.62,5.52,5.52,0,0,1,3.1-.92,5.18,5.18,0,0,1,3.2,1A5.28,5.28,0,0,1,1004,916a8.21,8.21,0,0,1,2.47-2.86,5.32,5.32,0,0,1,3.09-1,5.08,5.08,0,0,1,4.08,1.75c1,1.16,1.49,3,1.49,5.61v15h-3v-13.8a11.11,11.11,0,0,0-.35-3.33,2.95,2.95,0,0,0-2.83-2.06,3.92,3.92,0,0,0-3.21,1.56,7.83,7.83,0,0,0-1.24,4.9v12.73h-3V920.29a6.55,6.55,0,0,0-.84-3.83,2.69,2.69,0,0,0-2.3-1.12A3.83,3.83,0,0,0,995,917q-1.21,1.68-1.21,6.14v11.37Z" transform="translate(-324.31 -189.41)"/><path class="cls-1" d="M1031.35,934.53v-3.21a7.79,7.79,0,0,1-2.47,2.78,5.75,5.75,0,0,1-3.22.93,5.86,5.86,0,0,1-3.63-1.14,5.53,5.53,0,0,1-2-2.9,18.3,18.3,0,0,1-.5-4.79V912.64h3v12.14a19,19,0,0,0,.34,4.53,3.44,3.44,0,0,0,1.26,1.83,3.37,3.37,0,0,0,2.09.69,4.36,4.36,0,0,0,3.59-1.79q1.18-1.54,1.19-5.67V912.64h3v21.89Z" transform="translate(-324.31 -189.41)"/><path class="cls-1" d="M1038.86,934.53V912.64h2.74v3.09A7,7,0,0,1,1044,913a6,6,0,0,1,3.28-.89,6.19,6.19,0,0,1,2.66.56,5.39,5.39,0,0,1,2,1.49,6.06,6.06,0,0,1,1.12,2.38,19.65,19.65,0,0,1,.37,4.49v13.46h-3V921.2a11.18,11.18,0,0,0-.41-3.53,3.55,3.55,0,0,0-1.29-1.72,3.43,3.43,0,0,0-2-.61,4.2,4.2,0,0,0-3.48,1.63q-1.31,1.63-1.3,5.59v12Z" transform="translate(-324.31 -189.41)"/><path class="cls-1" d="M1058.11,904.31h3v4.27h-3Zm0,8.33h3v21.89h-3Z" transform="translate(-324.31 -189.41)"/><path class="cls-1" d="M1072.56,931.21l.41,3.28a8.94,8.94,0,0,1-2.26.33,4.64,4.64,0,0,1-2.56-.63,3.16,3.16,0,0,1-1.33-1.72,16.77,16.77,0,0,1-.36-4.35V915.53h-2.23v-2.89h2.23v-5.42l3-2.23v7.65h3.07v2.89h-3.07v12.8a6,6,0,0,0,.27,2.29,1.51,1.51,0,0,0,1.46.74,7.77,7.77,0,0,0,1.34-.15" transform="translate(-324.31 -189.41)"/><path class="cls-1" d="M1075.43,904.31h3v4.27h-3Zm0,8.33h3v21.89h-3Z" transform="translate(-324.31 -189.41)"/><path class="cls-1" d="M1095.38,927.48l3.14.48a9.52,9.52,0,0,1-2.84,5.29,7.49,7.49,0,0,1-5.08,1.78,7.58,7.58,0,0,1-6.17-2.9c-1.58-1.93-2.36-4.71-2.36-8.36s.79-6.66,2.38-8.65a7.4,7.4,0,0,1,6-3,7.14,7.14,0,0,1,5.81,2.92c1.56,1.95,2.33,4.78,2.33,8.48l0,1h-13.4a9.39,9.39,0,0,0,1.71,5.56,4.65,4.65,0,0,0,3.71,1.88q3.42,0,4.76-4.5m-10-6h10a8.38,8.38,0,0,0-1.22-4.24,4.43,4.43,0,0,0-7.22-.34,7.41,7.41,0,0,0-1.58,4.58" transform="translate(-324.31 -189.41)"/><path class="cls-1" d="M1101.2,928l3-.58a5.42,5.42,0,0,0,1.46,3.45,5.12,5.12,0,0,0,6.22.15,3.21,3.21,0,0,0,1.08-2.49,2.42,2.42,0,0,0-.93-2,11.37,11.37,0,0,0-3.09-1.23,22.54,22.54,0,0,1-4.74-1.86,5.22,5.22,0,0,1-1.86-2,6.24,6.24,0,0,1-.66-2.91,6.06,6.06,0,0,1,1.8-4.55,6.79,6.79,0,0,1,5-1.75,8.09,8.09,0,0,1,3.51.72,5.57,5.57,0,0,1,2.32,1.93,8.33,8.33,0,0,1,1.11,3.49l-3,.49q-.42-3.59-3.9-3.58a4.6,4.6,0,0,0-3,.79,2.47,2.47,0,0,0-1,2,2.26,2.26,0,0,0,.93,1.91,16.32,16.32,0,0,0,3.31,1.31,25.43,25.43,0,0,1,4.88,1.91,4.92,4.92,0,0,1,1.73,1.94,6.52,6.52,0,0,1,.61,2.93,6.78,6.78,0,0,1-2,5.08,7.44,7.44,0,0,1-5.43,1.94q-6.45,0-7.48-7" transform="translate(-324.31 -189.41)"/><path class="cls-1" d="M664.23,779.21q.13-4.53.14-7.81V724q0-3.63-.14-7.48c-.1-2.56-.2-5.17-.33-7.81l-.09-1.93h46.33v7.93l-2.49-.23c-3-.3-6-.49-8.89-.56s-5.35-.12-7.31-.12H676.72v29.35h11.33q3.41,0,7-.23t8.27-.68v8.61q-4.76-.57-8.66-.85t-6.74-.28H676.72v31.72h23.45a49.89,49.89,0,0,0,5-.23c1.06-.07,2-.11,2.83-.11s2.11-.07,3.85-.23v7.59h-48c.18-3.17.32-6.26.42-9.29" transform="translate(-324.31 -189.41)"/><path class="cls-1" d="M753.76,724q0-1-.06-2.49c0-1-.09-2.31-.17-4,0-1.36,0-2.53,0-3.51s-.08-1.87-.12-2.66-.07-1.55-.11-2.27-.06-1.49-.06-2.32h11.56V771.4c0,2.94,0,5.74.11,8.38s.27,5.55.57,8.72H754v-5a25.79,25.79,0,0,1-6.92,4.7,17.73,17.73,0,0,1-7.13,1.42,18.4,18.4,0,0,1-8.73-2.1,21.14,21.14,0,0,1-6.85-5.83,27.78,27.78,0,0,1-4.48-8.9,38.37,38.37,0,0,1-1.58-11.27A40.68,40.68,0,0,1,720.17,749a33.15,33.15,0,0,1,5.15-10.14,24.48,24.48,0,0,1,7.76-6.74,20,20,0,0,1,9.69-2.44,15.59,15.59,0,0,1,5.83,1,17.72,17.72,0,0,1,5.16,3.4Zm0,16.54a16.46,16.46,0,0,0-4.65-3.57,11.56,11.56,0,0,0-5-1.07,10.59,10.59,0,0,0-6,1.75,15.41,15.41,0,0,0-4.59,4.93,26.85,26.85,0,0,0-3,7.59,41.59,41.59,0,0,0-1.08,9.86q0,11,3.52,16.76a11.13,11.13,0,0,0,10.08,5.78q6.35,0,10.65-6.45Z" transform="translate(-324.31 -189.41)"/><path class="cls-1" d="M792.73,731l-.22,2.49q-.35,4.06-.52,8.19c-.11,2.76-.16,4.77-.16,6v23.4c0,3.85.9,6.63,2.72,8.37s4.68,2.6,8.61,2.6a11.91,11.91,0,0,0,6.4-1.59,25.27,25.27,0,0,0,5.83-5.65V748.13c0-2,0-3.76-.06-5.42s-.09-3.13-.17-4.41c0-1.13,0-2.18-.11-3.17s-.19-2.37-.34-4.18h12.8q-1,10.15-1,17.15v23.59c0,1.73,0,3.28.06,4.63s.07,2.65.11,3.89.12,2.5.23,3.78.24,2.71.4,4.29h-11.9V781.4a26.55,26.55,0,0,1-7.59,5.81,19,19,0,0,1-8.38,1.86,24.3,24.3,0,0,1-7.25-1.13,19.06,19.06,0,0,1-6.12-3.05,12.63,12.63,0,0,1-4-5.47,23.21,23.21,0,0,1-1.31-8.4V748c0-2.56-.05-5.15-.17-7.78s-.28-5.72-.51-9.26Z" transform="translate(-324.31 -189.41)"/><rect class="cls-1" x="513.29" y="563.53" width="27.64" height="9.63"/><path class="cls-1" d="M875.6,779.44c.12-3,.17-5.74.17-8.16V724c0-2.64,0-5.14-.11-7.48s-.19-4.94-.34-7.81l-.11-1.93h46v7.59l-1.92-.11q-10.77-.45-16-.46H888.12v29.57h11.67q2.94,0,6.74-.28t8.33-.85V751c-3.4-.37-6.34-.66-8.84-.85s-4.57-.28-6.23-.28H888.12L888,771.28c0,1,0,2.12.06,3.4s.07,2.63.11,4,.07,2.75.11,4.07.1,2.55.17,3.69l.12,2H875.21q.22-4.53.39-9.06" transform="translate(-324.31 -189.41)"/><path class="cls-1" d="M934.46,731l-.23,2.49q-.33,4.06-.51,8.19c-.11,2.76-.17,4.77-.17,6v23.4c0,3.85.91,6.63,2.72,8.37s4.69,2.6,8.61,2.6a11.89,11.89,0,0,0,6.4-1.59,25.27,25.27,0,0,0,5.84-5.65V748.13c0-2,0-3.76-.06-5.42s-.09-3.13-.17-4.41c0-1.13,0-2.18-.11-3.17s-.19-2.37-.34-4.18h12.8q-1,10.15-1,17.15v23.59c0,1.73,0,3.28.06,4.63s.07,2.65.11,3.89.12,2.5.23,3.78.24,2.71.4,4.29h-11.9V781.4a26.68,26.68,0,0,1-7.59,5.81,19.06,19.06,0,0,1-8.39,1.86,24.4,24.4,0,0,1-7.25-1.13,19,19,0,0,1-6.11-3.05,12.65,12.65,0,0,1-4-5.47,23.45,23.45,0,0,1-1.3-8.4V748q0-3.84-.17-7.78c-.11-2.64-.28-5.72-.51-9.26Z" transform="translate(-324.31 -189.41)"/><path class="cls-1" d="M976,731h9.29v-1.58l-.12-6.69v-3.74a46.31,46.31,0,0,0-.22-4.76l-.23-2h11.56V731H1008v5.78H996.32v36.84q0,4.86,1.36,7a4.82,4.82,0,0,0,4.41,2.15A11.39,11.39,0,0,0,1009,780v7.36a27.28,27.28,0,0,1-5,1.59,25,25,0,0,1-4.87.45q-13.83,0-13.82-13.42V736.73H976Z" transform="translate(-324.31 -189.41)"/><path class="cls-1" d="M1027.36,731l-.23,2.49q-.33,4.06-.51,8.19c-.11,2.76-.17,4.77-.17,6v23.4c0,3.85.91,6.63,2.72,8.37s4.68,2.6,8.61,2.6a11.89,11.89,0,0,0,6.4-1.59,25.27,25.27,0,0,0,5.84-5.65V748.13c0-2,0-3.76-.06-5.42s-.1-3.13-.17-4.41c0-1.13,0-2.18-.11-3.17s-.19-2.37-.34-4.18h12.8q-1,10.15-1,17.15v23.59c0,1.73,0,3.28.06,4.63s.07,2.65.11,3.89.11,2.5.23,3.78.24,2.71.39,4.29H1050V781.4a26.68,26.68,0,0,1-7.59,5.81,19.06,19.06,0,0,1-8.39,1.86,24.35,24.35,0,0,1-7.25-1.13,19,19,0,0,1-6.11-3.05,12.65,12.65,0,0,1-4-5.47,23.23,23.23,0,0,1-1.3-8.4V748q0-3.84-.17-7.78c-.11-2.64-.28-5.72-.51-9.26Z" transform="translate(-324.31 -189.41)"/><path class="cls-1" d="M1088.2,731a13,13,0,0,1,.9,2.95,17.25,17.25,0,0,1,.23,2.83v1.7a15.17,15.17,0,0,1,5.72-6.69,17.31,17.31,0,0,1,8.89-2h.46a3.1,3.1,0,0,1,.79.12v9.4a20.07,20.07,0,0,0-2.09-.28c-.57,0-1.19-.06-1.87-.06a10.69,10.69,0,0,0-8.56,3.63q-3.12,3.62-3.11,10V771.4c0,2.79,0,5.4,0,7.81a71.51,71.51,0,0,0,.51,7.37l.23,1.92h-12.69q.45-4.41.68-9.17c.15-3.17.23-5.82.23-7.93V744.66c0-1.74,0-3.3-.12-4.7s-.19-2.66-.34-3.8c-.15-.83-.3-1.58-.45-2.26s-.41-1.66-.79-2.95Z" transform="translate(-324.31 -189.41)"/><path class="cls-1" d="M1108.53,747.49a28,28,0,0,1,5-9.46,21.7,21.7,0,0,1,7.87-6,26.36,26.36,0,0,1,20.62,0,22.17,22.17,0,0,1,7.93,6,27.34,27.34,0,0,1,5,9.46,44.21,44.21,0,0,1,0,24.7,27.34,27.34,0,0,1-5,9.46,22.56,22.56,0,0,1-7.93,6.06,25.8,25.8,0,0,1-20.62,0,22.08,22.08,0,0,1-7.87-6.06,28,28,0,0,1-5-9.46,44.45,44.45,0,0,1,0-24.7m10.82,1.31a55,55,0,0,0-.9,11,52.47,52.47,0,0,0,1,11.1,20.23,20.23,0,0,0,3.12,7.37,13.23,13.23,0,0,0,4.13,3.79,9.07,9.07,0,0,0,10.08,0,13.38,13.38,0,0,0,4.14-3.79A20.46,20.46,0,0,0,1144,771a49,49,0,0,0,1-10.71,57,57,0,0,0-.91-11.49,19.62,19.62,0,0,0-3.17-7.43,12.74,12.74,0,0,0-4.14-3.73,10.05,10.05,0,0,0-5-1.48,9.93,9.93,0,0,0-5.1,1.48,12.8,12.8,0,0,0-4.07,3.73,19.64,19.64,0,0,0-3.18,7.43" transform="translate(-324.31 -189.41)"/><path class="cls-1" d="M745.8,674.75l-.3.21h.18l.12-.22" transform="translate(-324.31 -189.41)"/><path class="cls-1" d="M905.73,679.19c-1.46-.25-3.33-.49-5.52-.75q2.76.36,5.52.75" transform="translate(-324.31 -189.41)"/><path class="cls-1" d="M910.73,679.12l-5,.07c-3.46-.06-6.91-.16-10.36-.28l-74.46-2c-2.35,0-4.7-.08-7-.06l-10.19.06c-6.8.08-13.59.17-20.38.44s-13.57.59-20.35,1-13.57,1.07-20.24,2.21l-.75.12.37-.61L745.5,675l-10.67,7.37-9.37,6.47v4.5l174.07-9.6h3.07a5.46,5.46,0,0,0,2.82,2.75l4.85-.21.65,0c-.19-2.38-.2-4.75-.19-7.15" transform="translate(-324.31 -189.41)"/><path class="cls-1" d="M910.89,679.12l5,.07c3.45-.06,6.91-.16,10.36-.28l74.46-2c2.34,0,4.69-.08,7-.06l10.2.06c6.79.08,13.58.17,20.37.44s13.57.59,20.35,1,13.57,1.07,20.25,2.21l.74.12-.37-.61-3.17-5.17,10.67,7.37,9.38,6.47v4.5l-174.08-9.6H919a5.46,5.46,0,0,1-2.82,2.75l-4.85-.21-.65,0c.19-2.38.2-4.75.19-7.15" transform="translate(-324.31 -189.41)"/><path class="cls-1" d="M909.32,680.15a.21.21,0,0,1,.08.14l-.08-.14" transform="translate(-324.31 -189.41)"/><path class="cls-1" d="M909.4,680.29a.29.29,0,0,1,.09-.16l-.09.16" transform="translate(-324.31 -189.41)"/><path class="cls-1" d="M909.4,680.29a.23.23,0,0,0-.08-.14c0,.05,0,.1.08.14" transform="translate(-324.31 -189.41)"/><path class="cls-1" d="M909.49,680.13a.29.29,0,0,0-.09.16l.09-.16" transform="translate(-324.31 -189.41)"/><path class="cls-2" d="M796.65,646.67a202.28,202.28,0,0,1,41.1-1.54c13.71,1,27.48,3.68,40.19,9.24A78.12,78.12,0,0,1,895.68,665l1,.81-.61-.57c-54.36-46.66-126.4-33.86-133.16-33.59,6.67-1.17,85.57-26.74,140.52,39.56-6.84-22.32-10.85-40.57-18.17-60.17-60.73-35.85-111.56-11.71-113.24-9.89l-31.6,36.86s14.72-5,22.49-6.36l-20.09,27s5.22-1.34,14-2.94a191.33,191.33,0,0,1,19.73-5.46c6.68-1.47,13.41-2.69,20.2-3.6" transform="translate(-324.31 -189.41)"/><path class="cls-2" d="M903.8,673.1c-51.25-38-140.4-18.73-147.08-17.37l-10.92,19-.12.22h-.18l-.84,1.78-1.43,3c3.09-.83,6.23-1.38,9.35-2a355.88,355.88,0,0,1,147.63.68c2.19.26,4,.5,5.52.75Z" transform="translate(-324.31 -189.41)"/><path class="cls-2" d="M1024.84,646.68a201.49,201.49,0,0,0-41.09-1.55c-13.71,1-27.49,3.68-40.2,9.24A78.05,78.05,0,0,0,925.82,665l-1,.81.61-.57c54.36-46.66,126.41-33.86,133.17-33.59-6.67-1.17-85.57-26.74-140.53,39.56,6.85-22.32,10.86-40.57,18.18-60.17,60.73-35.85,111.56-11.71,113.23-9.89,0,0,31.6,36.86,31.6,36.86s-14.72-5-22.48-6.36l20.08,27s-5.21-1.34-13.94-2.94a191.51,191.51,0,0,0-19.74-5.46c-6.67-1.47-13.41-2.69-20.2-3.59" transform="translate(-324.31 -189.41)"/><path class="cls-2" d="M917.69,673.1c51.26-38,140.41-18.73,147.09-17.37l10.91,19a1.59,1.59,0,0,0,.13.22h.18l.83,1.78,1.44,3c-3.1-.83-6.23-1.38-9.35-2a356.07,356.07,0,0,0-147.63.68c-2.19.26-4.06.5-5.52.75Z" transform="translate(-324.31 -189.41)"/><path class="cls-3" d="M953.06,460.66a64.79,64.79,0,0,1,24.16,4A92.07,92.07,0,0,1,993.43,473a121.55,121.55,0,0,1,22.8,18.51,140.15,140.15,0,0,1,15.88,19.88c1,1.43.9,1.58-.85,2.28a134.83,134.83,0,0,1-25.06,7.26A114.23,114.23,0,0,1,980.64,523c-9.3-.37-18.53-1.33-27.37-4.66a70.74,70.74,0,0,1-17.4-9.67c-10.48-7.82-18.66-17.71-25.72-28.6-1.23-1.9-2.4-3.85-3.54-5.81-.79-1.37-.75-1.48.64-2.16,3.15-1.57,6.39-2.92,9.68-4.17A115.12,115.12,0,0,1,940,461.7a60.22,60.22,0,0,1,13.08-1" transform="translate(-324.31 -189.41)"/><path class="cls-3" d="M720.46,477.91a94.18,94.18,0,0,1,8.4-9,119.82,119.82,0,0,1,32.61-22.43,80,80,0,0,1,22.31-7.11,65.61,65.61,0,0,1,20.55.49c13.8,2.4,26.25,8.08,38,15.44,3.24,2,3.15,2,.7,5.06a123.92,123.92,0,0,1-13.72,14.51c-8.79,7.92-18.58,14.27-30,17.78a55.69,55.69,0,0,1-14.89,2.51,111.27,111.27,0,0,1-22.11-1.41,122.26,122.26,0,0,1-21.78-5.95,127.67,127.67,0,0,1-17.53-8.1,7.66,7.66,0,0,1-2.56-1.81" transform="translate(-324.31 -189.41)"/><path class="cls-3" d="M763.65,363.53a113.63,113.63,0,0,1,38.24,5.94c9.2,3.13,18,7.15,25.31,13.75a75.91,75.91,0,0,1,13.56,16.35,113.11,113.11,0,0,1,13.17,31.26c.07.28.17.56.22.85.23,1.42.14,1.65-1.3,1.89-2.89.47-5.78.93-8.69,1.24a116.32,116.32,0,0,1-16.9.48,79.35,79.35,0,0,1-29-6.28,65.05,65.05,0,0,1-19-13.21,112.57,112.57,0,0,1-18.6-23.55,127.87,127.87,0,0,1-11.78-26.19c-.44-1.35-.33-1.61,1.24-1.83a80.48,80.48,0,0,1,10.29-.7h3.3" transform="translate(-324.31 -189.41)"/><path class="cls-3" d="M1045.51,431c7.42-.12,14.76,1.8,22,4.19a112.15,112.15,0,0,1,30.94,16.32,116.86,116.86,0,0,1,13.33,11.43c1.21,1.2,1.2,1.36-.17,2.28a120.32,120.32,0,0,1-24.54,12.67,116.67,116.67,0,0,1-23.73,6.23c-15.58,2.4-30.27,0-44-8a116.74,116.74,0,0,1-26.83-21.8c-.1-.11-.21-.22-.3-.33-1.13-1.35-1.15-1.59.24-2.6,2.49-1.8,4.95-3.64,7.54-5.28a101.86,101.86,0,0,1,24.91-11.89,67.44,67.44,0,0,1,20.61-3.23" transform="translate(-324.31 -189.41)"/><path class="cls-3" d="M868.2,323.24c0,3.57.29,3.57-2.5,3.34-42.33-3.47-71.84-35.52-75.79-77.14-.1-1.09-.29-2.18-.33-3.27-.05-1.26.16-1.45,1.39-1.29,2.1.26,4.21.52,6.3.91,36.07,6.75,64.88,28.6,70,66.39.53,3.91.7,7.87,1,11.06" transform="translate(-324.31 -189.41)"/><path class="cls-3" d="M966,377.08a79.84,79.84,0,0,1,9.27-22.42c5.51-9.16,12.68-16.51,22.33-21.44a91,91,0,0,1,36.88-9.64c4-.22,8,0,12.06.17.22,0,.43.08.65.11,1.41.21,1.58.34,1.23,1.62-.79,2.9-1.52,5.82-2.55,8.64-1.44,3.91-2.81,7.84-4.57,11.64A105,105,0,0,1,1027.77,368,65.35,65.35,0,0,1,1014.41,381a55.09,55.09,0,0,1-21.21,8.59,88.53,88.53,0,0,1-27.76.48c-.43,0-.86-.18-1.29-.24-1-.14-1.37-.68-1.14-1.68.19-.78.22-1.6.44-2.37.82-2.89,1.69-5.77,2.54-8.65" transform="translate(-324.31 -189.41)"/><path class="cls-3" d="M938,343.17a68.49,68.49,0,0,1-5.94,37.2c-.67,1.4-.77,1.44-2.15.67a100.46,100.46,0,0,1-15.87-11c-26.21-22.17-28.12-57.19-16.53-88,.12-.35.29-.67.44-1,.33-.8.88-.91,1.57-.45,1.46,1,2.94,1.92,4.37,2.94,18.66,13.33,31.61,36.21,34.11,59.63" transform="translate(-324.31 -189.41)"/><path class="cls-3" d="M735.26,441.43a53.59,53.59,0,0,1-22.68-5.2,97.66,97.66,0,0,1-30.92-22.4c-1.51-1.6-2.89-3.31-4.28-5-1.19-1.47-1.16-1.58.43-2.37,1.9-.95,3.8-1.91,5.75-2.75A100.53,100.53,0,0,1,706,396.85a98.12,98.12,0,0,1,15.49-1.48c13.28-.19,25,4.06,35.38,12.26a96,96,0,0,1,17.27,18c.35.47.63,1,1,1.44.62.75.47,1.29-.33,1.76-1.59.91-3.14,1.89-4.76,2.75-8.41,4.42-17.19,7.81-26.66,9.16a50.44,50.44,0,0,1-8.12.67" transform="translate(-324.31 -189.41)"/><path class="cls-3" d="M793.41,339.46c-35.83-3.08-60.23-22.92-67.69-59.5-.38-1.85-.38-1.88,1.41-1.91,37.54-.62,67.85,22.25,74,59.56.24,1.45.21,1.53-1.21,1.56a62.35,62.35,0,0,1-6.49.29" transform="translate(-324.31 -189.41)"/><path class="cls-3" d="M1069.89,254a64.68,64.68,0,0,1-17.69-2.78c-.9-.27-1.8-.51-2.68-.82-1.1-.4-1.12-.44-.7-1.53a56.16,56.16,0,0,1,3.19-6.52,55.25,55.25,0,0,1,9.48-12.82,36.82,36.82,0,0,1,16.51-9.88,66,66,0,0,1,20.4-2.24,76,76,0,0,1,15.13,2.32c.21.05.41.16.63.2.84.14.93.55.58,1.28a57.31,57.31,0,0,1-3,5.48,70.47,70.47,0,0,1-12,14.64,54.71,54.71,0,0,1-12.75,9,34.38,34.38,0,0,1-12.66,3.4,31.4,31.4,0,0,1-4.44.26" transform="translate(-324.31 -189.41)"/><path class="cls-3" d="M1091.6,270.14a53.73,53.73,0,0,1-4.81,5.79,92.71,92.71,0,0,1-23.18,18.65c-6,3.38-12.31,6.22-19.14,7.51a54.06,54.06,0,0,1-23.09-.93,88.52,88.52,0,0,1-16.49-6c-2.38-1.12-4.68-2.43-7-3.74-1.34-.77-1.33-.87-.46-2.2a61.28,61.28,0,0,1,5.48-7.15,81.11,81.11,0,0,1,16.1-14.51c6.45-4.24,13.4-7.27,21.11-8.16a78.38,78.38,0,0,1,18.62.11,96.26,96.26,0,0,1,27.17,7.61,22,22,0,0,1,5.66,3" transform="translate(-324.31 -189.41)"/><path class="cls-3" d="M1099.57,381.57a94.63,94.63,0,0,1,43,10c.26.12.53.25.79.39.72.39.91.91.36,1.59s-1.13,1.34-1.7,2a92.9,92.9,0,0,1-24.61,21,69.79,69.79,0,0,1-18.37,7.71,50.62,50.62,0,0,1-23.51-.15,88.82,88.82,0,0,1-24.2-9.62c-.39-.22-.74-.48-1.13-.68-.93-.47-.81-1-.29-1.77,7.39-10.19,16-19.08,27.26-25a46,46,0,0,1,22.42-5.47" transform="translate(-324.31 -189.41)"/><path class="cls-3" d="M1101.09,370.6a102.3,102.3,0,0,1-14.32-1.29c-.44-.07-.86-.21-1.29-.27-1-.15-1.22-.61-.91-1.53.7-2.08,1.27-4.21,2-6.27a68.79,68.79,0,0,1,10.71-19.81A43.64,43.64,0,0,1,1114.67,328a78,78,0,0,1,26.65-5.93,96.23,96.23,0,0,1,14.9.58c1.69.17,1.74.21,1.15,1.88a86.26,86.26,0,0,1-11.63,22.34,68.84,68.84,0,0,1-14.15,14.62,42.89,42.89,0,0,1-16.25,7.44,66,66,0,0,1-14.25,1.66" transform="translate(-324.31 -189.41)"/><path class="cls-3" d="M709,356.29A58.91,58.91,0,0,1,695.09,354a82.38,82.38,0,0,1-30.37-16.69c-.28-.24-.53-.51-.81-.74-.86-.71-.7-1.36.14-1.93,2.05-1.41,4.06-2.89,6.19-4.18a78.26,78.26,0,0,1,29.64-10.95,43.46,43.46,0,0,1,20.58,1.68,64.74,64.74,0,0,1,17.81,9.75,74.53,74.53,0,0,1,8.23,7.24c1.07,1.09,1.06,1.22-.13,2.22-7.75,6.55-16.31,11.62-26.18,14.29A53.11,53.11,0,0,1,709,356.29" transform="translate(-324.31 -189.41)"/><path class="cls-3" d="M1077.61,313.57a38.41,38.41,0,0,1,3.53-17.85,54.66,54.66,0,0,1,7.74-11.69,75.13,75.13,0,0,1,21.34-17.34c.31-.18.65-.34,1-.49,1.33-.64,1.35-.65,1.78.75a71.4,71.4,0,0,1,2.48,12.46,74.26,74.26,0,0,1-.7,21.2c-1.75,10.48-7,18.79-15,25.52A73.31,73.31,0,0,1,1084,336c-1.83.88-2,.85-2.63-1.06-2.2-6.93-3.93-13.95-3.71-21.37" transform="translate(-324.31 -189.41)"/><path class="cls-3" d="M837.21,247.22c-9.81.13-19.27-3.58-27.56-10.75a74.61,74.61,0,0,1-18.87-24.53c-.87-1.82-.89-1.9,1-2.32a90.16,90.16,0,0,1,10-1.59,66.84,66.84,0,0,1,15.55.06c7.67,1,15.14,2.65,21.72,7.06A49.15,49.15,0,0,1,851.79,228a68,68,0,0,1,7.35,13.71c.72,1.79.62,2-1.32,2.58a71.31,71.31,0,0,1-20.61,2.94" transform="translate(-324.31 -189.41)"/><path class="cls-3" d="M890.43,394.84c-9.62-2-18-7.64-24.6-16.42a74.56,74.56,0,0,1-13.14-28c-.46-2-.46-2.05,1.49-2a89.34,89.34,0,0,1,10.07.59,67.4,67.4,0,0,1,15.18,3.4c7.27,2.64,14.21,5.86,19.68,11.59a49.13,49.13,0,0,1,9.7,15.28,68.32,68.32,0,0,1,4.22,15c.31,1.9.17,2.12-1.84,2.24a71.46,71.46,0,0,1-20.76-1.58" transform="translate(-324.31 -189.41)"/><path class="cls-3" d="M898.43,242.66a62,62,0,0,1-.66,10.15c-.17,1.3-.29,1.37-1.59,1.05A60.93,60.93,0,0,1,875.61,245a36.33,36.33,0,0,1-13.19-16.2,67.51,67.51,0,0,1-5.15-23.27c-.13-3,.11-5.95.14-8.92a2.22,2.22,0,0,1,0-.44c.14-.94.32-1,1.24-.78a66.12,66.12,0,0,1,14.12,5.94,67.26,67.26,0,0,1,13.91,10.37,36.85,36.85,0,0,1,10.67,19.43,46.87,46.87,0,0,1,1,11.53" transform="translate(-324.31 -189.41)"/><path class="cls-3" d="M1016.27,226.85a35.71,35.71,0,0,1,2.66-14,29.74,29.74,0,0,1,4.72-7.45,54,54,0,0,1,18.07-14c1.34-.65,2.68-1.33,4.08-1.85.85-.32,1-.25,1.11.65a57.05,57.05,0,0,1,.9,12,50.24,50.24,0,0,1-4.22,19.18,28,28,0,0,1-6.67,9,46.61,46.61,0,0,1-14.3,8.77c-1.12.46-2.26.86-3.4,1.27s-1.19.37-1.44-.82c-.34-1.62-.7-3.24-.93-4.88a54.25,54.25,0,0,1-.58-7.85" transform="translate(-324.31 -189.41)"/><path class="cls-1" d="M910.92,684.13c-2.59-25.27-17.36-72.31-17.36-72.31-16.13-34.6-34.89-76.78-34-122.61.25-13.19,18.62-89.91-41.79-122.33-40-21.48-91.19-4.74-90.5-5.08,20-10,48.25-13.45,59.13-13.45,42.51,0,87.44,36.55,93,85.49,0,.36,67.47-25.82,67.47-80.95,0-92.37-106.6-96.69-105.71-96.68,5.72,0,11.44,0,17.16.18,40.39,1.33,80.19,16.08,102.58,61.67,0,0,13.69-40,46.37-61.62a115.25,115.25,0,0,1,26.91-13.23c3.25-1.09,8.36-1.3,11.26-2.89-24.67,13.55-47.7,29.32-60.33,54.87a237.4,237.4,0,0,0-18.51,51.39c-5.54,23-11.63,45.12-27.51,63.33-13.8,15.84-31.68,27.91-50.71,36.6-.71.33,56.3-12.56,84.93-16.4,46.63-6.26,74.11-36.07,99.61-73,1.25-1.81,2.61-3.54,4-5.28.48-.61-22.43,70-89.42,89.57-32.11,9.38-74.23,12.67-94.64,30.57-11,9.68,12,112.21,34.49,139.13-6.47,24.63-13,47-16.32,73" transform="translate(-324.31 -189.41)"/><rect class="cls-4" x="911.41" y="238.06" width="1.78" height="17.98" transform="translate(-356.7 28.07) rotate(-13.36)"/><path class="cls-4" d="M915,266l3.23-2.45a2.11,2.11,0,0,0,.82-2.53l-3.94-8.66a1.5,1.5,0,0,0-2.73.64l1,12.55c0,.66,1,.93,1.63.45" transform="translate(-324.31 -189.41)"/><path class="cls-4" d="M905.6,239.16l46.27-20.45a10.23,10.23,0,0,1,7.65-.24l48.16,17.68a.64.64,0,0,1,.06,1.17l-20.92,10.42a3.27,3.27,0,0,0-1.81,2.81l-.49,12.59a85.7,85.7,0,0,0-12.63,13c-8.66,11.72-11.83,19.45-11.83,19.45a113,113,0,0,0-16-19.45c-9.33-8.93-16-12.06-16-12.06l-1.19-12.44a3,3,0,0,0-1.76-2.45l-19.44-8.8a.66.66,0,0,1,0-1.2" transform="translate(-324.31 -189.41)"/><path class="cls-1" d="M718,1544.18q.21-7,.22-12.14v-73.53c0-3.75-.08-7.62-.22-11.61s-.32-8-.51-12.14l-.15-3h72v12.32l-3.87-.36q-7-.69-13.81-.88t-11.35-.17H737.35v45.56h17.59c3.51,0,7.15-.12,10.9-.35s8-.59,12.84-1.06v13.37q-7.38-.87-13.45-1.32t-10.47-.43H737.35v49.25h36.41c2.69,0,5.28-.12,7.74-.35,1.64-.12,3.11-.18,4.4-.18s3.28-.11,6-.35v11.79H717.29q.44-7.39.66-14.43" transform="translate(-324.31 -189.41)"/><path class="cls-1" d="M857,1458.51q0-1.59-.09-3.87c-.06-1.52-.15-3.58-.27-6.16,0-2.11,0-3.93-.08-5.45s-.12-2.9-.18-4.14-.12-2.4-.18-3.51-.08-2.32-.08-3.61H874V1532q0,6.87.18,13t.88,13.55H857.32v-7.74a40.3,40.3,0,0,1-10.73,7.3,27.85,27.85,0,0,1-11.08,2.2,28.53,28.53,0,0,1-13.55-3.26,32.73,32.73,0,0,1-10.65-9.06,43.17,43.17,0,0,1-6.94-13.81,59,59,0,0,1-2.46-17.5,63.21,63.21,0,0,1,2.9-19.44,51.5,51.5,0,0,1,8-15.74,37.82,37.82,0,0,1,12.05-10.47,31,31,0,0,1,15-3.78,24.17,24.17,0,0,1,9.06,1.58,27.11,27.11,0,0,1,8,5.28Zm0,25.68a25.48,25.48,0,0,0-7.22-5.54A17.83,17.83,0,0,0,842,1477a16.36,16.36,0,0,0-9.23,2.73,23.75,23.75,0,0,0-7.13,7.65,41.88,41.88,0,0,0-4.66,11.79,64.9,64.9,0,0,0-1.67,15.3q0,17.07,5.45,26t15.66,9q9.86,0,16.54-10Z" transform="translate(-324.31 -189.41)"/><path class="cls-1" d="M917.48,1469.24l-.35,3.86q-.52,6.33-.79,12.73t-.27,9.39v36.33q0,9,4.22,13t13.38,4a18.48,18.48,0,0,0,9.93-2.46c2.65-1.64,5.66-4.56,9.07-8.77v-41.43q0-4.56-.09-8.43t-.27-6.84c0-1.75-.06-3.39-.17-4.91s-.3-3.69-.53-6.5h19.88q-1.59,15.78-1.58,26.64v36.62c0,2.69,0,5.08.08,7.19s.12,4.12.18,6,.17,3.89.35,5.87.38,4.21.62,6.66H952.67v-10.69a41.21,41.21,0,0,1-11.79,9,29.37,29.37,0,0,1-13,2.9,37.92,37.92,0,0,1-11.26-1.75,30.08,30.08,0,0,1-9.5-4.74,19.7,19.7,0,0,1-6.24-8.49,36.14,36.14,0,0,1-2-13.06V1495.7q0-6-.26-12.09t-.79-14.37Z" transform="translate(-324.31 -189.41)"/><rect class="cls-1" x="662.84" y="1313.96" width="42.92" height="14.95"/><path class="cls-1" d="M1046.16,1544.53c.18-4.68.27-8.91.27-12.66v-73.36c0-4.1-.07-8-.18-11.61s-.29-7.68-.53-12.14l-.17-3H1117v11.79l-3-.18q-16.71-.7-24.81-.7H1065.6v45.91h18.12c3,0,6.54-.14,10.47-.44s8.24-.73,12.93-1.32v13.55c-5.28-.59-9.85-1-13.72-1.32s-7.1-.44-9.68-.44H1065.6l-.18,33.25c0,1.52,0,3.28.09,5.27s.12,4.08.18,6.25.12,4.28.18,6.33.14,4,.26,5.72l.18,3.17h-20.76q.35-7,.61-14.08" transform="translate(-324.31 -189.41)"/><path class="cls-1" d="M1137.55,1469.24l-.35,3.86q-.53,6.33-.79,12.73t-.27,9.39v36.33q0,9,4.23,13t13.37,4a18.48,18.48,0,0,0,9.93-2.46q4-2.46,9.07-8.77v-41.43q0-4.56-.09-8.43t-.27-6.84c0-1.75-.06-3.39-.17-4.91s-.3-3.69-.53-6.5h19.88Q1190,1485,1190,1495.88v36.62c0,2.69,0,5.08.08,7.19s.12,4.12.18,6,.17,3.89.35,5.87.38,4.21.62,6.66h-18.47v-10.69a41.07,41.07,0,0,1-11.79,9,29.37,29.37,0,0,1-13,2.9,38,38,0,0,1-11.26-1.75,30.08,30.08,0,0,1-9.5-4.74,19.7,19.7,0,0,1-6.24-8.49,36.14,36.14,0,0,1-2-13.06V1495.7q0-6-.26-12.09t-.79-14.37Z" transform="translate(-324.31 -189.41)"/><path class="cls-1" d="M1202.11,1469.24h14.43v-2.46l-.18-10.38v-5.81a72.44,72.44,0,0,0-.35-7.39l-.35-3.16h17.94v29.2h18.12v9H1233.6v57.21q0,7.55,2.11,10.88c1.41,2.23,3.69,3.34,6.86,3.34q5.28,0,10.73-4.23v11.44a41.61,41.61,0,0,1-7.74,2.46,38.39,38.39,0,0,1-7.56.7q-21.46,0-21.46-20.84v-61h-14.43Z" transform="translate(-324.31 -189.41)"/><path class="cls-1" d="M1281.8,1469.24l-.35,3.86q-.53,6.33-.79,12.73t-.27,9.39v36.33q0,9,4.23,13t13.37,4a18.54,18.54,0,0,0,9.94-2.46q3.94-2.46,9.06-8.77v-41.43q0-4.56-.09-8.43t-.27-6.84c0-1.75-.06-3.39-.17-4.91s-.3-3.69-.53-6.5h19.88q-1.59,15.78-1.58,26.64v36.62c0,2.69,0,5.08.08,7.19s.12,4.12.18,6,.17,3.89.35,5.87.38,4.21.62,6.66H1317v-10.69a41.07,41.07,0,0,1-11.79,9,29.37,29.37,0,0,1-13,2.9,38,38,0,0,1-11.26-1.75,30.08,30.08,0,0,1-9.5-4.74,19.7,19.7,0,0,1-6.24-8.49,36.14,36.14,0,0,1-2-13.06V1495.7q0-6-.26-12.09t-.79-14.37Z" transform="translate(-324.31 -189.41)"/><path class="cls-1" d="M1376.27,1469.24a20.84,20.84,0,0,1,1.41,4.57,27.32,27.32,0,0,1,.35,4.4v2.64q3.53-7.21,8.88-10.38t13.81-3.16h.7a5.54,5.54,0,0,1,1.24.17v14.6a31.82,31.82,0,0,0-3.26-.44c-.88-.06-1.85-.08-2.9-.08q-8.45,0-13.28,5.62t-4.84,15.49V1532q0,6.53.09,12.14a109.25,109.25,0,0,0,.79,11.44l.35,3h-19.7c.47-4.58.82-9.32,1-14.25s.35-9,.35-12.32v-41.51c0-2.7,0-5.13-.17-7.3s-.29-4.14-.53-5.9c-.23-1.29-.47-2.46-.7-3.52s-.65-2.57-1.23-4.57Z" transform="translate(-324.31 -189.41)"/><path class="cls-1" d="M1407.85,1494.92a43.09,43.09,0,0,1,7.74-14.69,33.66,33.66,0,0,1,12.22-9.32,41.06,41.06,0,0,1,32,0,34.48,34.48,0,0,1,12.31,9.32,42.56,42.56,0,0,1,7.83,14.69,68.74,68.74,0,0,1,0,38.36,42.56,42.56,0,0,1-7.83,14.69,35.31,35.31,0,0,1-12.31,9.41,40,40,0,0,1-32,0,34.45,34.45,0,0,1-12.22-9.41,43.09,43.09,0,0,1-7.74-14.69,68.74,68.74,0,0,1,0-38.36m16.8,2a84.75,84.75,0,0,0-1.41,17.15,81.8,81.8,0,0,0,1.49,17.24,31.57,31.57,0,0,0,4.84,11.43,20.72,20.72,0,0,0,6.42,5.9,14.12,14.12,0,0,0,15.66,0,20.72,20.72,0,0,0,6.42-5.9,31.57,31.57,0,0,0,4.84-11.34,77.5,77.5,0,0,0,1.49-16.62A90.18,90.18,0,0,0,1463,1497a30.59,30.59,0,0,0-4.93-11.52,19.77,19.77,0,0,0-6.42-5.81,15.62,15.62,0,0,0-7.83-2.29,15.38,15.38,0,0,0-7.91,2.29,20.12,20.12,0,0,0-6.34,5.81,30.27,30.27,0,0,0-4.92,11.52" transform="translate(-324.31 -189.41)"/><line class="cls-5" x1="1172.44" y1="1390.71" x2="392.98" y2="1390.71"/><path class="cls-1" d="M721.55,1649.48v-46.92h27.82v5.53H726.64v14.34h21.29V1628H726.64v16h23.62v5.53Z" transform="translate(-324.31 -189.41)"/><path class="cls-1" d="M756.66,1649.48v-34h4.23v4.74a10.83,10.83,0,0,1,3.61-4.08,8.73,8.73,0,0,1,4.83-1.43,8.09,8.09,0,0,1,5,1.51,8.27,8.27,0,0,1,2.89,4.41,12.9,12.9,0,0,1,3.84-4.44,8.28,8.28,0,0,1,4.8-1.48,7.88,7.88,0,0,1,6.33,2.72q2.31,2.73,2.31,8.71v23.33h-4.7v-21.43a17.29,17.29,0,0,0-.54-5.18,4.57,4.57,0,0,0-1.72-2.35,4.51,4.51,0,0,0-2.67-.84,6.11,6.11,0,0,0-5,2.42q-1.94,2.42-1.93,7.61v19.77h-4.71v-22.11c0-2.82-.43-4.8-1.29-6a4.24,4.24,0,0,0-3.57-1.73,6,6,0,0,0-5.11,2.61c-1.25,1.75-1.87,4.92-1.87,9.54v17.65Z" transform="translate(-324.31 -189.41)"/><path class="cls-1" d="M801.42,1662.51v-47h4.35v4.42a11.1,11.1,0,0,1,3.55-4,8.28,8.28,0,0,1,4.47-1.22,9.8,9.8,0,0,1,6,2,13.27,13.27,0,0,1,4.26,5.94,25.45,25.45,0,0,1,1.62,9.59q0,8.67-3.63,13.36t-8.54,4.69a7.79,7.79,0,0,1-4.06-1.12,10.15,10.15,0,0,1-3.27-3.17v16.55Zm4.29-29.83c0,4.4.74,7.63,2.21,9.71a6.4,6.4,0,0,0,5.33,3.13q3,0,5.27-3.24t2.26-10q0-6.64-2.2-9.86t-5.36-3.2c-1.9,0-3.62,1.15-5.18,3.44S805.71,1628.3,805.71,1632.68Z" transform="translate(-324.31 -189.41)"/><path class="cls-1" d="M829.52,1632.49q0-8.81,3.7-13.29a12,12,0,0,1,18.68,0q3.75,4.48,3.75,12.93,0,9.16-3.69,13.64a12,12,0,0,1-18.71,0Q829.53,1641.26,829.52,1632.49Zm4.84,0q0,6.6,2.4,9.82a7.18,7.18,0,0,0,6,3.23,7,7,0,0,0,5.72-3.26q2.39-3.26,2.38-9.79t-2.4-9.79a7.17,7.17,0,0,0-5.95-3.22,7,7,0,0,0-5.73,3.23Q834.36,1625.93,834.36,1632.47Z" transform="translate(-324.31 -189.41)"/><path class="cls-1" d="M866.35,1649.48l-8.56-34h4.88l4.44,19.62,1.64,7.3,1.48-7,4.42-19.91h4.88l4.15,19.72,1.4,6.5,1.6-6.57,4.76-19.65H896l-8.7,34h-4.92L878,1629.13l-1.05-5.8-5.64,26.15Z" transform="translate(-324.31 -189.41)"/><path class="cls-1" d="M919.06,1638.54l4.87.73a14.75,14.75,0,0,1-4.4,8.21,11.61,11.61,0,0,1-7.9,2.77,11.78,11.78,0,0,1-9.58-4.49q-3.67-4.5-3.67-13,0-8.79,3.7-13.42a11.46,11.46,0,0,1,9.36-4.63,11.1,11.1,0,0,1,9,4.55q3.62,4.55,3.62,13.15l0,1.54H903.25q.29,5.73,2.65,8.64a7.2,7.2,0,0,0,5.77,2.92Q917,1645.52,919.06,1638.54Zm-15.52-9.32h15.55a12.87,12.87,0,0,0-1.89-6.59,6.87,6.87,0,0,0-11.2-.53A11.53,11.53,0,0,0,903.54,1629.22Z" transform="translate(-324.31 -189.41)"/><path class="cls-1" d="M929.91,1649.48v-34h4.26v5.15a14.63,14.63,0,0,1,3-4.75,4.58,4.58,0,0,1,3.06-1.17,8,8,0,0,1,4.83,1.86l-1.6,5.34a5.94,5.94,0,0,0-3.42-1.25,4.19,4.19,0,0,0-2.75,1.06,5.61,5.61,0,0,0-1.76,3,26.45,26.45,0,0,0-.9,7v17.79Z" transform="translate(-324.31 -189.41)"/><path class="cls-1" d="M947.81,1609.18v-6.62h4.7v6.62Zm0,40.3v-34h4.7v34Z" transform="translate(-324.31 -189.41)"/><path class="cls-1" d="M959.75,1649.48v-34H964v4.8a11,11,0,0,1,3.75-4.19,9.46,9.46,0,0,1,5.1-1.38,9.7,9.7,0,0,1,4.14.88,8.51,8.51,0,0,1,3.06,2.31,9.39,9.39,0,0,1,1.75,3.69,31.2,31.2,0,0,1,.57,7v20.9h-4.71v-20.7a17,17,0,0,0-.64-5.48,5.31,5.31,0,0,0-5.15-3.62,6.58,6.58,0,0,0-5.41,2.53c-1.34,1.69-2,4.59-2,8.69v18.58Z" transform="translate(-324.31 -189.41)"/><path class="cls-1" d="M988.72,1652.3l4.61.83a5.94,5.94,0,0,0,1.92,4.08,6.75,6.75,0,0,0,4.45,1.33,7.62,7.62,0,0,0,4.94-1.48,7.73,7.73,0,0,0,2.52-4.44,43.06,43.06,0,0,0,.41-7.55,11,11,0,0,1-3.45,3.3,8.36,8.36,0,0,1-4.26,1.11,10.1,10.1,0,0,1-8.29-4.22q-3.78-4.86-3.78-13a25.29,25.29,0,0,1,1.67-9.57,13.18,13.18,0,0,1,4.36-6,10.26,10.26,0,0,1,6.07-1.92,8.63,8.63,0,0,1,4.5,1.21,11.2,11.2,0,0,1,3.6,3.62v-4.06h4.35v29.38q0,7.85-1.28,11.19a10.87,10.87,0,0,1-4.19,5.29,12.38,12.38,0,0,1-7,1.93q-5.42,0-8.32-2.91T988.72,1652.3Zm3.9-20.42q0,6.7,2.22,9.79a6.51,6.51,0,0,0,5.42,3.08,6.63,6.63,0,0,0,5.45-3q2.25-3,2.25-9.6c0-4.27-.77-7.46-2.31-9.54a6.8,6.8,0,0,0-5.62-3.13q-2.94,0-5.18,3.13C993.37,1624.67,992.62,1627.77,992.62,1631.88Z" transform="translate(-324.31 -189.41)"/><path class="cls-1" d="M1033.44,1634.38l4.8-.52a14,14,0,0,0,1.75,6,9.73,9.73,0,0,0,3.88,3.47,12.15,12.15,0,0,0,5.7,1.31c3,0,5.39-.74,7.06-2.22a7.31,7.31,0,0,0,2.51-5.76,7,7,0,0,0-.91-3.63,6.86,6.86,0,0,0-2.75-2.54,52.07,52.07,0,0,0-8-2.8,28,28,0,0,1-7.74-3.25,11.37,11.37,0,0,1-3.59-4.14,13.5,13.5,0,0,1,2.4-15q3.69-3.61,9.93-3.62a15.84,15.84,0,0,1,7.5,1.7,12,12,0,0,1,5,4.87,16,16,0,0,1,1.9,7.45l-4.9.45q-.37-4.57-2.73-6.78a9.25,9.25,0,0,0-6.61-2.21q-4.32,0-6.6,1.93a6.29,6.29,0,0,0-2.27,5,5.78,5.78,0,0,0,1.66,4.42c1.11,1,3.61,2.1,7.49,3.18a49,49,0,0,1,8,2.73,12.26,12.26,0,0,1,7.11,11.71,14.61,14.61,0,0,1-1.88,7.34,12.71,12.71,0,0,1-5.14,5,16.52,16.52,0,0,1-7.83,1.73q-7.14,0-11.38-4.29T1033.44,1634.38Z" transform="translate(-324.31 -189.41)"/><path class="cls-1" d="M1080.85,1644.33l.64,5.09a14.09,14.09,0,0,1-3.52.51,7.18,7.18,0,0,1-4-1,5,5,0,0,1-2.07-2.68,26.08,26.08,0,0,1-.56-6.75V1620h-3.45v-4.48h3.45v-8.42l4.71-3.46v11.88h4.77V1620h-4.77v19.88a9.29,9.29,0,0,0,.42,3.55,2.32,2.32,0,0,0,2.27,1.16A12.65,12.65,0,0,0,1080.85,1644.33Z" transform="translate(-324.31 -189.41)"/><path class="cls-1" d="M1103.54,1649.48v-5a12,12,0,0,1-3.84,4.32,8.92,8.92,0,0,1-5,1.44,9,9,0,0,1-5.63-1.77,8.57,8.57,0,0,1-3.13-4.5,28.08,28.08,0,0,1-.78-7.43v-21.06h4.71v18.85a30.07,30.07,0,0,0,.52,7,5.48,5.48,0,0,0,2,2.85,5.28,5.28,0,0,0,3.25,1.07,6.79,6.79,0,0,0,5.57-2.78q1.85-2.4,1.85-8.81v-18.21h4.74v34Z" transform="translate(-324.31 -189.41)"/><path class="cls-1" d="M1133.25,1649.48v-4.28a9.59,9.59,0,0,1-3.3,3.76,7.9,7.9,0,0,1-4.35,1.29q-4.93,0-8.53-4.65t-3.6-13.11a26.63,26.63,0,0,1,1.6-9.83,13.13,13.13,0,0,1,4.26-6,9.83,9.83,0,0,1,5.93-2,8.09,8.09,0,0,1,4.33,1.23,9.85,9.85,0,0,1,3.31,3.44v-16.83h4.77v46.92Zm-15-17q0,6.59,2.29,9.79t5.34,3.21q3,0,5.22-3.08t2.21-9.28q0-7.14-2.21-10.42a6.54,6.54,0,0,0-5.58-3.28q-3,0-5.12,3.15T1118.3,1632.52Z" transform="translate(-324.31 -189.41)"/><path class="cls-1" d="M1164.14,1638.54l4.87.73a14.75,14.75,0,0,1-4.4,8.21,11.6,11.6,0,0,1-7.89,2.77,11.79,11.79,0,0,1-9.59-4.49q-3.66-4.5-3.67-13,0-8.79,3.7-13.42a11.49,11.49,0,0,1,9.36-4.63,11.1,11.1,0,0,1,9,4.55q3.62,4.55,3.62,13.15l0,1.54h-20.81q.29,5.73,2.66,8.64a7.2,7.2,0,0,0,5.76,2.92Q1162.06,1645.52,1164.14,1638.54Zm-15.52-9.32h15.56a13.07,13.07,0,0,0-1.89-6.59,6.88,6.88,0,0,0-11.21-.53A11.6,11.6,0,0,0,1148.62,1629.22Z" transform="translate(-324.31 -189.41)"/><path class="cls-1" d="M1175,1649.48v-34h4.25v4.8a11.12,11.12,0,0,1,3.76-4.19,9.45,9.45,0,0,1,5.09-1.38,9.64,9.64,0,0,1,4.14.88,8.55,8.55,0,0,1,3.07,2.31,9.25,9.25,0,0,1,1.74,3.69,30.48,30.48,0,0,1,.58,7v20.9h-4.71v-20.7a17,17,0,0,0-.64-5.48,5.46,5.46,0,0,0-2-2.67,5.4,5.4,0,0,0-3.15-1,6.58,6.58,0,0,0-5.41,2.53q-2,2.54-2,8.69v18.58Z" transform="translate(-324.31 -189.41)"/><path class="cls-1" d="M1215.39,1644.33l.65,5.09a14.16,14.16,0,0,1-3.53.51,7.23,7.23,0,0,1-4-1,5,5,0,0,1-2.06-2.68,26.08,26.08,0,0,1-.56-6.75V1620h-3.46v-4.48h3.46v-8.42l4.7-3.46v11.88h4.77V1620h-4.77v19.88a9.29,9.29,0,0,0,.42,3.55,2.33,2.33,0,0,0,2.27,1.16A12.54,12.54,0,0,0,1215.39,1644.33Z" transform="translate(-324.31 -189.41)"/><path class="cls-1" d="M1218,1639.31l4.7-.9a8.49,8.49,0,0,0,2.27,5.35,6.88,6.88,0,0,0,4.92,1.76,6.77,6.77,0,0,0,4.74-1.53,5,5,0,0,0,1.68-3.85,3.75,3.75,0,0,0-1.44-3.14,18.21,18.21,0,0,0-4.8-1.92,35,35,0,0,1-7.37-2.88,8.23,8.23,0,0,1-2.88-3.17,9.73,9.73,0,0,1-1-4.51,9.48,9.48,0,0,1,2.78-7.08,10.6,10.6,0,0,1,7.72-2.72,12.53,12.53,0,0,1,5.46,1.12,8.63,8.63,0,0,1,3.6,3,13.13,13.13,0,0,1,1.73,5.41l-4.61.77c-.43-3.72-2.45-5.57-6-5.57a7.2,7.2,0,0,0-4.58,1.22,3.89,3.89,0,0,0-1.5,3.15,3.5,3.5,0,0,0,1.44,3,24.86,24.86,0,0,0,5.13,2,38.48,38.48,0,0,1,7.59,3,7.52,7.52,0,0,1,2.68,3,10.13,10.13,0,0,1,1,4.54,10.53,10.53,0,0,1-3.09,7.89q-3.09,3-8.43,3Q1219.62,1650.25,1218,1639.31Z" transform="translate(-324.31 -189.41)"/><path class="cls-1" d="M721.55,1712.3v-46.93h27.82v5.53H726.64v14.35h21.29v5.53H726.64v16h23.62v5.54Z" transform="translate(-324.31 -189.41)"/><path class="cls-1" d="M756.63,1712.3v-34h4.26v4.8a10.86,10.86,0,0,1,3.76-4.18,9.34,9.34,0,0,1,5.09-1.39,9.7,9.7,0,0,1,4.14.88,8.55,8.55,0,0,1,3.07,2.31,9.31,9.31,0,0,1,1.74,3.69,31.07,31.07,0,0,1,.58,7v20.91h-4.71v-20.71a17,17,0,0,0-.64-5.48,5.46,5.46,0,0,0-2-2.67,5.4,5.4,0,0,0-3.15-1,6.56,6.56,0,0,0-5.41,2.53q-2,2.54-2,8.69v18.59Z" transform="translate(-324.31 -189.41)"/><path class="cls-1" d="M785.6,1715.11l4.61.83a6,6,0,0,0,1.92,4.08,6.75,6.75,0,0,0,4.45,1.33,6.87,6.87,0,0,0,7.46-5.92,41.71,41.71,0,0,0,.42-7.55,11.09,11.09,0,0,1-3.46,3.3,8.36,8.36,0,0,1-4.26,1.12,10.11,10.11,0,0,1-8.29-4.23q-3.78-4.86-3.77-13a25.3,25.3,0,0,1,1.66-9.57,13.27,13.27,0,0,1,4.37-6,10.24,10.24,0,0,1,6.07-1.92,8.57,8.57,0,0,1,4.49,1.21,11,11,0,0,1,3.6,3.62v-4.06h4.36v29.39q0,7.83-1.28,11.18a10.89,10.89,0,0,1-4.2,5.29,12.35,12.35,0,0,1-7,1.93c-3.6,0-6.38-1-8.32-2.91S785.54,1718.55,785.6,1715.11Zm3.91-20.42q0,6.7,2.21,9.79a6.54,6.54,0,0,0,5.42,3.08,6.65,6.65,0,0,0,5.46-3q2.24-3,2.24-9.6c0-4.27-.77-7.46-2.31-9.54a6.8,6.8,0,0,0-5.61-3.13c-2,0-3.69,1-5.18,3.13S789.51,1690.58,789.51,1694.69Z" transform="translate(-324.31 -189.41)"/><path class="cls-1" d="M834.58,1708.1a17.83,17.83,0,0,1-4.93,3.72,12,12,0,0,1-5.31,1.24,9.33,9.33,0,0,1-7-2.62,9.63,9.63,0,0,1-2.59-7.08,10.75,10.75,0,0,1,1.22-5.21,9.12,9.12,0,0,1,3.32-3.56,17.69,17.69,0,0,1,6.41-1.89,35.64,35.64,0,0,0,8.45-2l0-1.48q0-3.48-1.25-4.89c-1.17-1.37-3-2-5.41-2a7.49,7.49,0,0,0-4.93,1.37q-1.64,1.36-2.4,5.13l-4.64-.77q1-5.48,4-8t8.66-2.5a12.39,12.39,0,0,1,6.88,1.65,7.13,7.13,0,0,1,3.15,4.08,28.89,28.89,0,0,1,.66,7.11v7.68a99.12,99.12,0,0,0,.3,10.16,15.08,15.08,0,0,0,1.2,4.09h-4.93A14.43,14.43,0,0,1,834.58,1708.1Zm-.38-12.87a29.73,29.73,0,0,1-7.72,2.18,14.4,14.4,0,0,0-4.16,1.17,4.61,4.61,0,0,0-1.84,1.85,5.7,5.7,0,0,0-.66,2.77,5.17,5.17,0,0,0,1.51,3.89,5.73,5.73,0,0,0,4.16,1.46,8.39,8.39,0,0,0,4.59-1.31,8.19,8.19,0,0,0,3.09-3.51,15.46,15.46,0,0,0,1-6.38Z" transform="translate(-324.31 -189.41)"/><path class="cls-1" d="M845.4,1715.11l4.61.83a5.94,5.94,0,0,0,1.92,4.08,6.75,6.75,0,0,0,4.45,1.33,6.87,6.87,0,0,0,7.46-5.92,41.71,41.71,0,0,0,.42-7.55,11.09,11.09,0,0,1-3.46,3.3,8.36,8.36,0,0,1-4.26,1.12,10.11,10.11,0,0,1-8.29-4.23q-3.78-4.86-3.78-13a25.29,25.29,0,0,1,1.67-9.57,13.2,13.2,0,0,1,4.37-6,10.21,10.21,0,0,1,6.06-1.92,8.58,8.58,0,0,1,4.5,1.21,11,11,0,0,1,3.6,3.62v-4.06H869v29.39q0,7.83-1.28,11.18a11,11,0,0,1-4.2,5.29,12.38,12.38,0,0,1-7,1.93c-3.6,0-6.38-1-8.32-2.91S845.34,1718.55,845.4,1715.11Zm3.91-20.42q0,6.7,2.21,9.79a6.52,6.52,0,0,0,5.42,3.08,6.62,6.62,0,0,0,5.45-3q2.25-3,2.25-9.6c0-4.27-.77-7.46-2.31-9.54a6.8,6.8,0,0,0-5.61-3.13q-3,0-5.18,3.13T849.31,1694.69Z" transform="translate(-324.31 -189.41)"/><path class="cls-1" d="M876.23,1672v-6.62h4.7V1672Zm0,40.31v-34h4.7v34Z" transform="translate(-324.31 -189.41)"/><path class="cls-1" d="M888.17,1712.3v-34h4.26v4.8a10.91,10.91,0,0,1,3.75-4.18,9.38,9.38,0,0,1,5.1-1.39,9.7,9.7,0,0,1,4.14.88,8.51,8.51,0,0,1,3.06,2.31,9.46,9.46,0,0,1,1.75,3.69,31.2,31.2,0,0,1,.57,7v20.91h-4.7v-20.71a17.3,17.3,0,0,0-.64-5.48,5.52,5.52,0,0,0-2-2.67,5.41,5.41,0,0,0-3.16-1,6.59,6.59,0,0,0-5.41,2.53c-1.34,1.69-2,4.59-2,8.69v18.59Z" transform="translate(-324.31 -189.41)"/><path class="cls-1" d="M917.14,1715.11l4.61.83a5.94,5.94,0,0,0,1.92,4.08,6.75,6.75,0,0,0,4.45,1.33,6.87,6.87,0,0,0,7.46-5.92,41.71,41.71,0,0,0,.42-7.55,11.09,11.09,0,0,1-3.46,3.3,8.36,8.36,0,0,1-4.26,1.12,10.11,10.11,0,0,1-8.29-4.23q-3.78-4.86-3.78-13a25.29,25.29,0,0,1,1.67-9.57,13.2,13.2,0,0,1,4.37-6,10.21,10.21,0,0,1,6.06-1.92,8.6,8.6,0,0,1,4.5,1.21,11,11,0,0,1,3.6,3.62v-4.06h4.36v29.39q0,7.83-1.29,11.18a10.87,10.87,0,0,1-4.19,5.29,12.38,12.38,0,0,1-7,1.93q-5.41,0-8.32-2.91T917.14,1715.11Zm3.91-20.42q0,6.7,2.21,9.79a6.51,6.51,0,0,0,5.42,3.08,6.62,6.62,0,0,0,5.45-3q2.25-3,2.25-9.6c0-4.27-.77-7.46-2.31-9.54a6.8,6.8,0,0,0-5.61-3.13q-3,0-5.18,3.13T921.05,1694.69Z" transform="translate(-324.31 -189.41)"/><path class="cls-1" d="M963.56,1712.3v-46.93h14.5a23.4,23.4,0,0,1,7.55.89,10.23,10.23,0,0,1,5.32,4.52,15.42,15.42,0,0,1,2,8.09,15.94,15.94,0,0,1-3.23,10.34q-3.24,4-11.17,4h-9.86v19.08Zm5.09-24.62h10c3.14,0,5.43-.71,6.89-2.13s2.17-3.56,2.17-6.42a9.94,9.94,0,0,0-1.07-4.77,6.12,6.12,0,0,0-2.59-2.72,14.08,14.08,0,0,0-5.49-.74h-9.86Z" transform="translate(-324.31 -189.41)"/><path class="cls-1" d="M1016.92,1708.1a17.83,17.83,0,0,1-4.93,3.72,12,12,0,0,1-5.31,1.24,9.32,9.32,0,0,1-6.95-2.62,9.63,9.63,0,0,1-2.59-7.08,10.86,10.86,0,0,1,1.21-5.21,9.08,9.08,0,0,1,3.33-3.56,17.69,17.69,0,0,1,6.41-1.89,35.77,35.77,0,0,0,8.45-2l0-1.48q0-3.48-1.25-4.89c-1.17-1.37-3-2-5.41-2a7.49,7.49,0,0,0-4.93,1.37q-1.63,1.36-2.4,5.13l-4.64-.77q1-5.48,4-8c2-1.67,4.9-2.5,8.65-2.5a12.41,12.41,0,0,1,6.89,1.65,7.13,7.13,0,0,1,3.15,4.08,28.89,28.89,0,0,1,.66,7.11v7.68a99.12,99.12,0,0,0,.3,10.16,15.08,15.08,0,0,0,1.2,4.09h-4.93A14.43,14.43,0,0,1,1016.92,1708.1Zm-.38-12.87a29.73,29.73,0,0,1-7.72,2.18,14.4,14.4,0,0,0-4.16,1.17,4.61,4.61,0,0,0-1.84,1.85,5.7,5.7,0,0,0-.66,2.77,5.13,5.13,0,0,0,1.51,3.89,5.73,5.73,0,0,0,4.16,1.46,8.39,8.39,0,0,0,4.59-1.31,8.19,8.19,0,0,0,3.09-3.51,15.46,15.46,0,0,0,1-6.38Z" transform="translate(-324.31 -189.41)"/><path class="cls-1" d="M1028.67,1712.3v-34h4.26v5.15a14.46,14.46,0,0,1,3-4.75,4.58,4.58,0,0,1,3.06-1.17,8,8,0,0,1,4.83,1.86l-1.6,5.34a6,6,0,0,0-3.42-1.25,4.19,4.19,0,0,0-2.76,1.06,5.72,5.72,0,0,0-1.76,3,26.45,26.45,0,0,0-.9,7v17.8Z" transform="translate(-324.31 -189.41)"/><path class="cls-1" d="M1065.61,1701.35l4.87.73a14.75,14.75,0,0,1-4.4,8.21,11.61,11.61,0,0,1-7.9,2.77,11.78,11.78,0,0,1-9.58-4.49q-3.67-4.5-3.67-13,0-8.8,3.7-13.43a11.46,11.46,0,0,1,9.36-4.63,11.1,11.1,0,0,1,9,4.55q3.62,4.55,3.62,13.15l0,1.54h-20.8q.29,5.73,2.65,8.64a7.2,7.2,0,0,0,5.77,2.92Q1063.53,1708.33,1065.61,1701.35Zm-15.52-9.32h15.55a12.87,12.87,0,0,0-1.89-6.59,6.87,6.87,0,0,0-11.2-.53A11.53,11.53,0,0,0,1050.09,1692Z" transform="translate(-324.31 -189.41)"/><path class="cls-1" d="M1076.46,1712.3v-34h4.26v4.8a10.93,10.93,0,0,1,3.76-4.18,9.37,9.37,0,0,1,5.09-1.39,9.7,9.7,0,0,1,4.14.88,8.55,8.55,0,0,1,3.07,2.31,9.31,9.31,0,0,1,1.74,3.69,31.07,31.07,0,0,1,.58,7v20.91h-4.71v-20.71a17,17,0,0,0-.64-5.48,5.46,5.46,0,0,0-2-2.67,5.4,5.4,0,0,0-3.15-1,6.56,6.56,0,0,0-5.41,2.53q-2,2.54-2,8.69v18.59Z" transform="translate(-324.31 -189.41)"/><path class="cls-1" d="M1116.86,1707.14l.64,5.09a14,14,0,0,1-3.52.51,7.2,7.2,0,0,1-4-1,4.92,4.92,0,0,1-2.06-2.68,25.63,25.63,0,0,1-.56-6.75v-19.56h-3.46v-4.48h3.46v-8.42l4.7-3.46v11.88h4.77v4.48h-4.77v19.88a9.26,9.26,0,0,0,.42,3.55,2.32,2.32,0,0,0,2.27,1.16A12.65,12.65,0,0,0,1116.86,1707.14Z" transform="translate(-324.31 -189.41)"/><path class="cls-1" d="M1119.49,1702.12l4.7-.9a8.49,8.49,0,0,0,2.27,5.35,7.94,7.94,0,0,0,9.66.24,5,5,0,0,0,1.68-3.86,3.75,3.75,0,0,0-1.44-3.14,18.37,18.37,0,0,0-4.8-1.92,34.76,34.76,0,0,1-7.37-2.88,8.08,8.08,0,0,1-2.88-3.17,9.73,9.73,0,0,1-1-4.51,9.48,9.48,0,0,1,2.78-7.08,10.6,10.6,0,0,1,7.72-2.72,12.53,12.53,0,0,1,5.46,1.12,8.75,8.75,0,0,1,3.6,3,13.28,13.28,0,0,1,1.73,5.41l-4.61.77c-.43-3.72-2.45-5.57-6.06-5.57a7.12,7.12,0,0,0-4.57,1.23,3.84,3.84,0,0,0-1.51,3.14,3.49,3.49,0,0,0,1.45,3,24.34,24.34,0,0,0,5.13,2,38.48,38.48,0,0,1,7.59,3,7.5,7.5,0,0,1,2.67,3,10,10,0,0,1,1,4.54,10.53,10.53,0,0,1-3.09,7.89q-3.09,3-8.43,3Q1121.09,1713.06,1119.49,1702.12Z" transform="translate(-324.31 -189.41)"/><path class="cls-1" d="M731.31,1775.1v-41.39H718.64v-5.54h30.5v5.54H736.4v41.39Z" transform="translate(-324.31 -189.41)"/><path class="cls-1" d="M751.72,1775.1v-34H756v5.15a14.63,14.63,0,0,1,3-4.75,4.58,4.58,0,0,1,3.06-1.17,8.08,8.08,0,0,1,4.83,1.85l-1.6,5.35a5.94,5.94,0,0,0-3.42-1.25,4.12,4.12,0,0,0-2.75,1.06,5.66,5.66,0,0,0-1.77,2.94,27,27,0,0,0-.89,7v17.8Z" transform="translate(-324.31 -189.41)"/><path class="cls-1" d="M787.77,1770.91a17.59,17.59,0,0,1-4.93,3.71,12,12,0,0,1-5.32,1.25,9.31,9.31,0,0,1-6.94-2.62,9.63,9.63,0,0,1-2.6-7.08,10.93,10.93,0,0,1,1.22-5.22,9,9,0,0,1,3.33-3.55,17.63,17.63,0,0,1,6.4-1.89,35.55,35.55,0,0,0,8.45-2l0-1.47c0-2.32-.42-4-1.25-4.9q-1.77-2-5.41-2a7.55,7.55,0,0,0-4.93,1.36q-1.64,1.36-2.4,5.13l-4.65-.76q1-5.47,4-8t8.66-2.49a12.35,12.35,0,0,1,6.88,1.65,7.1,7.1,0,0,1,3.16,4.08,29.46,29.46,0,0,1,.65,7.1v7.69a95.24,95.24,0,0,0,.31,10.16,14.91,14.91,0,0,0,1.2,4.08h-4.93A14.28,14.28,0,0,1,787.77,1770.91Zm-.39-12.87a30,30,0,0,1-7.71,2.18,14.7,14.7,0,0,0-4.16,1.16,4.58,4.58,0,0,0-1.84,1.86A5.67,5.67,0,0,0,773,1766a5.14,5.14,0,0,0,1.51,3.89,5.72,5.72,0,0,0,4.16,1.46,8.36,8.36,0,0,0,4.59-1.32,8.11,8.11,0,0,0,3.09-3.5,15.67,15.67,0,0,0,1-6.39Z" transform="translate(-324.31 -189.41)"/><path class="cls-1" d="M799.52,1775.1v-34h4.25v4.8a11.12,11.12,0,0,1,3.76-4.19,9.46,9.46,0,0,1,5.1-1.38,9.62,9.62,0,0,1,4.13.88,8.42,8.42,0,0,1,3.07,2.3,9.29,9.29,0,0,1,1.74,3.7,30.48,30.48,0,0,1,.58,7v20.9h-4.71v-20.7a17,17,0,0,0-.64-5.48,5.27,5.27,0,0,0-5.15-3.62,6.55,6.55,0,0,0-5.41,2.53c-1.35,1.69-2,4.58-2,8.69v18.58Z" transform="translate(-324.31 -189.41)"/><path class="cls-1" d="M827.59,1764.92l4.71-.89a8.43,8.43,0,0,0,2.26,5.35,6.87,6.87,0,0,0,4.92,1.75,6.8,6.8,0,0,0,4.75-1.52,5,5,0,0,0,1.67-3.86,3.73,3.73,0,0,0-1.44-3.13,17.85,17.85,0,0,0-4.8-1.92,34.61,34.61,0,0,1-7.36-2.88,8.08,8.08,0,0,1-2.88-3.17,9.65,9.65,0,0,1-1-4.52,9.43,9.43,0,0,1,2.79-7.07c1.85-1.82,4.42-2.72,7.71-2.72a12.53,12.53,0,0,1,5.46,1.12,8.55,8.55,0,0,1,3.6,3,13.13,13.13,0,0,1,1.73,5.41l-4.61.76c-.43-3.71-2.44-5.56-6.05-5.56a7.14,7.14,0,0,0-4.58,1.22,3.89,3.89,0,0,0-1.5,3.14,3.51,3.51,0,0,0,1.44,3,26.15,26.15,0,0,0,5.13,2,38.48,38.48,0,0,1,7.59,3,7.45,7.45,0,0,1,2.68,3,10,10,0,0,1,1,4.54,10.53,10.53,0,0,1-3.09,7.89c-2.06,2-4.88,3-8.44,3Q829.19,1775.87,827.59,1764.92Z" transform="translate(-324.31 -189.41)"/><path class="cls-1" d="M857.62,1775.1v-29.51h-4.2v-4.48h4.2v-3.62a16.53,16.53,0,0,1,.83-6,6.34,6.34,0,0,1,2.55-3.06,8.09,8.09,0,0,1,4.32-1.06,18.49,18.49,0,0,1,4.43.61l-.7,5a13.43,13.43,0,0,0-2.79-.32,3.68,3.68,0,0,0-3,1.11c-.61.73-.92,2.14-.92,4.21v3.14h5.45v4.48h-5.45v29.51Z" transform="translate(-324.31 -189.41)"/><path class="cls-1" d="M869.46,1758.1q0-8.8,3.7-13.28a12,12,0,0,1,18.68,0q3.75,4.48,3.74,12.93,0,9.16-3.68,13.64a12,12,0,0,1-18.71,0Q869.47,1766.87,869.46,1758.1Zm4.84,0q0,6.6,2.4,9.82a7.17,7.17,0,0,0,5.95,3.22,7,7,0,0,0,5.72-3.25q2.37-3.26,2.38-9.79t-2.4-9.79a7.19,7.19,0,0,0-6-3.22,6.93,6.93,0,0,0-5.73,3.23Q874.31,1751.55,874.3,1758.09Z" transform="translate(-324.31 -189.41)"/><path class="cls-1" d="M901.15,1775.1v-34h4.26v5.15a14.63,14.63,0,0,1,3-4.75,4.58,4.58,0,0,1,3.06-1.17,8.13,8.13,0,0,1,4.84,1.85l-1.61,5.35a5.94,5.94,0,0,0-3.42-1.25,4.13,4.13,0,0,0-2.75,1.06,5.58,5.58,0,0,0-1.76,2.94,26.56,26.56,0,0,0-.9,7v17.8Z" transform="translate(-324.31 -189.41)"/><path class="cls-1" d="M919.08,1775.1v-34h4.23v4.73a10.64,10.64,0,0,1,3.61-4.07,8.64,8.64,0,0,1,4.82-1.43,8.06,8.06,0,0,1,5,1.51,8.16,8.16,0,0,1,2.89,4.41,13.11,13.11,0,0,1,3.84-4.44,8.33,8.33,0,0,1,4.81-1.48,7.84,7.84,0,0,1,6.32,2.72q2.32,2.71,2.32,8.71v23.33h-4.71v-21.44a17.64,17.64,0,0,0-.53-5.17,4.55,4.55,0,0,0-4.39-3.19,6.09,6.09,0,0,0-5,2.42q-1.93,2.41-1.93,7.61v19.77h-4.71V1753q0-4.23-1.3-6a4.21,4.21,0,0,0-3.57-1.73,6,6,0,0,0-5.1,2.61q-1.87,2.61-1.87,9.53v17.66Z" transform="translate(-324.31 -189.41)"/><path class="cls-1" d="M963.83,1734.8v-6.63h4.71v6.63Zm0,40.3v-34h4.71v34Z" transform="translate(-324.31 -189.41)"/><path class="cls-1" d="M975.77,1775.1v-34H980v4.8a11,11,0,0,1,3.76-4.19,9.45,9.45,0,0,1,5.09-1.38,9.7,9.7,0,0,1,4.14.88,8.42,8.42,0,0,1,3.07,2.3,9.29,9.29,0,0,1,1.74,3.7,31.07,31.07,0,0,1,.58,7v20.9H993.7v-20.7a17,17,0,0,0-.64-5.48,5.48,5.48,0,0,0-2-2.68,5.39,5.39,0,0,0-3.15-.94,6.54,6.54,0,0,0-5.41,2.53c-1.35,1.69-2,4.58-2,8.69v18.58Z" transform="translate(-324.31 -189.41)"/><path class="cls-1" d="M1004.74,1777.92l4.61.83a6,6,0,0,0,1.92,4.07,6.7,6.7,0,0,0,4.45,1.34,6.89,6.89,0,0,0,7.46-5.92,41.93,41.93,0,0,0,.42-7.56,11.13,11.13,0,0,1-3.46,3.31,8.36,8.36,0,0,1-4.26,1.11,10.14,10.14,0,0,1-8.29-4.22q-3.78-4.87-3.77-13a25.3,25.3,0,0,1,1.66-9.57,13.21,13.21,0,0,1,4.37-6,10.24,10.24,0,0,1,6.07-1.92,8.57,8.57,0,0,1,4.49,1.21,11.13,11.13,0,0,1,3.61,3.62v-4.06h4.35v29.38q0,7.85-1.28,11.19a10.82,10.82,0,0,1-4.2,5.28,12.36,12.36,0,0,1-7,1.94c-3.6,0-6.38-1-8.32-2.91S1004.68,1781.35,1004.74,1777.92Zm3.91-20.43q0,6.72,2.21,9.79a6.51,6.51,0,0,0,5.42,3.08,6.64,6.64,0,0,0,5.46-3q2.24-3,2.24-9.6,0-6.42-2.31-9.55a6.81,6.81,0,0,0-5.61-3.12c-2,0-3.69,1-5.18,3.12S1008.65,1753.39,1008.65,1757.49Z" transform="translate(-324.31 -189.41)"/><path class="cls-1" d="M1078.5,1758.65l5.12,1.57q-1.69,7.9-5.94,11.79a14.69,14.69,0,0,1-10.32,3.89,15.72,15.72,0,0,1-9.14-2.61q-3.79-2.61-6.21-8.37a35.15,35.15,0,0,1-2.42-13.62,31.89,31.89,0,0,1,2.42-13.12,18.6,18.6,0,0,1,6.55-8.1,16.34,16.34,0,0,1,9.23-2.74,14.15,14.15,0,0,1,9.58,3.47q4,3.46,5.61,10.17l-5,1.44q-2.57-9.76-10.29-9.77a11.37,11.37,0,0,0-6.67,2,13.3,13.3,0,0,0-4.5,6.14,28.2,28.2,0,0,0-1.69,10.54q0,9.65,3.4,14.47a10.53,10.53,0,0,0,9,4.82,9.94,9.94,0,0,0,7.19-3Q1077.48,1764.66,1078.5,1758.65Z" transform="translate(-324.31 -189.41)"/><path class="cls-1" d="M1087.53,1758.1q0-8.8,3.69-13.28a12,12,0,0,1,18.68,0q3.75,4.48,3.75,12.93,0,9.16-3.68,13.64a12,12,0,0,1-18.71,0Q1087.53,1766.87,1087.53,1758.1Zm4.83,0q0,6.6,2.4,9.82a7.19,7.19,0,0,0,6,3.22,6.94,6.94,0,0,0,5.71-3.25q2.38-3.26,2.38-9.79t-2.4-9.79a7.17,7.17,0,0,0-6-3.22,6.93,6.93,0,0,0-5.73,3.23Q1092.36,1751.55,1092.36,1758.09Z" transform="translate(-324.31 -189.41)"/><path class="cls-1" d="M1119.25,1775.1v-34h4.23v4.73a10.64,10.64,0,0,1,3.61-4.07,8.64,8.64,0,0,1,4.82-1.43,8.06,8.06,0,0,1,5,1.51,8.16,8.16,0,0,1,2.89,4.41,13.11,13.11,0,0,1,3.84-4.44,8.33,8.33,0,0,1,4.81-1.48,7.84,7.84,0,0,1,6.32,2.72q2.33,2.71,2.32,8.71v23.33h-4.71v-21.44a17.64,17.64,0,0,0-.53-5.17,4.55,4.55,0,0,0-4.39-3.19,6.09,6.09,0,0,0-5,2.42q-1.93,2.41-1.93,7.61v19.77h-4.71V1753q0-4.23-1.3-6a4.21,4.21,0,0,0-3.57-1.73,6,6,0,0,0-5.1,2.61q-1.87,2.61-1.87,9.53v17.66Z" transform="translate(-324.31 -189.41)"/><path class="cls-1" d="M1164,1775.1v-34h4.22v4.73a10.73,10.73,0,0,1,3.61-4.07,8.65,8.65,0,0,1,4.83-1.43,8.09,8.09,0,0,1,5,1.51,8.27,8.27,0,0,1,2.89,4.41,12.9,12.9,0,0,1,3.84-4.44,8.28,8.28,0,0,1,4.8-1.48,7.84,7.84,0,0,1,6.33,2.72q2.31,2.71,2.31,8.71v23.33h-4.71v-21.44a17.3,17.3,0,0,0-.53-5.17,4.55,4.55,0,0,0-4.39-3.19,6.11,6.11,0,0,0-5,2.42q-1.93,2.41-1.93,7.61v19.77h-4.71V1753q0-4.23-1.29-6a4.24,4.24,0,0,0-3.57-1.73,6,6,0,0,0-5.11,2.61q-1.87,2.61-1.87,9.53v17.66Z" transform="translate(-324.31 -189.41)"/><path class="cls-1" d="M1227,1775.1v-5a12.12,12.12,0,0,1-3.84,4.32,8.92,8.92,0,0,1-5,1.44,9,9,0,0,1-5.64-1.78,8.55,8.55,0,0,1-3.12-4.49,28.08,28.08,0,0,1-.78-7.43v-21.06h4.71V1760a30.12,30.12,0,0,0,.52,7,5.48,5.48,0,0,0,2,2.85,5.26,5.26,0,0,0,3.24,1.07,6.75,6.75,0,0,0,5.57-2.79q1.86-2.4,1.86-8.8v-18.21h4.74v34Z" transform="translate(-324.31 -189.41)"/><path class="cls-1" d="M1238.69,1775.1v-34h4.25v4.8a11.12,11.12,0,0,1,3.76-4.19,9.46,9.46,0,0,1,5.1-1.38,9.62,9.62,0,0,1,4.13.88,8.42,8.42,0,0,1,3.07,2.3,9.29,9.29,0,0,1,1.74,3.7,30.48,30.48,0,0,1,.58,7v20.9h-4.71v-20.7a17,17,0,0,0-.64-5.48,5.27,5.27,0,0,0-5.15-3.62,6.55,6.55,0,0,0-5.41,2.53c-1.35,1.69-2,4.58-2,8.69v18.58Z" transform="translate(-324.31 -189.41)"/><path class="cls-1" d="M1268.59,1734.8v-6.63h4.7v6.63Zm0,40.3v-34h4.7v34Z" transform="translate(-324.31 -189.41)"/><path class="cls-1" d="M1291,1770l.64,5.09a14.15,14.15,0,0,1-3.52.51,7.18,7.18,0,0,1-4-1,4.91,4.91,0,0,1-2.07-2.67,26.08,26.08,0,0,1-.56-6.75v-19.56h-3.46v-4.48h3.46v-8.42l4.71-3.46v11.88H1291v4.48h-4.77v19.88a9.58,9.58,0,0,0,.41,3.55,2.34,2.34,0,0,0,2.28,1.15A12.57,12.57,0,0,0,1291,1770Z" transform="translate(-324.31 -189.41)"/><path class="cls-1" d="M1295.48,1734.8v-6.63h4.7v6.63Zm0,40.3v-34h4.7v34Z" transform="translate(-324.31 -189.41)"/><path class="cls-1" d="M1326.46,1764.15l4.87.74a14.75,14.75,0,0,1-4.4,8.21,11.6,11.6,0,0,1-7.89,2.77,11.77,11.77,0,0,1-9.59-4.5q-3.67-4.5-3.67-13,0-8.81,3.7-13.43a11.51,11.51,0,0,1,9.36-4.62,11.09,11.09,0,0,1,9,4.54q3.62,4.55,3.62,13.16l0,1.54h-20.81q.28,5.73,2.66,8.64a7.19,7.19,0,0,0,5.76,2.91Q1324.38,1771.13,1326.46,1764.15Zm-15.52-9.31h15.56a13.11,13.11,0,0,0-1.89-6.6,6.88,6.88,0,0,0-11.21-.52A11.6,11.6,0,0,0,1310.94,1754.84Z" transform="translate(-324.31 -189.41)"/><path class="cls-1" d="M1335.49,1764.92l4.71-.89a8.43,8.43,0,0,0,2.26,5.35,6.87,6.87,0,0,0,4.92,1.75,6.77,6.77,0,0,0,4.74-1.52,5,5,0,0,0,1.68-3.86,3.73,3.73,0,0,0-1.44-3.13,17.85,17.85,0,0,0-4.8-1.92,34.61,34.61,0,0,1-7.36-2.88,8.18,8.18,0,0,1-2.89-3.17,9.77,9.77,0,0,1-1-4.52,9.43,9.43,0,0,1,2.79-7.07c1.85-1.82,4.42-2.72,7.71-2.72a12.53,12.53,0,0,1,5.46,1.12,8.55,8.55,0,0,1,3.6,3,13.13,13.13,0,0,1,1.73,5.41l-4.61.76q-.65-5.57-6-5.56a7.14,7.14,0,0,0-4.58,1.22,3.89,3.89,0,0,0-1.5,3.14,3.51,3.51,0,0,0,1.44,3,26.15,26.15,0,0,0,5.13,2,38.48,38.48,0,0,1,7.59,3,7.45,7.45,0,0,1,2.68,3,10,10,0,0,1,1,4.54,10.53,10.53,0,0,1-3.09,7.89c-2,2-4.87,3-8.43,3Q1337.09,1775.87,1335.49,1764.92Z" transform="translate(-324.31 -189.41)"/><path class="cls-1" d="M387,1760.71l-.23.16h.14l.09-.16" transform="translate(-324.31 -189.41)"/><path class="cls-1" d="M508.52,1764.08c-1.11-.19-2.52-.37-4.19-.56,1.39.18,2.8.36,4.19.56" transform="translate(-324.31 -189.41)"/><path class="cls-1" d="M512.33,1764l-3.81,0q-3.94-.07-7.87-.21l-56.59-1.49c-1.78,0-3.57-.06-5.35-.05l-7.75.05c-5.16.07-10.32.13-15.48.33s-10.31.46-15.47.78-10.31.81-15.38,1.68l-.57.09.28-.46,2.41-3.93-8.11,5.6-7.12,4.92v3.41l132.29-7.29h2.34a4.18,4.18,0,0,0,2.14,2.09l3.69-.16.49,0c-.15-1.8-.15-3.6-.14-5.43" transform="translate(-324.31 -189.41)"/><path class="cls-1" d="M512.45,1764l3.8,0c2.63,0,5.25-.12,7.88-.21l56.59-1.49c1.78,0,3.56-.06,5.34-.05l7.75.05c5.16.07,10.33.13,15.49.33s10.31.46,15.46.78,10.31.81,15.39,1.68l.57.09-.29-.46-2.4-3.93,8.1,5.6,7.13,4.92v3.41L521,1767.51h-2.33a4.18,4.18,0,0,1-2.14,2.09l-3.69-.16-.5,0c.15-1.8.16-3.6.15-5.43" transform="translate(-324.31 -189.41)"/><path class="cls-1" d="M511.25,1764.81a.2.2,0,0,1,.07.11l-.07-.11" transform="translate(-324.31 -189.41)"/><path class="cls-1" d="M511.32,1764.92a.23.23,0,0,1,.06-.12l-.06.12" transform="translate(-324.31 -189.41)"/><path class="cls-1" d="M511.32,1764.92s0-.07-.06-.11a.3.3,0,0,0,.06.11" transform="translate(-324.31 -189.41)"/><path class="cls-1" d="M511.39,1764.8a.15.15,0,0,0-.07.12.75.75,0,0,1,.07-.12" transform="translate(-324.31 -189.41)"/><path class="cls-2" d="M425.63,1739.37a153.72,153.72,0,0,1,31.23-1.18c10.42.76,20.89,2.8,30.55,7a59.72,59.72,0,0,1,13.48,8.11l.72.61-.46-.43c-41.31-35.46-96.07-25.74-101.21-25.53,5.07-.89,65-20.32,106.8,30.07-5.2-17-8.25-30.84-13.81-45.73-46.16-27.25-84.79-8.9-86.06-7.52l-24,28S394,1729,399.94,1728l-15.26,20.5s4-1,10.59-2.22a143.67,143.67,0,0,1,15-4.15c5.07-1.12,10.19-2,15.35-2.74" transform="translate(-324.31 -189.41)"/><path class="cls-2" d="M507.06,1759.45c-39-28.9-106.71-14.23-111.79-13.19L387,1760.71l-.09.16h-.14l-.64,1.35-1.09,2.32c2.35-.63,4.74-1,7.11-1.55a270.22,270.22,0,0,1,112.2.53c1.66.19,3.08.37,4.19.56Z" transform="translate(-324.31 -189.41)"/><path class="cls-2" d="M599.05,1739.37a153.72,153.72,0,0,0-31.23-1.18c-10.42.76-20.89,2.8-30.55,7a59.35,59.35,0,0,0-13.48,8.11l-.72.61.46-.43c41.31-35.46,96.07-25.74,101.2-25.53-5.07-.89-65-20.32-106.79,30.07,5.2-17,8.25-30.84,13.81-45.73,46.16-27.25,84.79-8.9,86.06-7.52l24,28s-11.19-3.84-17.1-4.84l15.27,20.5s-4-1-10.6-2.22a143.49,143.49,0,0,0-15-4.15c-5.07-1.12-10.19-2-15.35-2.74" transform="translate(-324.31 -189.41)"/><path class="cls-2" d="M517.62,1759.45c39-28.9,106.71-14.23,111.78-13.19l8.3,14.45.09.16h.14l.64,1.35,1.09,2.32c-2.36-.63-4.74-1-7.11-1.55a270.22,270.22,0,0,0-112.2.53c-1.67.19-3.08.38-4.2.56Z" transform="translate(-324.31 -189.41)"/><path class="cls-3" d="M544.5,1598a49.28,49.28,0,0,1,18.36,3,69.49,69.49,0,0,1,12.32,6.31,92.29,92.29,0,0,1,17.33,14.06,107.22,107.22,0,0,1,12.07,15.11c.72,1.08.68,1.2-.65,1.73a102.55,102.55,0,0,1-19,5.52,86.1,86.1,0,0,1-19.42,1.62c-7.07-.27-14.09-1-20.8-3.53a53.92,53.92,0,0,1-13.23-7.36c-8-5.94-14.18-13.46-19.54-21.73-.94-1.45-1.83-2.93-2.69-4.42-.61-1-.57-1.12.48-1.64,2.39-1.19,4.86-2.22,7.36-3.17a87.86,87.86,0,0,1,17.52-4.77,46.45,46.45,0,0,1,9.94-.78" transform="translate(-324.31 -189.41)"/><path class="cls-3" d="M367.72,1611.11a70,70,0,0,1,6.38-6.82,91,91,0,0,1,24.79-17.06,61.19,61.19,0,0,1,16.95-5.4,50.22,50.22,0,0,1,15.62.37c10.49,1.83,20,6.14,28.89,11.74,2.46,1.54,2.4,1.53.53,3.85a94.55,94.55,0,0,1-10.42,11c-6.69,6-14.13,10.84-22.8,13.5a42.14,42.14,0,0,1-11.32,1.91,84.39,84.39,0,0,1-16.8-1.07,92.72,92.72,0,0,1-16.55-4.52,96.32,96.32,0,0,1-13.33-6.16,6,6,0,0,1-1.94-1.37" transform="translate(-324.31 -189.41)"/><path class="cls-3" d="M400.55,1524.18a86.38,86.38,0,0,1,29.06,4.51c7,2.38,13.64,5.43,19.24,10.46a57.63,57.63,0,0,1,10.3,12.42,85.73,85.73,0,0,1,10,23.76,4.64,4.64,0,0,1,.17.64c.18,1.08.11,1.26-1,1.44-2.19.36-4.39.71-6.6.95a90.27,90.27,0,0,1-12.84.36,60.25,60.25,0,0,1-22.06-4.78,49.31,49.31,0,0,1-14.47-10A85.12,85.12,0,0,1,398.23,1546a97.32,97.32,0,0,1-9-19.91c-.33-1-.24-1.22.94-1.39a60.34,60.34,0,0,1,7.83-.53h2.51" transform="translate(-324.31 -189.41)"/><path class="cls-3" d="M614.76,1575.42c5.64-.09,11.22,1.37,16.74,3.18A85.51,85.51,0,0,1,655,1591a88.91,88.91,0,0,1,10.13,8.68c.92.91.91,1-.13,1.74a91.23,91.23,0,0,1-18.65,9.62,88.63,88.63,0,0,1-18,4.74,49.7,49.7,0,0,1-33.46-6.07,88.55,88.55,0,0,1-20.39-16.57c-.08-.09-.16-.16-.23-.25-.86-1-.87-1.21.18-2,1.89-1.37,3.77-2.77,5.74-4a77.27,77.27,0,0,1,18.92-9,51.23,51.23,0,0,1,15.67-2.45" transform="translate(-324.31 -189.41)"/><path class="cls-3" d="M480,1493.56c0,2.71.21,2.71-1.91,2.54-32.17-2.65-54.59-27-57.6-58.63-.07-.83-.22-1.66-.25-2.49s.12-1.1,1.05-1c1.6.2,3.21.4,4.79.7,27.42,5.12,49.32,21.73,53.18,50.45.4,3,.53,6,.74,8.41" transform="translate(-324.31 -189.41)"/><path class="cls-3" d="M554.32,1534.48a60.73,60.73,0,0,1,7-17,42,42,0,0,1,17-16.29,68.9,68.9,0,0,1,28-7.32c3-.17,6.11,0,9.16.13a2.89,2.89,0,0,1,.5.08c1.07.16,1.2.26.93,1.23-.59,2.2-1.15,4.43-1.94,6.56-1.09,3-2.13,6-3.47,8.85a79.35,79.35,0,0,1-10.28,16.91,49.53,49.53,0,0,1-10.14,9.84,41.81,41.81,0,0,1-16.13,6.52,66.91,66.91,0,0,1-21.09.37c-.33,0-.66-.13-1-.18-.76-.11-1-.51-.86-1.28.14-.59.17-1.21.33-1.8.63-2.19,1.29-4.38,1.93-6.57" transform="translate(-324.31 -189.41)"/><path class="cls-3" d="M533.05,1508.7a52.09,52.09,0,0,1-4.51,28.28c-.52,1.06-.59,1.09-1.64.51a76.84,76.84,0,0,1-12.06-8.34c-19.91-16.85-21.37-43.46-12.56-66.89.1-.26.22-.51.33-.77.26-.61.67-.69,1.19-.34,1.12.74,2.24,1.46,3.33,2.24,14.18,10.12,24,27.52,25.92,45.31" transform="translate(-324.31 -189.41)"/><path class="cls-3" d="M379,1583.39a40.83,40.83,0,0,1-17.24-4,74.29,74.29,0,0,1-23.5-17c-1.14-1.22-2.2-2.52-3.25-3.81-.91-1.12-.89-1.2.32-1.8,1.45-.72,2.89-1.45,4.37-2.09a77,77,0,0,1,17-5.21,74.93,74.93,0,0,1,11.78-1.12,41.23,41.23,0,0,1,26.88,9.31,73.13,73.13,0,0,1,13.13,13.7c.26.36.48.75.76,1.09.48.57.37,1-.24,1.34-1.21.7-2.39,1.44-3.62,2.09a62.49,62.49,0,0,1-20.26,7,40.56,40.56,0,0,1-6.17.51" transform="translate(-324.31 -189.41)"/><path class="cls-3" d="M423.16,1505.89c-27.23-2.35-45.78-17.42-51.44-45.22-.29-1.41-.29-1.43,1.07-1.46,28.53-.47,51.57,16.91,56.22,45.27.19,1.1.17,1.16-.92,1.19-1.67,0-3.32.35-4.93.22" transform="translate(-324.31 -189.41)"/><path class="cls-3" d="M633.29,1440.93a49,49,0,0,1-13.45-2.11c-.68-.21-1.36-.39-2-.62-.84-.3-.85-.34-.53-1.17a48.55,48.55,0,0,1,9.62-14.69,28,28,0,0,1,12.55-7.51,49.86,49.86,0,0,1,15.51-1.7,57.43,57.43,0,0,1,11.5,1.76c.16,0,.31.12.47.15.64.11.71.42.45,1a41.3,41.3,0,0,1-2.31,4.17,54,54,0,0,1-9.09,11.13,41.6,41.6,0,0,1-9.7,6.84,25.87,25.87,0,0,1-9.61,2.59,22.54,22.54,0,0,1-3.38.19" transform="translate(-324.31 -189.41)"/><path class="cls-3" d="M649.79,1453.2a41.58,41.58,0,0,1-3.66,4.41,70.72,70.72,0,0,1-17.62,14.17,48.24,48.24,0,0,1-14.54,5.71,41.26,41.26,0,0,1-17.55-.71,67,67,0,0,1-12.53-4.55c-1.81-.84-3.56-1.84-5.3-2.83-1-.59-1-.67-.35-1.68a47.61,47.61,0,0,1,4.16-5.43,62.33,62.33,0,0,1,12.24-11,36.85,36.85,0,0,1,16.05-6.2,59.81,59.81,0,0,1,14.15.09,72.91,72.91,0,0,1,20.65,5.78,16.63,16.63,0,0,1,4.3,2.27" transform="translate(-324.31 -189.41)"/><path class="cls-3" d="M655.84,1537.89a72,72,0,0,1,32.67,7.63l.6.29c.55.3.69.7.27,1.21s-.86,1-1.28,1.54a70.59,70.59,0,0,1-18.71,15.93,52.36,52.36,0,0,1-14,5.86,38.41,38.41,0,0,1-17.87-.11,67.19,67.19,0,0,1-18.39-7.31c-.3-.16-.57-.37-.86-.52-.71-.35-.62-.79-.22-1.34,5.62-7.74,12.14-14.5,20.71-19a35,35,0,0,1,17-4.16" transform="translate(-324.31 -189.41)"/><path class="cls-3" d="M657,1529.55a78.29,78.29,0,0,1-10.89-1c-.33,0-.65-.16-1-.21-.72-.11-.93-.46-.7-1.16.54-1.58,1-3.2,1.54-4.76a52.46,52.46,0,0,1,8.14-15.06,33.17,33.17,0,0,1,13.2-10.2,59.77,59.77,0,0,1,20.26-4.51,75,75,0,0,1,11.32.44c1.29.14,1.32.16.87,1.44a65.29,65.29,0,0,1-8.83,17,52.78,52.78,0,0,1-10.76,11.12,32.68,32.68,0,0,1-12.35,5.65,50.64,50.64,0,0,1-10.83,1.26" transform="translate(-324.31 -189.41)"/><path class="cls-3" d="M359,1518.68a45,45,0,0,1-10.53-1.76,62.57,62.57,0,0,1-23.08-12.69l-.62-.56c-.65-.54-.53-1,.1-1.47,1.56-1.06,3.09-2.19,4.71-3.17a59.56,59.56,0,0,1,22.53-8.32,33.1,33.1,0,0,1,15.64,1.27,49.27,49.27,0,0,1,13.53,7.42,55.49,55.49,0,0,1,6.26,5.5c.81.82.81.92-.1,1.69a51.67,51.67,0,0,1-19.9,10.86,41.3,41.3,0,0,1-8.54,1.23" transform="translate(-324.31 -189.41)"/><path class="cls-3" d="M639.16,1486.21a29.09,29.09,0,0,1,2.68-13.57,42.12,42.12,0,0,1,5.88-8.88,56.92,56.92,0,0,1,16.22-13.18c.24-.14.49-.26.74-.38,1-.48,1-.49,1.36.57a53.92,53.92,0,0,1,1.88,9.48,56.53,56.53,0,0,1-.53,16.11,31.52,31.52,0,0,1-11.42,19.4,56.23,56.23,0,0,1-12,7.5c-1.4.66-1.54.65-2-.81-1.67-5.27-3-10.6-2.82-16.24" transform="translate(-324.31 -189.41)"/><path class="cls-3" d="M456.45,1435.78c-7.46.1-14.64-2.72-20.94-8.16A56.93,56.93,0,0,1,421.16,1409c-.66-1.39-.67-1.45.78-1.76a66.63,66.63,0,0,1,7.57-1.21,50.79,50.79,0,0,1,11.82,0c5.82.77,11.5,2,16.5,5.37a37.2,37.2,0,0,1,9.7,9.76,52,52,0,0,1,5.59,10.42c.54,1.36.47,1.54-1,2a54.14,54.14,0,0,1-15.67,2.23" transform="translate(-324.31 -189.41)"/><path class="cls-3" d="M496.9,1548c-7.31-1.51-13.72-5.81-18.7-12.49a56.74,56.74,0,0,1-10-21.29c-.35-1.5-.35-1.57,1.14-1.56a67.67,67.67,0,0,1,7.65.45,50.54,50.54,0,0,1,11.53,2.59c5.53,2,10.81,4.45,15,8.8a37,37,0,0,1,7.37,11.62,51.5,51.5,0,0,1,3.21,11.38c.24,1.44.13,1.6-1.4,1.69A54,54,0,0,1,496.9,1548" transform="translate(-324.31 -189.41)"/><path class="cls-3" d="M503,1432.31a47,47,0,0,1-.51,7.72c-.12,1-.21,1-1.2.8a46.56,46.56,0,0,1-15.63-6.74,27.66,27.66,0,0,1-10-12.31,51,51,0,0,1-3.91-17.69c-.1-2.26.08-4.51.1-6.77a1.83,1.83,0,0,1,0-.33c.11-.72.25-.8.94-.6a51.1,51.1,0,0,1,21.31,12.4,28,28,0,0,1,8.11,14.76,35.66,35.66,0,0,1,.8,8.76" transform="translate(-324.31 -189.41)"/><path class="cls-3" d="M592.54,1420.3a27.17,27.17,0,0,1,2-10.61,23.06,23.06,0,0,1,3.58-5.66,41,41,0,0,1,13.74-10.65c1-.49,2-1,3.1-1.41.64-.24.72-.18.84.5a44,44,0,0,1,.69,9.08,38.36,38.36,0,0,1-3.21,14.58,21.3,21.3,0,0,1-5.07,6.84,35.34,35.34,0,0,1-10.86,6.66c-.86.35-1.73.66-2.59,1s-.9.28-1.1-.62c-.26-1.24-.52-2.47-.7-3.71a39.79,39.79,0,0,1-.44-6" transform="translate(-324.31 -189.41)"/><path class="cls-1" d="M512.47,1767.84c-2-19.21-13.19-55-13.19-55-12.26-26.3-26.52-58.35-25.85-93.19.19-10,14.15-68.33-31.76-93-30.42-16.32-69.31-3.6-68.79-3.85,15.23-7.62,36.68-10.23,44.95-10.23,32.31,0,66.45,27.78,70.63,65,0,.28,51.29-19.62,51.29-61.51,0-70.21-81-73.49-80.34-73.49,4.34,0,8.69,0,13,.14,30.7,1,60.94,12.23,78,46.87,0,0,10.41-30.42,35.24-46.83a87.63,87.63,0,0,1,20.46-10.06c2.46-.82,6.35-1,8.55-2.19-18.75,10.3-36.25,22.28-45.85,41.7a180.33,180.33,0,0,0-14.07,39.06c-4.2,17.49-8.84,34.29-20.91,48.13-10.49,12-24.07,21.21-38.54,27.82-.53.24,42.79-9.55,64.55-12.47,35.44-4.76,56.33-27.41,75.71-55.45,1-1.38,2-2.7,3-4,.36-.47-17,53.19-68,68.07-24.4,7.13-56.42,9.63-71.93,23.23-8.38,7.36,9.13,85.28,26.21,105.75-4.92,18.72-9.9,35.73-12.4,55.47" transform="translate(-324.31 -189.41)"/><rect class="cls-4" x="512.84" y="1428.82" width="1.36" height="13.67" transform="translate(-641.1 -32.57) rotate(-13.31)"/><path class="cls-4" d="M515.58,1450l2.45-1.87a1.59,1.59,0,0,0,.62-1.92l-3-6.59a1.14,1.14,0,0,0-2.07.5l.75,9.53c0,.51.76.71,1.24.35" transform="translate(-324.31 -189.41)"/><path class="cls-4" d="M508.43,1429.65l35.16-15.53a7.74,7.74,0,0,1,5.81-.19L586,1427.37a.48.48,0,0,1,0,.88l-15.9,7.93a2.46,2.46,0,0,0-1.38,2.13l-.37,9.57a64.66,64.66,0,0,0-9.6,9.86c-6.58,8.91-9,14.78-9,14.78a86.24,86.24,0,0,0-12.17-14.78c-7.09-6.79-12.19-9.17-12.19-9.17l-.91-9.45a2.29,2.29,0,0,0-1.34-1.86l-14.78-6.69a.51.51,0,0,1,0-.92" transform="translate(-324.31 -189.41)"/></svg>