<?xml version="1.0" standalone="no"?>
<!DOCTYPE svg PUBLIC "-//W3C//DTD SVG 20010904//EN"
 "http://www.w3.org/TR/2001/REC-SVG-20010904/DTD/svg10.dtd">
<svg version="1.0" xmlns="http://www.w3.org/2000/svg"
 width="1080.000000pt" height="1080.000000pt" viewBox="0 0 1080.000000 1080.000000"
 preserveAspectRatio="xMidYMid meet">

<g transform="translate(0.000000,1080.000000) scale(0.100000,-0.100000)"
fill="#000000" stroke="none">
<path d="M5068 10699 c-1177 -67 -2343 -557 -3220 -1353 -1047 -949 -1667
-2240 -1748 -3636 -106 -1837 730 -3575 2235 -4645 1562 -1112 3628 -1285
5369 -450 892 427 1675 1131 2209 1986 1009 1617 1062 3692 137 5364 -330 596
-794 1148 -1318 1569 -1044 837 -2317 1242 -3664 1165z m882 -173 c869 -103
1618 -375 2315 -839 1244 -830 2072 -2169 2254 -3647 226 -1829 -518 -3607
-1983 -4739 -143 -111 -417 -293 -581 -386 -1135 -647 -2486 -837 -3770 -530
-1252 300 -2369 1087 -3088 2175 -132 200 -212 341 -327 575 -227 461 -379
943 -459 1448 -50 313 -56 394 -56 812 0 439 12 578 75 930 225 1239 908 2364
1905 3140 774 602 1729 982 2675 1064 69 6 141 13 160 15 95 11 753 -3 880
-18z"/>
<path d="M5065 10454 c-1104 -86 -2070 -475 -2915 -1174 -161 -133 -497 -469
-630 -630 -659 -796 -1034 -1679 -1157 -2721 -26 -220 -26 -858 0 -1069 80
-644 226 -1150 487 -1685 590 -1204 1636 -2132 2895 -2566 468 -161 915 -246
1427 -271 1307 -63 2585 385 3573 1253 488 428 903 965 1194 1547 588 1174
692 2591 279 3837 -103 312 -261 667 -415 935 -380 660 -897 1222 -1526 1658
-690 479 -1461 765 -2337 868 -129 15 -747 28 -875 18z m665 -560 c0 -3 -11
-20 -25 -38 -108 -141 -124 -374 -38 -539 16 -28 29 -55 31 -59 2 -5 -15 -8
-37 -8 -45 0 -70 20 -103 84 -35 67 -48 128 -48 222 0 113 23 194 81 282 l41
62 49 0 c27 0 49 -3 49 -6z m-790 -9 c0 -3 -25 -67 -55 -142 l-55 -136 37 -46
c20 -25 64 -77 96 -114 35 -40 56 -72 51 -77 -5 -5 -36 -12 -69 -15 l-60 -7
-39 53 c-21 29 -49 68 -62 87 -16 22 -25 30 -28 21 -3 -8 -19 -55 -36 -105
l-31 -91 -67 -10 c-37 -6 -68 -9 -70 -8 -2 1 25 66 59 143 l61 141 -96 118
-96 118 43 7 c23 4 56 10 72 12 28 5 33 1 85 -79 30 -46 57 -84 60 -84 3 0 18
40 35 90 16 49 32 94 35 99 5 8 38 16 123 29 4 0 7 -1 7 -4z m1084 -21 c14 -5
25 -76 50 -309 l11 -110 92 188 c80 162 95 187 115 187 27 0 98 -19 98 -26 0
-6 -251 -467 -259 -476 -3 -3 -35 -1 -70 5 l-65 12 -37 240 c-21 132 -40 255
-43 274 l-5 33 50 -6 c27 -4 55 -9 63 -12z m-1750 -368 c87 -118 158 -218 157
-222 -1 -9 -84 -42 -106 -43 -5 0 -25 22 -43 49 l-33 48 -47 -13 c-26 -8 -65
-21 -87 -28 l-40 -14 -3 -61 -3 -61 -54 -17 c-30 -10 -57 -15 -61 -12 -3 4 -1
108 5 232 6 125 11 248 11 274 l0 47 53 16 c28 9 61 17 72 17 15 1 61 -55 179
-212z m2561 175 l50 -18 8 -272 c5 -150 6 -276 3 -279 -3 -3 -33 3 -65 13
l-60 18 6 61 5 61 -88 29 -88 28 -18 -22 c-9 -12 -26 -33 -37 -48 l-19 -26
-62 19 -62 20 172 218 c107 135 178 217 188 216 9 0 40 -8 67 -18z m-3212
-176 c9 -20 17 -39 17 -43 0 -5 -35 -25 -79 -46 l-79 -39 24 -51 c13 -28 28
-52 33 -54 5 -2 31 8 58 21 86 43 89 43 113 -3 12 -23 20 -43 18 -45 -2 -1
-34 -17 -73 -35 -38 -17 -71 -33 -73 -34 -1 -2 16 -42 38 -91 22 -48 40 -90
40 -95 0 -7 -101 -53 -105 -48 -1 2 -16 32 -33 68 -16 36 -67 141 -112 235
-44 93 -78 171 -73 173 4 1 62 29 128 61 66 33 125 60 131 60 6 1 18 -15 27
-34z m3656 -4 c31 -17 39 -27 44 -58 20 -119 -4 -240 -68 -348 -47 -78 -86
-118 -158 -162 l-59 -35 -39 17 c-21 10 -39 21 -39 25 0 4 22 21 49 39 148 95
240 282 228 464 -3 42 -3 77 -1 77 3 0 22 -9 43 -19z m-4169 -291 c31 -16 59
-56 71 -100 10 -40 10 -50 -9 -87 -22 -46 -24 -43 39 -57 14 -3 67 -25 119
-49 l94 -44 -58 -37 -59 -38 -96 46 c-104 50 -118 53 -145 33 -17 -12 -15 -18
33 -91 28 -43 51 -81 51 -85 -1 -9 -76 -61 -89 -61 -9 0 -276 394 -288 426 -5
14 177 133 230 149 40 13 75 11 107 -5z m5028 -217 c40 -30 50 -42 46 -58 -3
-11 -42 -131 -85 -267 l-80 -248 -49 37 c-28 21 -50 41 -50 45 0 4 9 31 19 58
l19 51 -51 41 c-98 77 -92 75 -143 40 -24 -18 -48 -32 -52 -32 -15 0 -93 63
-90 72 4 12 438 297 453 297 6 1 34 -16 63 -36z m-5526 -107 c23 -29 25 -35
12 -48 -13 -12 -1 -30 91 -141 58 -70 109 -127 113 -127 4 0 13 5 18 10 7 7
21 -1 43 -24 l32 -33 -79 -66 -80 -66 -28 30 c-25 26 -27 32 -16 50 11 17 10
24 -5 42 -10 12 -58 71 -107 130 -83 100 -90 106 -106 92 -17 -15 -20 -14 -44
18 -14 19 -26 36 -26 39 0 7 142 128 149 128 4 0 18 -15 33 -34z m3198 -180
c298 -41 568 -110 810 -206 1045 -418 1806 -1319 2034 -2409 54 -260 61 -334
61 -686 0 -353 -5 -414 -61 -683 -278 -1350 -1394 -2401 -2761 -2601 -39 -6
-74 -11 -76 -11 -3 0 -11 -24 -17 -52 -19 -80 -48 -134 -102 -194 -159 -173
-443 -173 -601 0 -46 50 -86 126 -98 188 l-11 57 -47 7 c-593 82 -1185 343
-1648 725 -459 379 -807 869 -1011 1425 -82 224 -134 436 -173 704 -30 205
-33 644 -6 840 58 412 157 740 330 1085 220 441 533 822 928 1133 320 251 729
459 1121 572 205 59 486 109 698 124 118 8 519 -3 630 -18z m2753 -87 l27 -33
-150 -151 -150 -150 67 -68 68 -67 -35 -35 -35 -35 -110 110 -110 110 184 184
c201 201 193 197 244 135z m-6156 -196 c134 -59 243 -110 243 -113 -1 -3 -18
-24 -39 -47 l-39 -43 -57 26 -58 25 -58 -63 c-32 -35 -58 -67 -59 -72 0 -4 12
-31 27 -58 l27 -49 -45 -44 -44 -44 -127 247 -127 248 47 47 c26 26 51 47 56
47 6 0 120 -48 253 -107z m6521 -207 l32 -45 -117 -87 c-147 -108 -180 -140
-188 -175 -7 -32 16 -83 44 -99 53 -28 83 -12 295 148 38 28 72 52 77 52 13 0
70 -74 67 -87 -4 -18 -256 -202 -306 -224 -105 -46 -209 -2 -269 115 -41 80
-35 150 20 213 35 40 285 232 303 233 6 0 25 -20 42 -44z m-7088 -112 c23 -15
37 -31 33 -38 -3 -6 -26 -39 -50 -72 -24 -34 -43 -64 -43 -67 0 -3 22 -21 48
-40 l48 -34 49 68 c52 72 51 72 105 30 l24 -19 -40 -59 c-23 -32 -44 -63 -47
-69 -4 -7 27 -34 73 -65 44 -30 79 -57 80 -61 0 -18 -64 -97 -75 -90 -44 27
-406 285 -410 293 -5 7 153 248 163 249 1 0 20 -12 42 -26z m7515 -514 c19
-38 35 -76 35 -83 0 -8 -61 -73 -135 -145 -74 -73 -132 -132 -130 -132 11 0
323 41 350 46 29 5 31 2 68 -72 21 -42 37 -78 35 -79 -7 -7 -460 -225 -467
-225 -9 0 -56 98 -50 103 2 2 77 39 166 82 90 43 161 80 159 83 -3 2 -55 -3
-118 -12 -193 -27 -271 -36 -273 -34 -2 2 -12 21 -23 43 l-20 40 146 150 147
150 -175 -87 -175 -86 -16 26 c-43 70 -53 61 203 187 128 63 234 115 235 115
2 0 19 -31 38 -70z m-7576 -99 l23 -18 -32 -64 c-57 -111 -56 -111 -96 -92
-19 9 -34 21 -34 26 0 9 66 133 83 155 13 16 28 15 56 -7z m-10 -407 c2 -2 -7
-29 -20 -61 l-24 -57 -61 3 -60 2 -33 -83 -32 -82 47 -42 48 -41 -23 -56 c-13
-32 -25 -57 -28 -57 -9 0 -414 359 -414 367 0 4 10 35 22 67 l21 59 276 -7
c152 -4 278 -9 281 -12z m7934 -321 c13 -47 13 -61 3 -73 -7 -8 -68 -77 -135
-153 -68 -76 -122 -140 -120 -142 2 -2 65 14 139 34 212 59 187 59 205 -1 8
-28 14 -53 12 -55 -5 -5 -502 -140 -505 -138 -2 2 -10 28 -18 59 l-15 56 140
157 c78 86 139 158 138 160 -2 1 -76 -17 -165 -42 -89 -25 -165 -45 -170 -45
-9 0 -37 98 -30 105 6 6 470 134 489 134 11 1 21 -17 32 -56z m-8590 -159 c23
-5 28 -11 23 -29 -6 -22 1 -24 142 -59 81 -20 154 -39 163 -42 11 -3 18 3 22
17 4 15 11 20 22 15 9 -3 24 -6 33 -6 41 -1 43 -13 16 -110 -13 -52 -26 -96
-28 -98 -2 -2 -22 2 -45 8 -32 8 -41 15 -41 33 0 20 -14 26 -160 63 -153 39
-160 40 -166 21 -5 -16 -12 -18 -42 -12 -21 4 -41 10 -45 14 -5 5 1 46 13 92
28 112 27 111 47 105 10 -3 31 -8 46 -12z m38 -451 c16 -9 38 -36 51 -59 l22
-42 24 19 c26 20 208 109 224 109 10 0 1 -79 -12 -116 -6 -14 -38 -33 -99 -58
-49 -21 -97 -46 -106 -55 -22 -25 -20 -61 5 -61 10 0 54 -5 96 -11 l76 -12 -4
-53 c-3 -30 -7 -56 -10 -59 -5 -6 -508 62 -515 69 -3 3 2 57 11 122 19 135 43
190 96 217 40 21 96 16 141 -10z m8718 -127 c7 -53 11 -99 10 -100 -2 -2 -23
-6 -46 -10 -35 -5 -43 -3 -43 9 0 26 -23 27 -172 6 -80 -12 -150 -21 -156 -21
-7 0 -12 -11 -12 -24 0 -20 -6 -24 -41 -30 -23 -4 -44 -5 -46 -2 -5 5 -34 199
-30 202 1 1 22 4 46 7 37 5 44 3 48 -14 6 -23 7 -23 173 1 74 11 141 20 148
20 6 0 12 11 12 24 0 21 5 25 38 29 20 2 42 3 47 2 6 -1 16 -45 24 -99z
m-8627 -488 c53 -16 122 -78 143 -130 17 -43 41 -295 29 -307 -3 -3 -122 -8
-263 -11 l-258 -5 -7 105 c-6 113 3 201 28 248 20 38 82 90 121 101 44 13 162
13 207 -1z m8487 -164 c69 -20 141 -90 164 -159 20 -56 22 -137 6 -201 l-11
-44 -59 0 c-33 0 -59 3 -59 8 1 4 7 18 15 32 8 15 14 53 15 92 0 58 -3 71 -27
99 -76 90 -236 78 -285 -21 -22 -43 -23 -109 -4 -155 l15 -35 -55 0 c-49 0
-55 2 -64 26 -6 14 -10 62 -10 107 0 65 5 92 24 133 53 114 189 162 335 118z
m-8285 -521 c20 -100 20 -97 -21 -133 -35 -30 -273 -260 -270 -260 1 0 81 16
177 35 96 19 175 33 176 32 1 -1 7 -26 12 -55 7 -39 6 -55 -2 -57 -6 -2 -121
-24 -255 -50 -192 -37 -246 -44 -252 -34 -4 7 -11 36 -15 64 l-7 50 149 142
c82 79 145 143 139 143 -5 0 -79 -14 -163 -30 -85 -17 -157 -30 -161 -30 -8 0
-34 100 -28 107 2 2 87 19 188 38 101 20 211 42 244 49 84 19 83 19 89 -11z
m8146 -103 c127 -27 240 -50 251 -50 22 0 22 -3 8 -70 -12 -58 -9 -57 -129
-30 -46 10 -86 18 -87 16 -5 -5 -43 -199 -40 -203 2 -2 46 -12 98 -24 51 -11
95 -22 97 -24 3 -3 -17 -115 -21 -115 -1 0 -108 23 -237 50 -129 27 -243 50
-252 50 -25 0 -27 10 -16 68 12 61 11 61 138 33 47 -11 85 -18 86 -18 11 23
40 203 33 208 -5 3 -52 14 -105 23 -89 17 -95 20 -90 40 3 11 9 38 12 59 4 20
10 37 14 37 5 0 113 -22 240 -50z m-7994 -556 l19 -55 -47 -42 -47 -42 31 -83
31 -83 61 2 61 3 22 -55 c12 -30 23 -57 23 -62 0 -4 -126 -6 -281 -5 l-281 3
-24 62 -23 63 152 127 c192 162 268 223 277 223 4 0 15 -25 26 -56z m7727 -91
c126 -109 263 -229 290 -253 16 -15 16 -19 -9 -83 l-26 -67 -36 5 c-21 2 -145
7 -277 10 -132 4 -241 7 -242 9 -1 1 7 28 20 59 l22 56 64 3 64 3 30 80 30 79
-46 39 -45 39 21 59 c11 32 23 59 25 59 1 0 53 -44 115 -97z m-7489 -496 l30
-54 -44 -69 c-24 -38 -50 -80 -59 -93 l-15 -24 109 4 108 4 35 -63 35 -64 -94
6 c-52 4 -122 9 -155 12 l-62 5 -77 -131 c-43 -72 -81 -127 -85 -123 -4 4 -21
33 -38 63 l-30 55 59 80 c32 44 59 82 59 85 0 3 -47 4 -104 2 l-105 -3 -30 53
c-17 29 -31 55 -31 58 0 3 69 4 152 2 l153 -3 73 131 c40 72 76 128 80 126 4
-2 20 -29 36 -59z m7338 -164 c123 -70 225 -128 227 -130 8 -6 -104 -190 -138
-226 -61 -64 -128 -68 -211 -13 -75 49 -90 139 -41 243 l30 62 -22 14 c-12 8
-46 26 -74 41 -29 14 -53 31 -53 37 0 11 49 99 55 99 2 0 104 -57 227 -127z
m-6971 -424 c75 -100 89 -123 78 -134 -13 -11 -226 -171 -351 -263 l-57 -42
-89 120 -90 120 38 30 38 30 53 -70 c30 -38 56 -70 59 -70 4 0 25 14 48 31 28
21 40 35 34 43 -5 6 -27 36 -50 68 l-41 56 34 26 c18 14 37 26 42 26 4 0 28
-27 51 -60 24 -33 49 -60 56 -60 7 0 29 15 50 33 l37 32 -56 75 -56 75 32 28
c18 15 37 27 41 27 4 0 49 -54 99 -121z m6587 -155 l144 -109 21 30 c12 17 33
42 47 57 l25 28 37 -28 36 -28 -124 -162 c-69 -89 -128 -162 -132 -162 -4 0
-22 13 -40 28 l-34 28 41 52 c23 28 41 56 41 61 0 5 -62 56 -137 115 -76 58
-150 116 -165 128 l-27 23 36 48 36 48 26 -24 c14 -13 91 -73 169 -133z
m-6211 -368 c-23 -21 -106 -101 -184 -177 -78 -77 -146 -139 -150 -139 -5 0
-26 17 -47 38 l-37 39 150 145 c83 80 151 149 151 154 0 5 -28 37 -62 71 l-62
63 34 36 35 36 107 -114 108 -113 -43 -39z m5922 -10 l184 -184 -105 -107
-105 -106 -32 28 c-17 15 -31 32 -31 38 0 6 27 37 60 70 l60 59 -42 43 -41 42
-61 -59 -61 -59 -32 31 -33 32 60 61 60 60 -42 43 -43 42 -67 -67 -68 -67 -35
34 -35 34 107 108 c59 59 110 108 113 108 3 0 88 -83 189 -184z m-5706 -111
l46 -35 -20 -57 c-10 -31 -19 -57 -19 -58 0 -2 31 -28 70 -59 l70 -57 51 35
52 35 48 -37 c27 -20 49 -39 49 -42 -1 -3 -106 -71 -235 -152 l-235 -146 -55
41 c-30 23 -53 47 -51 52 131 395 172 515 177 515 3 0 27 -16 52 -35z m5315
-249 c83 -112 152 -207 152 -212 -1 -11 -149 -121 -194 -146 -18 -9 -47 -19
-66 -23 -98 -17 -183 116 -135 209 8 15 15 29 15 30 0 0 -13 1 -30 2 -33 1
-240 74 -240 85 0 14 96 80 110 75 8 -2 55 -21 103 -41 79 -33 92 -35 118 -25
16 7 29 17 29 22 0 5 -25 41 -55 80 -31 39 -54 75 -53 79 3 9 80 69 88 68 3 0
74 -91 158 -203z m-1811 -598 c6 -7 13 -30 17 -50 l7 -38 -54 0 c-41 0 -61 -6
-82 -22 -32 -25 -55 -74 -55 -120 l0 -32 28 26 c96 93 227 40 248 -100 12 -83
-27 -160 -100 -193 -152 -69 -278 54 -280 271 -2 144 52 224 174 256 59 16 85
17 97 2z m-1652 -30 c-16 -74 -85 -402 -85 -408 0 -5 23 -11 51 -15 l50 -7 -6
-42 c-4 -22 -10 -44 -14 -48 -5 -5 -168 25 -284 54 -37 9 -38 10 -31 46 9 50
15 55 60 45 22 -4 43 -8 48 -8 11 0 77 295 70 307 -3 5 -27 8 -55 8 -54 0 -53
-1 -38 53 l10 37 115 0 c113 0 114 0 109 -22z m502 -49 c76 -28 116 -102 116
-214 0 -131 -37 -226 -109 -281 -30 -23 -49 -29 -104 -32 -38 -2 -84 1 -104 8
-35 11 -36 13 -36 61 0 53 3 55 40 34 51 -29 146 -11 169 33 5 9 13 34 19 54
l10 36 -32 -19 c-58 -35 -145 -16 -186 41 -41 57 -35 166 12 225 42 54 139 79
205 54z m663 -20 c0 -17 -35 -138 -77 -269 l-76 -238 -59 -4 c-39 -2 -58 1
-58 9 0 9 101 296 140 397 l11 29 -120 -6 -120 -6 -3 47 -3 47 145 11 c236 18
220 19 220 -17z"/>
<path d="M4070 9477 l0 -106 60 21 c39 13 58 24 53 31 -7 13 -103 149 -109
156 -2 2 -4 -43 -4 -102z"/>
<path d="M6722 9482 l-62 -87 47 -17 c27 -9 53 -17 60 -17 9 -1 18 102 18 206
0 1 -28 -38 -63 -85z"/>
<path d="M2953 9079 c-18 -12 -33 -23 -33 -25 0 -11 72 -114 80 -114 5 0 24
13 42 28 37 34 42 80 13 112 -23 26 -61 25 -102 -1z"/>
<path d="M7981 8839 c-47 -33 -86 -61 -89 -63 -4 -4 87 -76 97 -76 3 0 22 45
42 100 20 55 36 100 35 99 -1 0 -39 -27 -85 -60z"/>
<path d="M5133 8380 c-1044 -101 -1944 -715 -2407 -1640 -209 -420 -302 -797
-313 -1266 -9 -395 35 -689 156 -1045 310 -910 1041 -1614 1967 -1894 199 -61
539 -125 567 -108 7 4 28 19 47 34 144 115 353 110 515 -10 l40 -30 105 15
c955 134 1785 716 2234 1566 166 313 268 632 323 1013 26 183 24 612 -4 795
-103 660 -371 1209 -812 1664 -474 488 -1053 784 -1736 887 -150 23 -531 33
-682 19z m117 -305 c0 -14 -5 -25 -11 -25 -14 0 -3 -150 12 -164 5 -6 9 -18 9
-28 0 -15 -9 -18 -50 -18 -43 0 -50 3 -50 20 0 11 5 20 11 20 15 0 5 163 -10
168 -15 5 -14 39 2 45 6 3 29 6 50 6 33 1 37 -2 37 -24z m398 9 c27 -4 33 -9
30 -27 -3 -19 -8 -21 -50 -18 -47 2 -48 2 -48 -27 0 -27 4 -30 40 -36 31 -5
40 -11 40 -26 0 -17 -7 -20 -45 -20 l-45 0 0 -45 c0 -43 -1 -45 -30 -45 -36 0
-36 5 -19 157 l11 98 42 -3 c22 -1 56 -5 74 -8z m-598 -28 c0 -21 -4 -23 -40
-22 -70 1 -78 -44 -10 -59 49 -11 80 -42 80 -81 0 -45 -27 -71 -86 -80 -53 -8
-77 2 -82 34 -3 19 0 21 27 16 40 -8 81 3 81 21 0 9 -23 26 -54 39 -82 36 -99
85 -45 130 24 20 41 26 80 26 45 0 49 -2 49 -24z m873 -23 c55 -28 57 -100 4
-124 l-24 -11 18 -37 c10 -21 21 -50 25 -65 6 -26 5 -27 -22 -20 -16 4 -30 7
-31 8 -1 1 -10 24 -20 51 -25 66 -49 71 -60 13 -8 -37 -12 -43 -33 -40 -13 1
-26 4 -28 7 -4 4 32 199 44 233 5 16 84 7 127 -15z m-1148 -28 c49 -48 25
-116 -48 -144 -27 -10 -28 -13 -22 -55 7 -41 5 -44 -19 -48 -29 -6 -23 -18
-66 151 -12 46 -17 88 -13 92 10 10 78 27 116 28 17 1 37 -8 52 -24z m1442
-51 c20 -5 21 -14 28 -140 4 -74 5 -137 3 -140 -3 -2 -17 0 -32 5 -20 8 -26
17 -26 39 0 25 -6 31 -42 46 l-43 17 -21 -27 c-20 -24 -23 -25 -47 -12 l-26
13 80 103 c81 102 86 107 126 96z m288 -118 c44 -21 81 -39 83 -41 2 -2 -1
-13 -8 -24 -10 -20 -12 -20 -41 -5 -17 8 -32 14 -34 12 -1 -2 -22 -44 -45 -95
-41 -88 -43 -91 -66 -81 -13 6 -24 15 -24 19 0 5 18 47 40 95 39 84 42 104 16
104 -23 0 -36 22 -25 42 5 10 13 17 17 15 4 -2 43 -21 87 -41z m-2165 -63 l92
-98 -28 -11 c-25 -11 -32 -10 -51 8 -22 21 -23 21 -64 3 -36 -17 -40 -22 -35
-47 4 -21 1 -30 -14 -38 -40 -21 -39 -23 -55 181 -6 72 -5 76 17 86 13 7 28
12 34 12 7 1 53 -43 104 -96z m-281 -136 c33 -54 61 -102 61 -106 0 -4 -11
-13 -25 -19 -22 -10 -26 -8 -46 28 -13 22 -27 40 -32 40 -16 0 -77 -41 -77
-52 0 -6 9 -26 21 -45 17 -27 19 -36 9 -48 -7 -8 -18 -15 -25 -15 -13 0 -135
188 -135 208 0 11 39 37 44 30 1 -2 13 -20 25 -40 12 -21 25 -38 27 -38 2 0
23 11 45 26 l40 25 -25 43 -26 44 23 15 c12 8 25 12 28 9 4 -4 34 -51 68 -105z
m2714 56 c38 -24 48 -49 22 -59 -8 -3 -28 4 -44 15 l-30 21 -16 -22 c-17 -24
-12 -33 39 -63 15 -9 15 -12 3 -29 -14 -19 -15 -19 -50 3 -35 22 -36 22 -46 2
-15 -28 -14 -39 7 -46 39 -13 54 -32 43 -54 -11 -20 -13 -19 -71 16 -33 19
-62 39 -65 42 -2 4 25 55 61 114 73 119 61 114 147 60z m253 -188 c32 -46 1
-108 -55 -108 -24 0 -30 -4 -27 -16 3 -9 2 -40 -2 -70 l-7 -53 -24 19 c-22 18
-24 27 -22 81 1 33 -2 63 -7 66 -5 3 -22 -10 -36 -29 -29 -38 -47 -43 -66 -21
-9 12 3 34 65 115 l77 101 45 -32 c25 -18 52 -42 59 -53z m-3278 2 c34 -31 31
-91 -8 -127 l-30 -28 26 -32 27 -31 -21 -22 c-12 -11 -23 -19 -25 -16 -39 48
-143 177 -150 186 -18 24 107 108 142 96 9 -3 26 -15 39 -26z m3457 -147 c18
-20 18 -23 -1 -115 -11 -52 -19 -95 -17 -95 2 0 29 25 60 55 53 52 57 54 75
38 17 -15 16 -19 -39 -77 -77 -81 -114 -116 -123 -116 -4 0 -15 8 -24 19 -16
17 -16 24 4 112 11 51 20 95 20 98 0 3 -27 -21 -60 -54 -59 -58 -60 -59 -80
-40 -21 19 -21 19 67 107 48 48 90 88 94 88 3 0 14 -9 24 -20z m-3727 -132
l71 -73 36 35 c33 32 36 33 52 17 16 -16 14 -20 -37 -72 l-54 -55 -88 87 c-49
48 -88 92 -88 98 0 12 20 35 31 35 3 0 38 -33 77 -72z m3977 -135 c28 -34 28
-36 11 -49 -11 -7 -23 -11 -28 -8 -14 9 -128 -87 -128 -107 0 -11 -2 -19 -4
-19 -2 0 -11 -2 -19 -5 -8 -4 -25 8 -41 30 -23 29 -25 39 -15 51 7 8 19 12 26
9 16 -5 128 81 128 99 1 18 15 36 28 35 7 0 25 -16 42 -36z m-4100 -28 c61
-21 113 -41 117 -44 4 -3 -1 -16 -10 -29 -16 -20 -21 -22 -47 -12 -26 10 -31
8 -51 -17 -26 -31 -30 -53 -12 -71 9 -9 8 -17 -2 -37 -7 -14 -17 -25 -21 -25
-7 0 -124 185 -135 214 -7 17 26 67 41 62 6 -1 60 -20 120 -41z m2196 -49 c37
-25 69 -78 69 -113 0 -27 -30 -111 -52 -149 -27 -46 -9 -99 46 -138 36 -26 38
-30 21 -37 -27 -10 -78 -58 -99 -94 l-17 -30 -107 0 c-101 0 -111 -2 -169 -32
l-63 -32 -5 27 c-4 15 -15 51 -27 80 -16 42 -18 55 -8 67 18 22 43 20 31 -3
-6 -12 -5 -25 5 -42 7 -14 13 -33 14 -43 0 -30 25 -30 87 1 32 17 84 33 116
37 50 6 61 12 87 45 37 47 23 61 -22 22 -22 -19 -58 -35 -108 -47 -41 -9 -84
-24 -95 -31 -11 -8 -22 -14 -26 -14 -13 0 -19 32 -9 50 12 23 98 80 121 80 24
0 89 31 89 43 0 5 -7 7 -15 4 -25 -10 -25 7 0 31 41 40 53 100 30 155 -5 13
-2 17 14 17 28 0 44 -35 37 -79 -19 -103 -19 -111 -2 -111 11 0 16 9 16 28 0
16 14 57 31 91 38 77 34 91 -27 91 -41 0 -51 5 -81 37 -27 28 -37 33 -43 22
-7 -11 -15 -11 -43 -1 -18 7 -41 12 -50 12 -28 0 -31 22 -6 41 32 25 52 25 44
-1 -7 -21 9 -28 21 -9 3 6 20 19 38 30 45 27 112 25 157 -5z m2043 -108 c50
-74 54 -83 38 -94 -15 -12 -20 -10 -39 11 -12 14 -25 25 -28 25 -4 0 -43 -25
-87 -55 -75 -52 -81 -54 -94 -38 -7 10 -14 23 -14 28 0 6 34 32 76 59 41 28
78 54 80 58 3 5 -2 21 -11 35 -17 25 -17 27 1 40 10 7 19 13 21 13 1 0 27 -37
57 -82z m-2271 2 c74 -28 92 -50 92 -112 0 -43 -4 -53 -33 -79 -27 -24 -41
-29 -85 -29 -60 0 -125 31 -144 70 -16 32 -16 110 0 131 34 43 88 49 170 19z
m2391 -188 c14 -27 13 -30 -20 -72 -19 -23 -34 -44 -34 -46 0 -2 26 -1 58 2
55 6 58 5 69 -19 6 -14 9 -28 6 -31 -4 -3 -46 -6 -94 -6 -72 0 -94 -4 -125
-22 -36 -21 -37 -21 -50 -3 -20 27 -18 33 24 54 25 12 56 45 91 95 30 42 56
76 57 76 2 0 10 -13 18 -28z m-4661 -47 c167 -25 159 -22 142 -54 -11 -23 -19
-27 -43 -23 -25 3 -32 -1 -51 -33 l-22 -38 21 -22 c18 -19 19 -26 9 -49 -7
-15 -15 -25 -19 -24 -4 2 -46 47 -94 100 l-87 97 16 30 c8 17 18 31 20 31 3 0
51 -7 108 -15z m3504 -30 c0 -8 -4 -12 -9 -9 -5 3 -6 10 -3 15 9 13 12 11 12
-6z m-897 -95 c0 -14 -48 -35 -58 -26 -8 9 26 36 45 36 7 0 13 -5 13 -10z
m-60 -65 c0 -14 -37 -31 -47 -21 -9 8 28 47 38 40 5 -3 9 -11 9 -19z m1107
-61 c-3 -3 -15 10 -27 28 l-23 33 28 -28 c15 -16 25 -31 22 -33z m-2601 8
c-17 -16 -18 -16 -5 5 7 12 15 20 18 17 3 -2 -3 -12 -13 -22z m1010 1 c7 -10
14 -32 14 -50 0 -43 13 -48 68 -25 47 20 47 20 122 0 123 -32 219 -13 326 64
32 23 49 29 59 23 162 -113 207 -139 300 -170 50 -17 149 -35 191 -35 18 0 35
-3 37 -7 3 -5 -10 -37 -27 -73 -59 -121 -75 -175 -82 -280 l-7 -100 -721 2
-721 3 2 30 c2 17 -4 75 -12 130 -15 101 -61 219 -99 258 -22 21 -13 37 22 37
45 0 164 26 227 50 60 23 227 119 255 146 19 19 30 18 46 -3z m-2190 -16 c28
-24 35 -59 21 -110 -7 -25 -4 -28 32 -43 31 -12 38 -19 34 -35 -3 -12 -11 -23
-17 -25 -11 -4 -214 71 -228 84 -10 10 25 101 50 129 27 30 73 30 108 0z
m4729 -58 c9 -26 5 -30 -44 -36 -32 -4 -42 -2 -47 11 -4 9 -4 19 -1 23 5 4 54
18 79 22 4 1 10 -8 13 -20z m-3611 -170 c-6 -11 -41 -12 -47 -1 -3 4 8 7 24 8
15 1 26 -3 23 -7z m86 3 c0 -4 -25 -31 -55 -60 -30 -29 -63 -73 -74 -97 -11
-25 -23 -45 -26 -45 -3 0 -3 5 1 11 4 7 1 10 -7 7 -8 -3 -13 -15 -12 -26 2
-11 -4 -36 -13 -54 l-15 -33 6 35 c4 19 8 42 9 50 3 27 27 61 38 54 7 -5 8 -2
3 5 -4 8 1 21 14 32 12 11 21 23 21 27 0 4 20 23 45 42 24 19 44 41 45 48 0
13 20 17 20 4z m2560 -6 c0 -8 8 -17 19 -21 10 -3 27 -17 37 -32 11 -14 30
-37 44 -51 14 -15 24 -32 22 -40 -2 -8 1 -11 7 -8 5 4 12 2 15 -3 4 -5 2 -12
-4 -16 -6 -4 -8 -11 -5 -16 4 -5 3 -9 0 -9 -3 0 -15 19 -25 43 -11 24 -44 68
-75 98 -54 53 -65 69 -45 69 6 0 10 -6 10 -14z m95 4 c19 -8 19 -9 -2 -9 -12
-1 -25 4 -28 9 -7 12 2 12 30 0z m-2822 -7 c-7 -2 -21 -2 -30 0 -10 3 -4 5 12
5 17 0 24 -2 18 -5z m2874 1 c-3 -3 -12 -4 -19 -1 -8 3 -5 6 6 6 11 1 17 -2
13 -5z m-4010 -50 c27 -17 37 -52 29 -98 -6 -33 -5 -34 31 -43 38 -9 50 -27
34 -52 -7 -12 -29 -9 -127 18 -65 18 -119 33 -121 34 -4 5 24 102 36 126 22
41 68 47 118 15z m5140 -16 c14 -53 9 -61 -31 -54 -40 7 -155 -25 -168 -47
-15 -28 -36 -19 -47 21 -6 20 -11 42 -11 48 0 15 38 25 42 12 6 -16 158 32
158 48 0 8 10 14 23 14 18 0 25 -8 34 -42z m-4147 -143 c-7 -9 -15 -13 -19
-10 -3 3 1 10 9 15 21 14 24 12 10 -5z m3180 -7 c0 -6 -6 -5 -15 2 -8 7 -15
14 -15 16 0 2 7 1 15 -2 8 -4 15 -11 15 -16z m-127 -55 c4 -14 5 -12 6 5 1 17
10 6 36 -44 37 -71 44 -92 20 -60 -8 11 -17 17 -21 14 -5 -6 15 -48 28 -58 3
-3 1 -13 -7 -23 -11 -15 -14 -16 -25 -2 -11 13 -10 14 4 9 20 -8 21 5 2 32 -8
11 -14 35 -14 53 1 17 -4 37 -10 43 -9 9 -12 8 -12 -2 -1 -16 -40 78 -40 95 0
12 27 -38 33 -62z m1142 7 c6 -26 0 -35 -65 -96 -39 -37 -69 -69 -67 -71 2 -2
37 3 78 11 41 8 75 13 76 12 1 0 4 -13 8 -27 l6 -25 -127 -23 c-69 -12 -128
-21 -129 -19 -2 2 -5 15 -6 29 -3 22 9 38 69 94 40 37 71 69 70 71 -2 1 -39
-4 -83 -12 -44 -7 -81 -14 -82 -14 -2 0 -3 13 -3 29 0 28 2 29 73 41 39 7 88
16 107 20 61 14 68 12 75 -20z m-4099 4 c-4 -9 -1 -23 5 -31 7 -7 9 -17 5 -20
-4 -4 -11 -1 -16 7 -8 13 -10 12 -10 -2 0 -10 -5 -18 -11 -18 -6 0 -9 3 -7 8
3 4 10 22 17 40 7 17 15 32 18 32 3 0 2 -7 -1 -16z m3114 -5 c0 -6 -4 -7 -10
-4 -5 3 -10 11 -10 16 0 6 5 7 10 4 6 -3 10 -11 10 -16z m-3130 -83 c-7 -7
-13 -7 -20 0 -6 6 -3 10 10 10 13 0 16 -4 10 -10z m-1004 -18 c-3 -13 -6 -26
-6 -30 0 -3 -13 -9 -30 -13 -16 -4 -30 -12 -30 -20 0 -7 -3 -26 -6 -43 -5 -27
-3 -33 20 -43 19 -9 26 -20 26 -41 0 -15 -5 -28 -11 -28 -6 0 -62 28 -124 61
-113 61 -114 62 -108 93 3 17 7 33 9 34 3 5 224 50 248 51 14 1 17 -4 12 -21z
m817 7 c-3 -9 -8 -14 -10 -11 -3 3 -2 9 2 15 9 16 15 13 8 -4z m143 -23 c-18
-16 -18 -16 -6 6 6 13 14 21 18 18 3 -4 -2 -14 -12 -24z m35 -6 c-7 -8 -10
-20 -6 -25 7 -13 -35 -72 -47 -65 -4 3 -8 10 -8 15 0 6 3 8 8 6 4 -3 15 6 25
19 10 13 13 24 8 24 -5 0 -13 -5 -16 -10 -4 -6 -11 -8 -16 -5 -5 4 -9 1 -9 -6
0 -7 -2 -10 -5 -7 -9 8 6 38 16 32 5 -3 19 6 32 20 23 26 39 28 18 2z m3079
-26 c6 -11 8 -20 6 -20 -3 0 -10 9 -16 20 -6 11 -8 20 -6 20 3 0 10 -9 16 -20z
m-3045 -57 c-1 -16 -6 -45 -10 -67 -5 -25 -4 -41 4 -45 11 -7 18 -402 7 -420
-4 -5 -3 -16 0 -25 8 -20 20 -8 63 60 43 69 39 48 -6 -28 -21 -35 -38 -65 -38
-68 0 -3 -6 -14 -12 -25 -9 -16 -13 -17 -27 -6 -14 11 -16 11 -16 -3 0 -9 5
-16 11 -16 8 0 7 -6 -2 -17 -12 -15 -12 -16 4 -10 9 3 17 2 17 -3 0 -6 -11
-10 -25 -10 -14 0 -25 -5 -25 -12 0 -6 -3 -8 -7 -4 -8 7 -9 11 -12 39 -1 9 -3
9 -9 0 -6 -9 -11 -6 -21 8 -7 12 -8 18 -2 14 6 -3 11 1 11 11 0 15 4 14 23 -6
l22 -25 3 25 c2 14 8 29 13 34 5 6 8 28 8 50 l-1 41 -8 -38 c-4 -20 -11 -41
-15 -45 -5 -4 -5 2 -1 13 4 11 7 102 7 202 -1 112 3 184 9 188 5 3 10 14 9 23
0 14 -2 14 -10 -3 -8 -17 -9 -17 -4 5 2 14 10 52 16 85 16 91 19 105 23 105 2
0 3 -12 1 -27z m3037 8 c8 11 9 11 6 1 -4 -16 -22 -18 -25 -2 -1 7 0 6 4 -1 4
-8 8 -7 15 2z m-3162 -35 c0 -3 -4 -8 -10 -11 -5 -3 -10 -1 -10 4 0 6 5 11 10
11 6 0 10 -2 10 -4z m1806 -8 c6 -9 9 -702 4 -1070 0 -21 -11 -33 -52 -58 -29
-18 -79 -57 -111 -88 -56 -55 -59 -56 -73 -37 -32 44 -80 88 -135 126 l-59 39
0 544 c0 427 3 545 12 549 7 2 101 5 210 6 150 1 198 -1 204 -11z m556 -78
c57 -168 69 -228 69 -350 0 -178 -34 -277 -133 -385 -29 -32 -75 -74 -103 -95
-75 -55 -315 -166 -329 -152 -9 8 -7 1057 1 1066 4 3 110 5 237 4 l230 -3 28
-85z m-2495 58 c-3 -8 -6 -5 -6 6 -1 11 2 17 5 13 3 -3 4 -12 1 -19z m3228
-58 c-4 -26 -3 -31 4 -20 14 19 13 20 12 -190 -1 -91 2 -187 7 -214 8 -37 6
-61 -4 -98 -16 -50 -35 -67 -26 -22 4 21 2 25 -8 19 -10 -6 -11 -4 -6 11 14
33 18 62 5 34 -8 -19 -13 -21 -17 -10 -3 8 -8 17 -12 20 -9 6 -62 110 -56 110
2 0 15 -17 27 -37 35 -57 41 -62 57 -46 10 10 11 17 3 26 -7 9 -9 72 -6 188 3
96 6 206 6 244 1 56 3 65 11 45 5 -14 7 -41 3 -60z m-3117 24 c-14 -14 -16
-14 -22 1 -3 9 -2 13 3 10 5 -3 13 0 16 6 4 5 10 8 13 4 3 -3 -1 -12 -10 -21z
m3264 -6 c-7 -7 -12 -8 -12 -2 0 14 12 26 19 19 2 -3 -1 -11 -7 -17z m58 -60
c0 -5 -7 -3 -15 6 -8 8 -15 18 -15 22 0 3 7 1 15 -6 8 -7 15 -17 15 -22z m937
-11 c29 -32 33 -43 33 -92 0 -52 -1 -55 -25 -55 -23 0 -25 4 -25 44 0 36 -5
48 -26 65 -34 27 -74 27 -109 -1 -25 -19 -27 -26 -22 -70 6 -45 5 -48 -17 -48
-28 0 -36 16 -36 76 0 85 49 128 139 121 47 -3 59 -9 88 -40z m-5372 -52 l58
-45 63 45 c34 25 65 45 68 45 3 0 6 -15 6 -34 0 -30 -6 -37 -62 -72 l-63 -39
63 -3 c58 -3 62 -5 62 -27 0 -13 -5 -27 -11 -30 -6 -4 -64 -4 -130 0 l-119 7
0 31 0 30 55 -6 c30 -3 55 -4 55 -1 0 2 -25 20 -55 40 -48 33 -55 41 -55 70 0
19 2 34 4 34 2 0 30 -20 61 -45z m1151 -11 c-10 -19 -15 -23 -16 -12 0 9 5 20
11 23 6 4 8 14 4 24 -5 12 -3 13 5 5 9 -9 8 -19 -4 -40z m3194 -27 c0 -5 -4
-5 -10 -2 -5 3 -10 14 -10 23 0 15 2 15 10 2 5 -8 10 -19 10 -23z m10 -52 c0
-5 -5 -3 -10 5 -5 8 -10 20 -10 25 0 6 5 3 10 -5 5 -8 10 -19 10 -25z m-3223
-32 c-3 -10 -5 -4 -5 12 0 17 2 24 5 18 2 -7 2 -21 0 -30z m3230 -5 c-3 -8 -6
-5 -6 6 -1 11 2 17 5 13 3 -3 4 -12 1 -19z m-3230 -50 c-3 -7 -5 -2 -5 12 0
14 2 19 5 13 2 -7 2 -19 0 -25z m947 6 c22 -8 20 -42 -4 -98 -21 -46 -39 -57
-58 -33 -7 8 -3 30 15 75 14 34 27 62 28 62 2 0 10 -3 19 -6z m2286 -15 c0 -6
-4 -7 -10 -4 -5 3 -10 11 -10 16 0 6 5 7 10 4 6 -3 10 -11 10 -16z m-2210 -41
c-1 -18 -2 -39 -1 -45 1 -18 38 -16 49 2 7 13 19 5 67 -39 33 -30 57 -56 55
-58 -3 -2 -13 -9 -22 -16 -14 -11 -21 -10 -45 4 -16 10 -23 12 -15 4 6 -8 12
-18 12 -22 0 -18 -25 -6 -73 37 -30 26 -62 45 -75 45 -22 0 -24 3 -17 36 14
75 68 118 65 52z m143 1 c9 -12 17 -31 17 -43 0 -12 5 -27 11 -33 6 -6 7 -13
1 -17 -5 -3 -30 15 -56 39 -51 49 -58 52 -76 30 -19 -23 -28 -18 -22 11 9 47
89 56 125 13z m89 -31 c18 -65 11 -92 -20 -86 -20 4 -53 123 -38 138 25 25 42
10 58 -52z m2813 52 c3 -6 3 -19 0 -31 -10 -31 -49 -21 -53 14 -3 23 0 27 22
27 14 0 28 -5 31 -10z m-4085 -25 c0 -8 -4 -15 -10 -15 -5 0 -7 7 -4 15 4 8 8
15 10 15 2 0 4 -7 4 -15z m273 -51 c2 -16 6 -36 9 -44 3 -8 16 -43 28 -77 12
-33 48 -107 81 -162 55 -95 89 -174 89 -206 0 -7 6 -16 13 -19 8 -3 4 -12 -13
-26 -23 -21 -25 -21 -38 -3 -7 10 -11 26 -8 36 2 11 2 16 -1 13 -7 -7 -34 59
-35 84 -1 8 -4 17 -7 20 -10 9 -99 193 -116 239 -8 24 -15 75 -15 114 0 70 7
87 13 31z m2687 -158 c-12 -32 -34 -80 -50 -106 -15 -25 -33 -63 -41 -83 -7
-20 -17 -37 -21 -37 -4 0 -8 -13 -8 -29 0 -16 -6 -36 -13 -43 -8 -7 -12 -19
-9 -27 3 -8 0 -11 -6 -7 -6 4 -8 -2 -5 -14 4 -15 0 -20 -13 -20 -16 0 -17 -2
-4 -10 20 -13 6 -13 -23 1 l-24 11 23 67 c14 36 27 73 30 81 4 13 6 13 15 0 8
-12 9 -11 5 5 -4 13 11 49 44 105 28 47 50 89 50 93 0 5 5 5 12 1 7 -4 8 -3 4
5 -6 10 -1 32 32 121 6 17 8 25 12 60 2 14 6 -6 7 -45 3 -53 -1 -84 -17 -129z
m367 172 c-3 -8 -6 -5 -6 6 -1 11 2 17 5 13 3 -3 4 -12 1 -19z m-3352 -8 c10
-11 16 -20 13 -20 -3 0 -13 9 -23 20 -10 11 -16 20 -13 20 3 0 13 -9 23 -20z
m-18 -32 c-3 -8 -6 -5 -6 6 -1 11 2 17 5 13 3 -3 4 -12 1 -19z m1073 -58 c0
-5 -4 -10 -10 -10 -5 0 -10 5 -10 10 0 6 5 10 10 10 6 0 10 -4 10 -10z m-1025
-10 c3 -5 1 -10 -4 -10 -6 0 -11 5 -11 10 0 6 2 10 4 10 3 0 8 -4 11 -10z
m1055 -10 c0 -5 -4 -10 -10 -10 -5 0 -10 5 -10 10 0 6 5 10 10 10 6 0 10 -4
10 -10z m2144 -21 c-3 -40 -14 -51 -14 -12 0 24 6 43 15 43 1 0 0 -14 -1 -31z
m-30 -26 c-7 -17 -10 -26 -13 -46 0 -4 -7 -2 -15 5 -15 14 -2 53 15 43 5 -4 9
2 9 11 0 10 3 15 6 11 4 -3 3 -14 -2 -24z m-3054 -53 c0 -5 -5 -10 -11 -10 -5
0 -7 5 -4 10 3 6 8 10 11 10 2 0 4 -4 4 -10z m3020 0 c0 -5 -4 -10 -10 -10 -5
0 -10 5 -10 10 0 6 5 10 10 10 6 0 10 -4 10 -10z m-2886 -36 c3 -8 2 -12 -4
-9 -6 3 -10 10 -10 16 0 14 7 11 14 -7z m-144 -24 c0 -5 -4 -10 -10 -10 -5 0
-10 5 -10 10 0 6 5 10 10 10 6 0 10 -4 10 -10z m2861 -72 c-9 -42 -19 -80 -24
-84 -4 -4 -7 -24 -7 -45 0 -21 -5 -41 -11 -45 -6 -3 -9 -19 -5 -35 3 -16 1
-29 -4 -29 -5 0 -7 -9 -5 -20 5 -28 -7 -31 -30 -8 -20 20 -20 20 5 14 14 -3
20 -3 13 0 -7 3 -11 11 -9 17 1 7 1 9 -1 5 -3 -5 -8 -8 -13 -8 -9 0 1 34 32
112 10 26 18 51 18 57 0 5 5 22 12 38 6 15 12 30 13 33 6 24 28 81 30 78 2 -2
-5 -38 -14 -80z m179 78 c0 -3 -4 -8 -10 -11 -5 -3 -10 -1 -10 4 0 6 5 11 10
11 6 0 10 -2 10 -4z m-2835 -157 c20 -61 38 -126 40 -143 3 -28 3 -29 -10 -13
-8 12 -15 14 -20 8 -3 -6 -1 -11 5 -11 7 0 9 -7 6 -16 -5 -12 -1 -14 17 -9 21
6 21 6 3 -10 -11 -8 -23 -12 -27 -8 -12 12 -22 83 -13 83 5 0 9 11 9 25 0 27
-10 33 -18 13 -3 -7 -6 5 -6 28 -1 22 -5 44 -10 50 -11 10 -27 114 -18 114 3
0 22 -50 42 -111z m2928 16 c-3 -9 -8 -14 -10 -11 -3 3 -2 9 2 15 9 16 15 13
8 -4z m-3133 -9 c0 -3 -4 -8 -10 -11 -5 -3 -10 -1 -10 4 0 6 5 11 10 11 6 0
10 -2 10 -4z m441 -73 c10 -11 10 -14 2 -9 -8 4 -13 1 -13 -8 0 -9 -5 -16 -11
-16 -6 0 -8 7 -5 16 3 9 6 20 6 25 0 13 6 11 21 -8z m2163 -18 c-7 -18 -8 -18
-14 1 -9 23 -1 39 11 27 6 -6 6 -18 3 -28z m476 -71 c0 -8 -19 -13 -24 -6 -3
5 1 9 9 9 8 0 15 -2 15 -3z m-193 -90 c-3 -3 -12 -4 -19 -1 -8 3 -5 6 6 6 11
1 17 -2 13 -5z m-1885 -112 c-7 -2 -12 -18 -12 -35 0 -18 -5 -39 -11 -47 -8
-11 -9 -1 -4 35 8 59 12 68 28 58 8 -5 8 -8 -1 -11z m1043 -52 c4 -36 3 -50
-3 -40 -12 19 -23 115 -11 103 4 -4 11 -33 14 -63z m-977 -20 c34 -49 38 -60
24 -60 -11 0 -28 19 -45 53 -26 52 -31 67 -23 67 2 0 22 -27 44 -60z m907 -4
c-15 -31 -30 -56 -35 -56 -5 0 -17 -3 -27 -7 -14 -5 -11 1 10 26 15 18 27 36
27 40 0 12 42 63 47 57 2 -2 -7 -29 -22 -60z m-1300 -1 c112 -64 361 -152 525
-186 182 -37 309 -44 460 -26 235 30 481 105 684 210 92 48 88 50 132 -70 l28
-75 -25 -19 c-113 -87 -387 -183 -634 -223 -210 -33 -325 -40 -446 -26 -227
24 -382 55 -548 109 -91 30 -260 110 -300 142 -23 19 -23 22 -12 62 7 23 22
63 33 90 23 53 29 54 103 12z m-239 -209 c16 -12 17 -17 6 -28 -11 -11 -12
-10 -7 3 7 18 -19 34 -37 22 -7 -3 -8 -1 -4 5 9 16 18 15 42 -2z m2164 -10 c0
-2 -7 -7 -16 -10 -8 -3 -12 -2 -9 4 6 10 25 14 25 6z m-40 -26 c0 -5 -5 -10
-11 -10 -5 0 -7 5 -4 10 3 6 8 10 11 10 2 0 4 -4 4 -10z m24 -15 c-4 -8 -11
-15 -16 -15 -6 0 -5 6 2 15 7 8 14 15 16 15 2 0 1 -7 -2 -15z m-2116 -13 c2
-7 -1 -12 -8 -12 -6 0 -9 4 -6 9 4 5 1 12 -4 14 -6 3 -5 4 2 3 6 -1 14 -8 16
-14z m2053 -15 c-10 -9 -11 -8 -5 6 3 10 9 15 12 12 3 -3 0 -11 -7 -18z
m-1641 -123 c0 -2 -11 -4 -25 -4 -14 0 -25 4 -25 9 0 4 11 6 25 3 14 -2 25 -6
25 -8z m1285 6 c-3 -5 -1 -10 5 -10 6 0 8 -4 5 -10 -3 -5 -15 -10 -27 -10 -15
0 -19 -5 -15 -20 3 -13 1 -18 -6 -13 -6 4 -8 -1 -5 -14 3 -12 0 -20 -7 -20
-20 0 6 68 30 77 20 9 20 9 0 10 l-20 1 20 9 c27 11 27 11 20 0z m-1279 -30
c8 0 14 -7 14 -15 0 -8 -5 -15 -11 -15 -5 0 -7 5 -3 11 4 8 -1 9 -16 4 -14 -5
-20 -3 -16 3 3 6 3 12 -1 15 -5 2 -2 2 5 0 8 -1 20 -3 28 -3z m184 -35 c0 -14
-5 -25 -11 -25 -6 0 -9 6 -6 14 3 8 -1 17 -9 20 -12 5 -14 1 -9 -15 5 -15 4
-19 -4 -15 -6 4 -11 16 -11 27 0 14 7 19 25 19 20 0 25 -5 25 -25z m923 17 c3
7 6 3 6 -8 1 -12 -6 -27 -14 -34 -13 -11 -14 -10 -9 5 5 13 4 16 -4 11 -8 -5
-12 1 -12 15 0 17 3 19 14 10 11 -9 15 -9 19 1z m1547 -17 c11 -13 9 -20 -14
-44 l-26 -28 20 -18 c21 -19 21 -19 44 10 15 19 28 26 39 22 23 -9 21 -30 -3
-52 -25 -23 -25 -32 2 -46 19 -10 25 -8 49 22 25 31 29 33 44 18 14 -14 12
-20 -25 -67 -23 -29 -46 -52 -51 -52 -5 0 -50 32 -99 71 -60 47 -87 75 -82 83
45 59 77 96 82 96 4 0 13 -7 20 -15z m-3988 -118 c-16 -18 -17 -17 -42 12 -27
34 -42 38 -59 17 -8 -10 -6 -19 9 -39 24 -30 25 -43 4 -51 -9 -4 -24 4 -38 21
-21 24 -25 25 -44 12 l-21 -15 25 -36 c26 -36 25 -58 -1 -58 -13 0 -85 88 -85
105 -1 6 39 42 87 82 l88 72 47 -52 c44 -49 46 -53 30 -70z m1643 103 c3 -5 2
-10 -4 -10 -5 0 -13 5 -16 10 -3 6 -2 10 4 10 5 0 13 -4 16 -10z m639 -14 c-3
-9 -10 -16 -15 -16 -6 0 -5 9 1 21 13 24 24 20 14 -5z m-417 -22 c2 -10 0 -13
-3 -6 -9 19 -24 14 -17 -5 5 -14 3 -16 -7 -6 -15 14 -5 46 13 41 6 -3 13 -13
14 -24z m217 20 c15 -6 15 -8 -1 -21 -10 -8 -12 -12 -5 -8 8 4 12 -1 12 -15 0
-27 -20 -22 -31 8 -7 17 -5 22 9 23 14 0 14 2 -3 9 -23 10 -5 13 19 4z m323
-13 c0 -11 -5 -18 -9 -15 -4 3 -5 11 -1 19 7 21 12 19 10 -4z m-737 5 c0 -3
-4 -8 -10 -11 -5 -3 -10 -1 -10 4 0 6 5 11 10 11 6 0 10 -2 10 -4z m-143 -12
c-3 -3 -12 -4 -19 -1 -8 3 -5 6 6 6 11 1 17 -2 13 -5z m720 -16 c2 -17 0 -19
-7 -8 -5 8 -6 18 -4 22 8 12 10 10 11 -14z m-564 -3 c-3 -9 -8 -14 -10 -11 -3
3 -2 9 2 15 9 16 15 13 8 -4z m364 -27 c-3 -7 -5 -2 -5 12 0 14 2 19 5 13 2
-7 2 -19 0 -25z m350 0 c-3 -8 -6 -5 -6 6 -1 11 2 17 5 13 3 -3 4 -12 1 -19z
m-685 -20 c-7 -7 -12 -8 -12 -2 0 14 12 26 19 19 2 -3 -1 -11 -7 -17z m508 1
c0 -6 -4 -7 -10 -4 -5 3 -10 11 -10 16 0 6 5 7 10 4 6 -3 10 -11 10 -16z
m-153 -11 c-3 -8 -6 -5 -6 6 -1 11 2 17 5 13 3 -3 4 -12 1 -19z m-210 -60 c-3
-8 -6 -5 -6 6 -1 11 2 17 5 13 3 -3 4 -12 1 -19z m1958 -28 c11 -12 13 -20 6
-20 -7 0 -23 -11 -36 -25 -40 -40 -30 -96 22 -123 36 -20 59 -14 91 22 29 33
31 34 47 16 16 -17 14 -21 -20 -59 -45 -49 -91 -61 -141 -38 -87 42 -101 164
-27 224 34 28 35 28 58 3z m-1651 2 c3 -5 -1 -9 -9 -9 -8 0 -12 4 -9 9 3 4 7
8 9 8 2 0 6 -4 9 -8z m-2014 -194 c-29 -62 -55 -115 -57 -117 -2 -3 -13 4 -24
15 -18 18 -19 24 -8 48 11 24 10 30 -14 54 -24 24 -30 25 -56 15 -25 -9 -32
-8 -47 8 -9 11 -15 21 -13 23 2 2 54 29 114 59 l110 55 24 -23 24 -23 -53
-114z m3484 -101 c36 -48 66 -91 66 -95 0 -4 -9 -13 -20 -20 -17 -10 -34 -8
-107 18 -47 17 -88 29 -90 27 -2 -3 14 -26 35 -53 53 -68 54 -69 33 -88 -18
-16 -22 -13 -86 71 -37 48 -72 93 -77 99 -5 8 1 18 18 29 28 18 14 21 193 -43
8 -3 -7 22 -33 57 -47 60 -48 63 -30 82 10 11 21 16 24 12 4 -5 37 -48 74 -96z
m-3211 33 c52 -32 52 -33 36 -61 -10 -19 -12 -19 -46 11 -27 24 -38 28 -48 20
-14 -12 -12 -25 12 -70 21 -41 16 -76 -14 -100 -32 -25 -62 -21 -111 17 -42
32 -49 50 -27 71 14 14 18 14 22 3 9 -24 42 -51 63 -51 25 0 25 16 0 74 -19
42 -20 48 -6 75 14 26 29 36 62 40 5 0 31 -12 57 -29z m235 -160 c71 -41 80
-52 64 -77 -6 -10 -12 -10 -28 2 -10 8 -24 15 -31 15 -7 0 -33 -36 -60 -80
-26 -44 -50 -80 -53 -80 -4 0 -14 6 -24 13 -17 13 -16 18 30 97 l48 83 -27 21
c-20 17 -24 25 -16 39 6 9 13 16 17 14 4 -2 40 -23 80 -47z m2627 -7 c1 -29
66 -143 82 -143 7 0 17 -8 22 -18 8 -14 2 -22 -31 -41 -33 -19 -42 -20 -49
-10 -5 8 -7 19 -5 25 6 15 -68 140 -80 137 -6 -1 -15 7 -22 17 -10 16 -7 21
21 39 40 24 62 22 62 -6z m-182 -105 c4 -18 9 -77 13 -130 l7 -97 -28 -7 c-23
-6 -34 1 -82 47 -87 86 -119 129 -102 140 27 17 45 7 98 -56 30 -36 56 -63 58
-61 2 2 -1 43 -8 91 -10 73 -10 88 2 96 25 16 37 10 42 -23z m-2189 -23 c33
-15 56 -31 56 -40 0 -24 -25 -28 -58 -11 -28 14 -30 14 -40 -10 -11 -22 -9
-26 23 -41 38 -18 39 -21 25 -43 -8 -12 -14 -12 -45 3 l-36 17 -10 -26 c-5
-15 -8 -27 -7 -28 2 -1 20 -9 41 -19 33 -15 36 -20 27 -37 -10 -19 -11 -19
-68 6 -31 14 -60 28 -63 32 -7 8 82 221 92 222 4 0 32 -11 63 -25z m267 -100
c56 -20 79 -42 79 -76 0 -30 -19 -54 -49 -64 -18 -5 -18 -9 -6 -38 7 -18 16
-47 20 -64 6 -32 6 -32 -23 -22 -24 8 -32 19 -43 62 -17 61 -37 68 -54 17 -12
-36 -30 -46 -53 -32 -12 8 -1 54 53 220 6 16 23 15 76 -3z m1600 -18 c23 -15
46 -56 54 -98 12 -65 -35 -127 -103 -136 -49 -7 -96 16 -117 57 -20 40 -19
119 3 147 36 47 114 61 163 30z m-1329 -56 c17 -6 32 -31 57 -90 18 -45 35
-80 37 -78 2 2 10 35 17 73 12 64 15 69 37 66 13 -1 25 -3 26 -5 1 -1 -8 -55
-20 -119 -16 -92 -24 -118 -36 -118 -30 0 -49 25 -83 109 l-35 84 -11 -59
c-20 -100 -21 -104 -34 -104 -36 1 -37 14 -17 125 11 60 20 112 20 117 0 10
13 10 42 -1z m984 -22 c24 -19 26 -61 6 -89 l-19 -26 43 -44 c30 -31 40 -46
31 -52 -24 -15 -43 -7 -82 32 -53 55 -66 53 -58 -10 6 -49 5 -50 -21 -50 -14
0 -26 1 -26 3 0 1 -9 53 -20 116 -11 63 -18 116 -17 117 1 2 25 7 52 12 52 11
92 7 111 -9z m-312 -40 c20 -16 26 -29 26 -58 0 -46 -25 -72 -78 -80 -37 -7
-37 -7 -34 -49 3 -41 3 -42 -27 -42 -31 0 -31 1 -31 53 0 28 -3 82 -6 119 -8
75 -8 75 77 77 33 1 54 -5 73 -20z"/>
<path d="M5840 7991 c0 -11 -3 -26 -6 -34 -6 -18 27 -28 50 -15 22 12 20 45
-3 58 -29 15 -41 12 -41 -9z"/>
<path d="M4670 7963 c0 -41 13 -64 33 -61 51 8 46 70 -7 76 -20 3 -26 -1 -26
-15z"/>
<path d="M6157 7858 l-27 -38 26 -11 c15 -5 29 -8 31 -5 2 2 3 24 1 49 l-3 44
-28 -39z"/>
<path d="M4238 7755 c4 -47 15 -55 45 -32 16 11 15 15 -15 44 l-33 32 3 -44z"/>
<path d="M6920 7491 l-21 -31 25 -11 c20 -9 29 -9 41 1 20 17 19 33 -4 54 -18
16 -20 16 -41 -13z"/>
<path d="M3658 7469 c-24 -14 -22 -31 6 -58 l24 -22 16 22 c20 29 20 34 0 53
-18 19 -23 19 -46 5z"/>
<path d="M3276 7003 c14 -21 27 -39 28 -41 2 -1 11 9 20 23 17 25 17 26 -18
40 -53 22 -58 19 -30 -22z"/>
<path d="M5175 6880 c3 -5 13 -10 21 -10 8 0 14 5 14 10 0 6 -9 10 -21 10 -11
0 -17 -4 -14 -10z"/>
<path d="M5242 6878 c7 -20 48 -23 48 -4 0 11 -9 16 -26 16 -16 0 -24 -5 -22
-12z"/>
<path d="M5330 6866 c0 -17 34 -31 50 -21 16 10 -8 35 -31 35 -11 0 -19 -6
-19 -14z"/>
<path d="M5160 6815 c0 -8 2 -15 4 -15 2 0 11 -3 20 -6 12 -4 16 0 16 15 0 14
-6 21 -20 21 -11 0 -20 -7 -20 -15z"/>
<path d="M5235 6811 c-7 -13 17 -24 40 -19 9 1 16 8 16 13 0 14 -48 19 -56 6z"/>
<path d="M5330 6796 c0 -7 10 -16 22 -20 28 -7 49 11 28 24 -22 14 -50 12 -50
-4z"/>
<path d="M5172 6758 c3 -7 12 -14 21 -16 12 -2 15 1 11 12 -7 19 -38 22 -32 4z"/>
<path d="M5232 6738 c3 -7 17 -14 31 -16 21 -3 26 0 21 12 -7 19 -58 22 -52 4z"/>
<path d="M5327 6743 c-14 -13 -6 -23 18 -23 28 0 34 15 9 24 -19 7 -19 7 -27
-1z"/>
<path d="M3010 6595 l34 -35 14 26 c7 14 12 27 10 28 -2 2 -23 6 -48 10 l-45
7 35 -36z"/>
<path d="M5390 6305 c0 -8 5 -15 10 -15 6 0 10 7 10 15 0 8 -4 15 -10 15 -5 0
-10 -7 -10 -15z"/>
<path d="M5344 6265 c21 -16 32 -13 21 4 -3 6 -14 11 -23 11 -15 -1 -15 -2 2
-15z"/>
<path d="M5442 6273 c-6 -2 -10 -9 -7 -13 7 -11 35 -2 35 11 0 10 -8 10 -28 2z"/>
<path d="M4796 6231 c-5 -8 -2 -20 8 -29 17 -17 19 -9 7 22 -6 15 -10 16 -15
7z"/>
<path d="M5990 6228 c0 -7 5 -20 10 -28 8 -12 10 -11 10 7 0 12 -4 25 -10 28
-5 3 -10 0 -10 -7z"/>
<path d="M5374 6216 c-10 -8 -16 -17 -13 -20 3 -3 14 3 24 14 21 23 17 26 -11
6z"/>
<path d="M5410 6216 c0 -2 7 -9 15 -16 12 -10 15 -10 15 4 0 9 -7 16 -15 16
-8 0 -15 -2 -15 -4z"/>
<path d="M4730 6182 c0 -5 7 -13 16 -16 10 -4 14 -1 12 6 -5 15 -28 23 -28 10z"/>
<path d="M4850 6180 c-8 -5 -11 -12 -7 -16 4 -4 13 -2 19 4 15 15 7 24 -12 12z"/>
<path d="M5926 6182 c-3 -6 1 -13 10 -16 23 -9 28 -2 10 13 -8 7 -17 8 -20 3z"/>
<path d="M6044 6176 c-10 -8 -17 -17 -14 -19 3 -3 14 1 24 9 11 7 17 16 15 19
-3 3 -14 -2 -25 -9z"/>
<path d="M5304 6140 c-11 -9 -50 -25 -89 -34 -52 -12 -76 -24 -97 -46 -15 -17
-22 -30 -15 -30 7 0 20 -14 30 -31 14 -26 21 -30 43 -25 14 4 32 2 40 -4 7 -7
18 -9 24 -5 6 4 17 2 25 -5 9 -7 59 -11 142 -10 151 1 173 2 192 14 8 5 28 9
45 10 23 1 34 8 44 29 7 15 18 27 23 27 6 0 -3 13 -18 28 -27 27 -64 43 -131
57 -18 4 -36 13 -39 21 -6 16 -49 19 -58 4 -8 -12 -92 -13 -99 -1 -11 17 -44
18 -62 1z m24 -92 c9 -9 18 -9 37 0 34 15 70 15 95 0 16 -10 24 -10 40 0 30
19 60 15 60 -7 0 -22 -54 -35 -125 -33 -22 1 -53 2 -70 3 -40 1 -115 20 -115
29 0 22 58 28 78 8z"/>
<path d="M4771 6135 c-1 -12 -6 -26 -13 -33 -8 -8 -8 -12 -1 -12 19 0 31 24
22 45 -8 20 -8 20 -8 0z"/>
<path d="M4800 6125 c0 -2 11 -10 25 -19 20 -13 25 -14 25 -2 0 7 -11 16 -25
18 -14 3 -25 4 -25 3z"/>
<path d="M5968 6119 c-10 -5 -18 -14 -18 -19 0 -14 28 -1 34 16 6 16 6 16 -16
3z"/>
<path d="M6023 6103 c9 -9 19 -14 23 -11 10 10 -6 28 -24 28 -15 0 -15 -1 1
-17z"/>
<path d="M5214 5911 c16 -18 16 -21 1 -50 -16 -32 -4 -44 14 -13 9 16 11 16
25 -3 24 -33 28 -11 7 39 -15 35 -26 46 -42 46 -21 0 -21 -1 -5 -19z"/>
<path d="M5069 5883 c5 -10 12 -26 15 -35 9 -28 27 -21 24 9 -2 19 2 28 15 31
12 3 17 -3 17 -21 0 -31 26 -55 42 -39 9 9 9 12 0 12 -16 0 -9 39 9 51 9 6
-12 9 -59 9 -66 0 -71 -2 -63 -17z"/>
<path d="M5298 5870 c-5 -35 24 -62 45 -41 8 8 6 11 -6 11 -13 0 -15 5 -8 22
8 23 31 37 31 19 0 -6 -1 -12 -2 -13 -1 -2 4 -13 11 -26 16 -31 28 -21 23 21
-4 32 -6 34 -47 35 -40 2 -43 0 -47 -28z"/>
<path d="M5415 5879 c-9 -27 22 -64 41 -48 9 7 19 7 32 0 25 -13 42 4 42 41 0
18 -5 28 -15 28 -12 0 -14 -7 -9 -26 5 -20 3 -25 -7 -22 -8 3 -15 10 -15 16
-1 7 -2 17 -3 23 -2 18 -21 -1 -21 -22 0 -10 -4 -19 -10 -19 -5 0 -10 11 -10
25 0 30 -16 33 -25 4z"/>
<path d="M5546 5884 c-10 -26 -7 -39 14 -52 26 -16 60 0 60 28 0 11 5 20 10
20 6 0 10 -8 10 -19 0 -19 23 -45 32 -36 3 3 0 21 -6 40 -11 34 -12 35 -62 35
-38 0 -53 -4 -58 -16z m54 -8 c0 -15 -14 -35 -21 -30 -15 9 -10 34 6 34 8 0
15 -2 15 -4z"/>
<path d="M5702 5888 c-18 -18 -14 -42 8 -56 12 -7 18 -17 15 -22 -10 -16 21
-11 35 5 10 12 7 17 -14 26 -32 15 -34 37 -3 49 22 9 22 9 -3 9 -15 1 -31 -4
-38 -11z"/>
<path d="M2843 6368 c-25 -33 -24 -39 12 -54 41 -17 40 -17 49 12 11 38 -38
71 -61 42z"/>
<path d="M2740 6070 c-14 -27 -5 -37 39 -46 32 -7 32 -6 29 27 -2 28 -7 35
-30 37 -19 2 -30 -3 -38 -18z"/>
<path d="M2716 5751 l-28 -6 46 -22 46 -23 0 30 c0 32 -6 34 -64 21z"/>
<path d="M3901 5584 c0 -11 3 -14 6 -6 3 7 2 16 -1 19 -3 4 -6 -2 -5 -13z"/>
<path d="M3903 5400 c0 -25 2 -35 4 -22 2 12 2 32 0 45 -2 12 -4 2 -4 -23z"/>
<path d="M5288 5515 c-25 -25 -58 -123 -58 -172 0 -16 9 -89 21 -163 11 -74
23 -162 26 -196 5 -57 4 -63 -25 -95 -42 -48 -51 -100 -22 -127 28 -26 61 -32
111 -21 26 6 63 5 102 -1 76 -14 110 -3 132 39 22 43 19 86 -15 224 -45 184
-60 264 -60 312 0 40 3 45 38 62 44 21 64 74 44 118 -17 36 -49 45 -166 45
-96 0 -105 -2 -128 -25z m165 -16 c42 -11 43 -16 21 -79 -9 -25 -16 -61 -16
-80 -2 -55 19 -168 47 -255 40 -124 47 -329 8 -225 l-11 30 -96 0 -96 0 0 84
c0 57 -9 120 -26 193 -29 119 -29 188 1 275 14 39 23 50 48 57 44 13 75 13
120 0z m27 -684 c0 -16 -6 -25 -15 -25 -16 0 -19 9 -9 34 9 25 24 19 24 -9z"/>
<path d="M5343 5424 c-40 -31 -42 -62 -9 -93 24 -23 25 -23 56 -5 45 27 49 59
14 95 l-29 29 -32 -26z m14 -48 c0 -24 -4 -33 -14 -29 -17 6 -17 50 0 56 6 3
12 6 13 6 0 1 1 -14 1 -33z m51 11 c4 -21 -16 -49 -29 -41 -5 3 -9 19 -9 35 0
24 4 30 17 27 10 -2 19 -11 21 -21z"/>
<path d="M5310 5216 c0 -8 4 -17 9 -20 5 -3 7 -15 4 -25 -3 -10 0 -22 6 -25 7
-5 11 3 11 19 l0 27 40 -32 c33 -26 41 -29 46 -16 3 8 1 28 -4 43 -9 25 -10
26 -11 6 -1 -30 -9 -28 -51 7 -38 33 -50 37 -50 16z"/>
<path d="M5351 5027 c9 -7 20 -27 23 -45 10 -44 30 -42 23 3 -5 29 -3 35 13
35 12 0 20 -10 24 -35 4 -19 12 -35 18 -35 6 0 8 13 4 35 -4 22 -3 35 4 35 5
0 10 5 10 10 0 6 -29 10 -67 10 -56 -1 -65 -3 -52 -13z"/>
<path d="M5903 5450 c-50 -62 -57 -80 -28 -80 8 0 21 -21 30 -52 15 -52 85
-138 111 -138 7 0 29 23 49 50 20 28 42 50 49 50 7 0 23 -18 35 -41 l23 -41
-47 -48 c-72 -73 -86 -78 -128 -46 -19 15 -50 49 -69 76 -18 27 -44 54 -57 60
-14 6 -42 25 -63 41 -24 20 -36 25 -32 14 5 -11 -5 -29 -29 -53 -20 -20 -39
-50 -42 -67 -6 -29 -5 -28 39 20 25 28 46 53 46 58 0 4 6 7 13 7 16 0 72 -53
145 -138 72 -84 80 -87 122 -50 85 73 120 110 120 126 -1 33 -59 112 -83 112
-8 0 -30 -22 -48 -50 -19 -27 -39 -50 -44 -50 -20 0 -84 75 -98 115 -8 22 -17
47 -21 57 -5 12 0 20 20 30 15 7 36 28 46 46 10 18 14 31 9 28 -5 -4 -11 1
-13 11 -2 11 -18 -2 -55 -47z"/>
<path d="M5794 5375 c-24 -36 -14 -38 17 -4 17 18 22 29 13 29 -7 0 -21 -11
-30 -25z"/>
<path d="M6902 5175 c0 -16 2 -22 5 -12 2 9 2 23 0 30 -3 6 -5 -1 -5 -18z"/>
<path d="M6890 5090 c0 -5 5 -10 10 -10 6 0 10 5 10 10 0 6 -4 10 -10 10 -5 0
-10 -4 -10 -10z"/>
<path d="M4929 5153 c12 -23 29 -38 37 -31 2 3 -8 15 -22 29 -25 23 -26 23
-15 2z"/>
<path d="M6682 4695 c0 -16 2 -22 5 -12 2 9 2 23 0 30 -3 6 -5 -1 -5 -18z"/>
<path d="M4540 4288 c0 -6 -7 -19 -16 -29 -20 -22 -11 -39 21 -39 12 0 25 -7
29 -15 7 -18 30 -20 23 -2 -2 6 0 20 4 29 6 10 5 19 -1 23 -5 3 -10 -1 -10 -9
0 -9 -4 -16 -9 -16 -11 0 -24 48 -16 60 4 6 -1 10 -9 10 -9 0 -16 -5 -16 -12z
m10 -42 c0 -3 -4 -8 -10 -11 -5 -3 -10 -1 -10 4 0 6 5 11 10 11 6 0 10 -2 10
-4z"/>
<path d="M6271 4284 c0 -11 3 -14 6 -6 3 7 2 16 -1 19 -3 4 -6 -2 -5 -13z"/>
<path d="M6232 4268 c6 -17 36 -34 44 -25 4 4 -1 14 -12 22 -23 18 -37 19 -32
3z"/>
<path d="M6185 4262 c-6 -5 -31 -17 -57 -26 -49 -18 -58 -35 -38 -66 13 -21
46 1 43 29 -3 24 24 29 33 6 11 -27 24 -16 18 15 -7 34 11 42 21 10 6 -19 35
-29 35 -12 -1 8 -36 52 -42 52 -2 0 -8 -4 -13 -8z m-65 -72 c0 -5 -7 -10 -15
-10 -8 0 -15 5 -15 10 0 6 7 10 15 10 8 0 15 -4 15 -10z"/>
<path d="M4615 4210 c-4 -12 -5 -23 -3 -24 1 -1 15 -7 30 -13 24 -11 27 -10
33 14 7 30 7 29 -27 38 -21 5 -27 3 -33 -15z"/>
<path d="M4726 4194 c-16 -15 -14 -24 7 -52 8 -10 15 -9 33 3 22 14 24 14 24
-4 0 -23 23 -33 56 -25 15 4 24 2 24 -6 0 -7 7 -10 15 -6 8 3 15 2 15 -3 0 -5
11 -11 25 -13 19 -4 25 -1 25 13 0 11 7 19 15 19 9 0 15 -9 15 -25 0 -14 6
-25 13 -25 15 0 41 40 31 48 -4 4 -9 1 -12 -7 -4 -11 -8 -9 -21 7 -21 27 -79
39 -87 18 -9 -24 -34 -6 -34 25 0 20 -5 29 -16 29 -8 0 -12 -5 -9 -10 10 -16
-5 -50 -22 -50 -10 0 -14 6 -10 20 4 15 0 20 -13 20 -10 0 -22 9 -25 20 -8 24
-28 26 -49 4z"/>
<path d="M5983 4172 c-28 -15 -30 -19 -19 -34 18 -24 29 -23 21 2 -7 23 10 28
19 5 3 -8 10 -15 16 -15 7 0 8 6 0 19 -15 29 8 39 26 12 9 -12 20 -19 25 -15
14 8 -19 44 -40 44 -9 -1 -30 -9 -48 -18z"/>
<path d="M5915 4130 c5 -9 2 -10 -14 -5 -11 3 -21 3 -21 0 0 -13 21 -45 29
-45 13 0 20 50 8 57 -6 4 -7 1 -2 -7z"/>
<path d="M5077 4123 c-12 -12 -8 -45 6 -40 6 2 11 11 9 21 -2 9 2 16 7 16 6 0
10 -11 9 -25 -1 -14 -8 -25 -15 -25 -7 0 -13 -5 -13 -11 0 -7 10 -9 26 -5 22
6 25 4 19 -14 -8 -24 2 -26 26 -4 12 11 25 14 36 9 37 -17 73 -13 88 8 8 12
15 16 15 9 0 -6 5 -12 11 -12 6 0 9 7 7 17 -4 24 -39 26 -45 2 -6 -22 -23 -26
-23 -4 0 20 -10 19 -26 -2 -12 -17 -13 -17 -14 3 0 23 -41 41 -61 28 -6 -3
-13 3 -16 15 -5 20 -32 28 -46 14z m93 -53 c0 -5 -7 -10 -15 -10 -8 0 -15 5
-15 10 0 6 7 10 15 10 8 0 15 -4 15 -10z"/>
<path d="M5771 4104 c-15 -20 -21 -22 -21 -10 0 21 -36 21 -48 0 -6 -11 -11
-13 -16 -5 -9 14 -46 15 -46 1 0 -5 -7 -10 -15 -10 -8 0 -15 -5 -15 -11 0 -8
-4 -8 -15 1 -25 20 -35 6 -14 -20 18 -23 20 -24 30 -7 10 18 12 18 30 1 17
-15 21 -16 37 -2 9 9 22 13 29 11 6 -2 13 6 15 19 4 22 5 22 18 -7 10 -23 14
-26 17 -13 3 10 12 17 21 16 43 -3 54 2 49 22 -3 11 -1 20 3 20 5 0 12 -9 15
-20 3 -11 11 -20 16 -20 11 0 11 3 -1 34 -13 36 -61 36 -89 0z m39 -14 c0 -5
-7 -10 -15 -10 -8 0 -15 5 -15 10 0 6 7 10 15 10 8 0 15 -4 15 -10z m-140 -26
c0 -8 -4 -12 -10 -9 -5 3 -10 10 -10 16 0 5 5 9 10 9 6 0 10 -7 10 -16z"/>
<path d="M5325 4056 c2 -35 15 -46 15 -13 0 34 16 35 24 2 4 -14 13 -25 20
-25 11 0 12 7 7 28 -6 21 -14 28 -37 30 -26 3 -30 0 -29 -22z"/>
<path d="M5415 4072 c-3 -3 -5 -16 -5 -29 0 -19 5 -23 31 -23 25 0 29 3 24 19
-9 29 10 34 23 6 15 -33 28 -31 41 7 11 31 11 31 -9 13 -18 -16 -20 -16 -20
-2 0 13 -9 17 -40 15 -22 -1 -42 -4 -45 -6z"/>
<path d="M3533 3563 c-38 -19 -40 -24 -15 -46 16 -15 19 -13 39 24 24 43 22
45 -24 22z"/>
<path d="M4586 2974 c-3 -9 -6 -25 -6 -35 0 -16 6 -20 28 -17 21 2 27 8 27 27
0 29 -40 49 -49 25z"/>
<path d="M6115 2955 c-29 -28 -30 -43 -11 -90 18 -43 55 -55 92 -30 23 15 26
22 21 58 -4 28 -14 49 -32 64 -33 29 -40 29 -70 -2z"/>
<path d="M5777 2868 c8 -43 8 -43 39 -30 38 18 30 56 -13 60 -32 3 -33 3 -26
-30z"/>
<path d="M5470 2825 c0 -34 2 -36 28 -33 23 3 27 8 27 33 0 25 -4 30 -27 33
-26 3 -28 1 -28 -33z"/>
<path d="M5290 2411 c-63 -26 -126 -84 -157 -144 -37 -72 -39 -190 -4 -257 79
-152 247 -212 396 -142 109 52 168 146 168 267 0 115 -54 205 -154 260 -70 38
-180 45 -249 16z m154 -110 l36 -68 75 -13 c42 -7 77 -16 80 -19 2 -4 -21 -32
-51 -63 l-55 -57 11 -77 c5 -42 8 -79 6 -81 -2 -2 -36 10 -75 28 l-71 32 -71
-32 c-39 -18 -73 -30 -76 -27 -2 2 0 37 6 77 l10 72 -55 62 c-30 34 -54 64
-54 67 0 2 35 10 78 17 l78 13 37 69 c21 38 42 69 46 69 5 0 25 -31 45 -69z"/>
<path d="M5385 2231 c-9 -28 -53 -61 -81 -61 -30 0 -30 -5 2 -43 21 -25 25
-38 21 -69 -3 -21 -4 -38 -2 -38 1 0 19 7 39 15 34 14 40 14 68 0 17 -8 33
-15 35 -15 1 0 3 19 3 43 0 33 6 49 25 67 30 28 32 40 5 40 -30 0 -69 21 -75
41 -3 9 -12 22 -20 29 -10 9 -15 7 -20 -9z"/>
<path d="M2180 8396 c0 -2 23 -45 52 -96 l52 -93 43 48 c24 26 42 49 41 50 -8
7 -188 95 -188 91z"/>
<path d="M1310 6978 c0 -8 137 -118 147 -118 10 0 47 100 40 107 -7 6 -187 17
-187 11z"/>
<path d="M1035 6020 c-10 -11 -21 -37 -25 -59 -8 -46 -9 -46 83 -57 l57 -6 0
50 c0 43 -4 54 -26 71 -33 26 -66 27 -89 1z"/>
<path d="M1086 5410 c-65 -21 -106 -87 -106 -172 l0 -38 165 0 165 0 0 55 c0
68 -18 106 -64 134 -39 25 -117 35 -160 21z"/>
<path d="M1363 3931 c-39 -31 -75 -60 -80 -65 -7 -7 187 2 196 10 5 4 -29 103
-37 108 -4 2 -39 -22 -79 -53z"/>
<path d="M9323 3913 c-3 -10 -12 -33 -20 -52 -7 -19 -11 -36 -9 -39 4 -4 198
-21 203 -18 3 2 -155 126 -162 126 -3 0 -8 -8 -12 -17z"/>
<path d="M9098 3275 c-21 -42 -21 -48 -7 -73 18 -34 63 -56 95 -48 21 6 83 81
73 90 -2 2 -34 20 -71 41 l-68 37 -22 -47z"/>
<path d="M2753 2102 c-2 -10 -19 -56 -38 -101 l-33 -82 27 17 c14 9 55 37 90
62 l64 45 -34 29 c-56 47 -70 53 -76 30z"/>
<path d="M7987 1982 c-31 -32 -35 -76 -11 -110 20 -29 55 -28 104 4 l39 26
-41 54 c-22 30 -46 54 -52 54 -7 0 -24 -13 -39 -28z"/>
<path d="M6180 1210 c-55 -55 14 -175 80 -140 31 17 42 55 30 101 -16 59 -71
78 -110 39z"/>
<path d="M5045 1335 c-32 -31 -35 -103 -7 -128 47 -43 112 -5 112 63 0 44 -34
90 -65 90 -9 0 -27 -11 -40 -25z"/>
</g>
</svg>
