<svg id="Layer_1" data-name="Layer 1" xmlns="http://www.w3.org/2000/svg" xmlns:xlink="http://www.w3.org/1999/xlink" viewBox="0 0 569.65 246.96"><defs><style>.cls-1{fill:#00add8;}.cls-2{fill:#1b3769;}.cls-3,.cls-4,.cls-5{fill-rule:evenodd;}.cls-3{fill:url(#_294_382_GRADE_4C);}.cls-4{fill:url(#_294_382_GRADE_4C-2);}.cls-5{fill:url(#_294_382_GRADE_4C-3);}</style><linearGradient id="_294_382_GRADE_4C" x1="298.33" y1="169.53" x2="298.33" y2="68.39" gradientUnits="userSpaceOnUse"><stop offset="0" stop-color="#1b3769"/><stop offset="0.13" stop-color="#38535e"/><stop offset="0.43" stop-color="#768c49"/><stop offset="0.69" stop-color="#a2b639"/><stop offset="0.89" stop-color="#bed02f"/><stop offset="1" stop-color="#c8da2b"/></linearGradient><linearGradient id="_294_382_GRADE_4C-2" x1="288.71" y1="169.53" x2="288.71" y2="68.39" xlink:href="#_294_382_GRADE_4C"/><linearGradient id="_294_382_GRADE_4C-3" x1="292.72" y1="169.54" x2="292.72" y2="68.39" xlink:href="#_294_382_GRADE_4C"/></defs><path class="cls-1" d="M46.17,109.9A4.94,4.94,0,0,1,51,105h1.49c2.06,0,3.56,1.12,4.87,2.81l88.24,112V109.53a4.68,4.68,0,1,1,9.35,0v123.4a4,4,0,0,1-3.92,4.11h-.75c-1.87,0-3.37-1.31-4.86-3.18l-89.93-114V232.55a4.68,4.68,0,1,1-9.35,0Z" transform="translate(-46.17 -45)"/><path class="cls-1" d="M335.94,109.9A5,5,0,0,1,340.8,105h.94c2.06,0,3.55,1.12,4.86,2.81l51,75.16,51.05-75.16a5.8,5.8,0,0,1,4.86-2.81h.93a4.94,4.94,0,0,1,4.86,4.86V232.37a4.86,4.86,0,1,1-9.72,0V122.8l-48.05,69.93a4.7,4.7,0,0,1-8.23,0l-48-69.93V232.55a4.68,4.68,0,1,1-9.35,0Z" transform="translate(-46.17 -45)"/><path class="cls-2" d="M193.86,109.71a4.86,4.86,0,0,1,9.72,0v56.47h83.76V49.86a4.87,4.87,0,0,1,9.73,0V232.37a4.87,4.87,0,0,1-9.73,0V175.15H203.58v57.22a4.86,4.86,0,1,1-9.72,0Z" transform="translate(-46.17 -45)"/><path class="cls-2" d="M490,230.12,545.9,109c1.31-2.81,3.17-4.68,6.54-4.68h.37c3.37,0,5.24,1.87,6.55,4.68l55.71,120.78a6.43,6.43,0,0,1,.75,3,4.6,4.6,0,0,1-4.67,4.49c-2.25,0-3.93-1.68-4.87-3.74L591,199.83H513.74L498.4,233.68c-.93,2.24-2.43,3.55-4.67,3.55a4.36,4.36,0,0,1-4.49-4.11A7,7,0,0,1,490,230.12Zm96.85-39.07-34.4-75.73-34.59,75.73Z" transform="translate(-46.17 -45)"/><path class="cls-2" d="M96.6,285.92V265.36h2.9l6.59,10.4a60,60,0,0,1,3.69,6.68l.06,0c-.25-2.75-.31-5.25-.31-8.45v-8.6H112v20.56h-2.68l-6.53-10.43A66.38,66.38,0,0,1,99,268.62l-.09,0c.15,2.6.21,5.07.21,8.48v8.79Z" transform="translate(-46.17 -45)"/><path class="cls-2" d="M124.75,285.92l-.21-1.86h-.1a5.47,5.47,0,0,1-4.51,2.19,4.2,4.2,0,0,1-4.51-4.24c0-3.56,3.17-5.52,8.87-5.49v-.3c0-1.22-.33-3.42-3.35-3.42a7.38,7.38,0,0,0-3.85,1.1l-.61-1.77a9.19,9.19,0,0,1,4.85-1.31c4.52,0,5.62,3.08,5.62,6v5.52a21.18,21.18,0,0,0,.24,3.54Zm-.4-7.54c-2.93-.06-6.25.46-6.25,3.33a2.37,2.37,0,0,0,2.53,2.56,3.68,3.68,0,0,0,3.57-2.47,2.82,2.82,0,0,0,.15-.85Z" transform="translate(-46.17 -45)"/><path class="cls-2" d="M134.38,266.91v4.24h3.85v2.05h-3.85v8c0,1.83.52,2.87,2,2.87a5.5,5.5,0,0,0,1.55-.19l.13,2a6.71,6.71,0,0,1-2.38.36,3.7,3.7,0,0,1-2.9-1.13c-.76-.79-1-2.1-1-3.84V273.2h-2.29v-2.05h2.29v-3.53Z" transform="translate(-46.17 -45)"/><path class="cls-2" d="M144.23,267a1.57,1.57,0,0,1-1.7,1.64,1.59,1.59,0,0,1-1.62-1.64,1.63,1.63,0,0,1,1.68-1.68A1.59,1.59,0,0,1,144.23,267Zm-3,18.91V271.15h2.68v14.77Z" transform="translate(-46.17 -45)"/><path class="cls-2" d="M161.74,278.41c0,5.47-3.78,7.84-7.35,7.84-4,0-7.08-2.93-7.08-7.59,0-4.94,3.24-7.84,7.32-7.84C158.87,270.82,161.74,273.9,161.74,278.41Zm-11.71.16c0,3.23,1.86,5.67,4.48,5.67s4.49-2.41,4.49-5.73c0-2.51-1.25-5.68-4.43-5.68S150,275.76,150,278.57Z" transform="translate(-46.17 -45)"/><path class="cls-2" d="M165.12,275.15c0-1.53,0-2.77-.12-4h2.38l.15,2.45h.06a5.43,5.43,0,0,1,4.88-2.78c2.05,0,5.22,1.22,5.22,6.28v8.82H175v-8.51c0-2.38-.89-4.37-3.42-4.37a3.83,3.83,0,0,0-3.6,2.75,3.92,3.92,0,0,0-.18,1.25v8.88h-2.69Z" transform="translate(-46.17 -45)"/><path class="cls-2" d="M190.22,285.92l-.21-1.86h-.09a5.51,5.51,0,0,1-4.52,2.19,4.2,4.2,0,0,1-4.51-4.24c0-3.56,3.17-5.52,8.88-5.49v-.3c0-1.22-.34-3.42-3.36-3.42a7.34,7.34,0,0,0-3.84,1.1l-.61-1.77a9.19,9.19,0,0,1,4.85-1.31c4.51,0,5.61,3.08,5.61,6v5.52a21.18,21.18,0,0,0,.24,3.54Zm-.39-7.54c-2.93-.06-6.26.46-6.26,3.33a2.38,2.38,0,0,0,2.54,2.56,3.66,3.66,0,0,0,3.56-2.47,2.56,2.56,0,0,0,.16-.85Z" transform="translate(-46.17 -45)"/><path class="cls-2" d="M196.75,264.26h2.68v21.66h-2.68Z" transform="translate(-46.17 -45)"/><path class="cls-2" d="M213.15,265.36V274h9.95v-8.6h2.68v20.56H223.1v-9.64h-9.95v9.64H210.5V265.36Z" transform="translate(-46.17 -45)"/><path class="cls-2" d="M233.59,267a1.67,1.67,0,0,1-3.33,0,1.63,1.63,0,0,1,1.68-1.68A1.59,1.59,0,0,1,233.59,267Zm-3,18.91V271.15h2.68v14.77Z" transform="translate(-46.17 -45)"/><path class="cls-2" d="M237.37,283.17a7,7,0,0,0,3.53,1.07c2,0,2.87-1,2.87-2.2s-.76-2-2.74-2.71c-2.66-.95-3.91-2.41-3.91-4.18,0-2.38,1.92-4.33,5.1-4.33a7.49,7.49,0,0,1,3.63.91l-.68,2a5.65,5.65,0,0,0-3-.86c-1.58,0-2.47.92-2.47,2s.89,1.77,2.81,2.5c2.56,1,3.87,2.25,3.87,4.45,0,2.59-2,4.42-5.52,4.42a8.39,8.39,0,0,1-4.14-1Z" transform="translate(-46.17 -45)"/><path class="cls-2" d="M249.81,276c0-1.89-.06-3.41-.12-4.82h2.41l.12,2.54h.06a5.81,5.81,0,0,1,5.25-2.87c3.56,0,6.25,3,6.25,7.5,0,5.31-3.24,7.93-6.71,7.93a5.2,5.2,0,0,1-4.55-2.31h-.06v8h-2.65Zm2.65,3.94a6.28,6.28,0,0,0,.12,1.1,4.15,4.15,0,0,0,4,3.14c2.84,0,4.48-2.32,4.48-5.7,0-3-1.55-5.49-4.39-5.49a4.29,4.29,0,0,0-4.06,3.32,4.44,4.44,0,0,0-.18,1.1Z" transform="translate(-46.17 -45)"/><path class="cls-2" d="M275.33,285.92l-.21-1.86H275a5.49,5.49,0,0,1-4.51,2.19A4.21,4.21,0,0,1,266,282c0-3.56,3.17-5.52,8.88-5.49v-.3c0-1.22-.34-3.42-3.36-3.42a7.34,7.34,0,0,0-3.84,1.1l-.61-1.77a9.19,9.19,0,0,1,4.85-1.31c4.51,0,5.61,3.08,5.61,6v5.52a21.18,21.18,0,0,0,.24,3.54Zm-.39-7.54c-2.93-.06-6.25.46-6.25,3.33a2.37,2.37,0,0,0,2.53,2.56,3.68,3.68,0,0,0,3.57-2.47,2.82,2.82,0,0,0,.15-.85Z" transform="translate(-46.17 -45)"/><path class="cls-2" d="M281.86,275.15c0-1.53,0-2.77-.12-4h2.38l.15,2.45h.06a5.42,5.42,0,0,1,4.88-2.78c2,0,5.22,1.22,5.22,6.28v8.82h-2.69v-8.51c0-2.38-.88-4.37-3.41-4.37a3.82,3.82,0,0,0-3.6,2.75,3.65,3.65,0,0,0-.19,1.25v8.88h-2.68Z" transform="translate(-46.17 -45)"/><path class="cls-2" d="M301.77,267a1.66,1.66,0,0,1-3.32,0,1.63,1.63,0,0,1,1.68-1.68A1.59,1.59,0,0,1,301.77,267Zm-3,18.91V271.15h2.69v14.77Z" transform="translate(-46.17 -45)"/><path class="cls-2" d="M316.44,285.37a10,10,0,0,1-4.24.85c-4.45,0-7.35-3-7.35-7.53a7.5,7.5,0,0,1,7.93-7.84,9,9,0,0,1,3.72.76l-.61,2.08a6.15,6.15,0,0,0-3.11-.71c-3.38,0-5.21,2.51-5.21,5.59,0,3.41,2.19,5.52,5.12,5.52a7.75,7.75,0,0,0,3.3-.73Z" transform="translate(-46.17 -45)"/><path class="cls-2" d="M343.46,276.89c-.15-2.87-.33-6.32-.3-8.88h-.09c-.7,2.41-1.56,5-2.6,7.81l-3.63,10h-2L331.51,276c-1-2.89-1.8-5.55-2.38-8h-.06c-.06,2.56-.22,6-.4,9.09l-.55,8.82h-2.53L327,265.36h3.39l3.51,9.94c.85,2.53,1.55,4.79,2.07,6.93h.09c.52-2.08,1.25-4.33,2.17-6.93l3.66-9.94h3.38l1.28,20.56H344Z" transform="translate(-46.17 -45)"/><path class="cls-2" d="M352.24,279c.06,3.63,2.38,5.13,5.06,5.13a9.79,9.79,0,0,0,4.09-.76l.46,1.92a12.1,12.1,0,0,1-4.91.91c-4.55,0-7.26-3-7.26-7.44s2.62-8,6.92-8c4.82,0,6.11,4.24,6.11,6.95a9.77,9.77,0,0,1-.1,1.25Zm7.87-1.92c0-1.71-.7-4.36-3.72-4.36-2.71,0-3.9,2.5-4.12,4.36Z" transform="translate(-46.17 -45)"/><path class="cls-2" d="M378.78,264.26v17.85c0,1.31,0,2.8.12,3.81h-2.41l-.12-2.56h-.07a5.46,5.46,0,0,1-5,2.89c-3.57,0-6.31-3-6.31-7.5,0-4.91,3-7.93,6.62-7.93a4.94,4.94,0,0,1,4.45,2.26h.06v-8.82Zm-2.69,12.9A4.74,4.74,0,0,0,376,276a4,4,0,0,0-3.87-3.12c-2.78,0-4.43,2.44-4.43,5.71,0,3,1.47,5.46,4.37,5.46a4,4,0,0,0,3.93-3.21,4.67,4.67,0,0,0,.12-1.15Z" transform="translate(-46.17 -45)"/><path class="cls-2" d="M386.21,267a1.66,1.66,0,0,1-3.32,0,1.63,1.63,0,0,1,1.68-1.68A1.59,1.59,0,0,1,386.21,267Zm-3,18.91V271.15h2.69v14.77Z" transform="translate(-46.17 -45)"/><path class="cls-2" d="M400.88,285.37a10,10,0,0,1-4.24.85c-4.45,0-7.35-3-7.35-7.53a7.5,7.5,0,0,1,7.93-7.84,9.14,9.14,0,0,1,3.73.76l-.61,2.08a6.19,6.19,0,0,0-3.12-.71c-3.38,0-5.21,2.51-5.21,5.59,0,3.41,2.19,5.52,5.12,5.52a7.75,7.75,0,0,0,3.3-.73Z" transform="translate(-46.17 -45)"/><path class="cls-2" d="M412.2,285.92l-.22-1.86h-.09a5.49,5.49,0,0,1-4.51,2.19,4.21,4.21,0,0,1-4.52-4.24c0-3.56,3.18-5.52,8.88-5.49v-.3c0-1.22-.34-3.42-3.36-3.42a7.37,7.37,0,0,0-3.84,1.1l-.61-1.77a9.19,9.19,0,0,1,4.85-1.31c4.51,0,5.61,3.08,5.61,6v5.52a21.12,21.12,0,0,0,.25,3.54Zm-.4-7.54c-2.93-.06-6.25.46-6.25,3.33a2.37,2.37,0,0,0,2.53,2.56,3.68,3.68,0,0,0,3.57-2.47,2.82,2.82,0,0,0,.15-.85Z" transform="translate(-46.17 -45)"/><path class="cls-2" d="M418.72,264.26h2.69v21.66h-2.69Z" transform="translate(-46.17 -45)"/><path class="cls-2" d="M435.8,279.45l-2.14,6.47h-2.74l7-20.56h3.21l7,20.56h-2.83l-2.2-6.47Zm6.74-2.07-2-5.92c-.46-1.34-.76-2.56-1.07-3.75h-.06c-.31,1.22-.64,2.47-1,3.72l-2,5.95Z" transform="translate(-46.17 -45)"/><path class="cls-2" d="M450.5,283.17a7,7,0,0,0,3.54,1.07c1.95,0,2.86-1,2.86-2.2s-.76-2-2.74-2.71c-2.66-.95-3.91-2.41-3.91-4.18,0-2.38,1.93-4.33,5.1-4.33a7.49,7.49,0,0,1,3.63.91l-.67,2a5.71,5.71,0,0,0-3-.86c-1.59,0-2.47.92-2.47,2s.88,1.77,2.8,2.5c2.56,1,3.88,2.25,3.88,4.45,0,2.59-2,4.42-5.53,4.42a8.39,8.39,0,0,1-4.14-1Z" transform="translate(-46.17 -45)"/><path class="cls-2" d="M462.57,283.17a7.06,7.06,0,0,0,3.54,1.07c1.95,0,2.87-1,2.87-2.2s-.76-2-2.75-2.71c-2.65-.95-3.9-2.41-3.9-4.18,0-2.38,1.92-4.33,5.09-4.33a7.43,7.43,0,0,1,3.63.91l-.67,2a5.71,5.71,0,0,0-3-.86c-1.58,0-2.47.92-2.47,2s.89,1.77,2.81,2.5c2.56,1,3.87,2.25,3.87,4.45,0,2.59-2,4.42-5.52,4.42a8.43,8.43,0,0,1-4.15-1Z" transform="translate(-46.17 -45)"/><path class="cls-2" d="M488.38,278.41c0,5.47-3.79,7.84-7.35,7.84-4,0-7.08-2.93-7.08-7.59,0-4.94,3.23-7.84,7.32-7.84C485.51,270.82,488.38,273.9,488.38,278.41Zm-11.72.16c0,3.23,1.86,5.67,4.49,5.67s4.48-2.41,4.48-5.73c0-2.51-1.25-5.68-4.42-5.68S476.66,275.76,476.66,278.57Z" transform="translate(-46.17 -45)"/><path class="cls-2" d="M502.28,285.37a10,10,0,0,1-4.24.85c-4.45,0-7.35-3-7.35-7.53a7.5,7.5,0,0,1,7.93-7.84,9,9,0,0,1,3.72.76l-.61,2.08a6.15,6.15,0,0,0-3.11-.71c-3.38,0-5.21,2.51-5.21,5.59,0,3.41,2.19,5.52,5.12,5.52a7.7,7.7,0,0,0,3.29-.73Z" transform="translate(-46.17 -45)"/><path class="cls-2" d="M508.41,267a1.58,1.58,0,0,1-1.71,1.64,1.6,1.6,0,0,1-1.62-1.64,1.64,1.64,0,0,1,1.68-1.68A1.59,1.59,0,0,1,508.41,267Zm-3,18.91V271.15h2.68v14.77Z" transform="translate(-46.17 -45)"/><path class="cls-2" d="M520.73,285.92l-.21-1.86h-.09a5.51,5.51,0,0,1-4.52,2.19A4.2,4.2,0,0,1,511.4,282c0-3.56,3.17-5.52,8.87-5.49v-.3c0-1.22-.33-3.42-3.35-3.42a7.38,7.38,0,0,0-3.85,1.1l-.61-1.77a9.22,9.22,0,0,1,4.85-1.31c4.52,0,5.62,3.08,5.62,6v5.52a21.18,21.18,0,0,0,.24,3.54Zm-.4-7.54c-2.92-.06-6.25.46-6.25,3.33a2.37,2.37,0,0,0,2.53,2.56,3.67,3.67,0,0,0,3.57-2.47,2.82,2.82,0,0,0,.15-.85Z" transform="translate(-46.17 -45)"/><path class="cls-2" d="M530.37,266.91v4.24h3.84v2.05h-3.84v8c0,1.83.51,2.87,2,2.87a5.64,5.64,0,0,0,1.56-.19l.12,2a6.71,6.71,0,0,1-2.38.36,3.7,3.7,0,0,1-2.9-1.13c-.76-.79-1-2.1-1-3.84V273.2h-2.28v-2.05h2.28v-3.53Z" transform="translate(-46.17 -45)"/><path class="cls-2" d="M540.22,267a1.67,1.67,0,0,1-3.33,0,1.63,1.63,0,0,1,1.68-1.68A1.59,1.59,0,0,1,540.22,267Zm-3,18.91V271.15h2.68v14.77Z" transform="translate(-46.17 -45)"/><path class="cls-2" d="M557.72,278.41c0,5.47-3.78,7.84-7.35,7.84-4,0-7.08-2.93-7.08-7.59,0-4.94,3.24-7.84,7.33-7.84S557.72,273.9,557.72,278.41Zm-11.71.16c0,3.23,1.86,5.67,4.48,5.67s4.49-2.41,4.49-5.73c0-2.51-1.25-5.68-4.43-5.68S546,275.76,546,278.57Z" transform="translate(-46.17 -45)"/><path class="cls-2" d="M561.11,275.15c0-1.53,0-2.77-.13-4h2.38l.15,2.45h.07a5.42,5.42,0,0,1,4.88-2.78c2,0,5.21,1.22,5.21,6.28v8.82H571v-8.51c0-2.38-.89-4.37-3.42-4.37a3.83,3.83,0,0,0-3.6,2.75,3.92,3.92,0,0,0-.18,1.25v8.88h-2.68Z" transform="translate(-46.17 -45)"/><path class="cls-3" d="M304.07,143.87c-6.53,4.4-20.53,10.3-20.53-.49,0-1.8.89-3.81,3.82-4.92v-8.24c-9.41,1.6-13.72,7.83-12.53,15.52.56,3.69,4,8.73,13,9.33h0a28.56,28.56,0,0,0,20.23-9.88c4.31-4.51,6.79-6.86,14-8.68C314.77,136.62,310,139.86,304.07,143.87Z" transform="translate(-46.17 -45)"/><path class="cls-4" d="M320.29,120.07c0-14.57-16.6-12.18-23.13-10.62-7.39,1.78-11.54,3.41-17.13,5.23s-10.78,1.21-13.24-1.25c-2.63-2.64.49-6,4-8.06,3.34-2,9.8-2,16.52-1.6V96.91c-13.23-.83-22.48,2.57-26,6.2-7.26,7.56-4.74,17.46,3.89,20.5,12.24,4.33,46.3-16.54,46.3-2.91,0,4.1-3.11,7.45-14.52,8.81v6.36C316.24,133.28,320.29,126.21,320.29,120.07Z" transform="translate(-46.17 -45)"/><path class="cls-5" d="M312.36,72.26c-5.64-2.33-11.59-2-16.84-1.29l-6.21.87a24.3,24.3,0,0,1-4.29.22c-4-.27-2.44-3.1-13.43-1.65-3.23.42-2.17.24-10.12,4.38-1.63.84-1.17,3,.65,4.35a7.62,7.62,0,0,0,3.47,1.7c21.65,2,10.92-1.37,20.16-1.56,1.15-.18,2.38-.37,3.64-.54a43.55,43.55,0,0,1,18.77.28c6.25,1.58,11.08,4.66,9,12.45-.35,1.34-2,4-6.37,5.8a34.58,34.58,0,0,1-12.28,1L297,98v6.49c5,.4,9.67.69,12.7.2,9.59-1.57,13.79-8,14.91-13.29C325.58,87,325.32,77.63,312.36,72.26ZM271.5,76.21a2.72,2.72,0,0,1-.83.16c-1,.07-2.15-.11-1.94-.29a3.29,3.29,0,0,1,2-.93c.45,0,1.15.11,1.24.56C272,75.93,271.71,76.12,271.5,76.21Z" transform="translate(-46.17 -45)"/></svg>